<?xml version="1.0" encoding="iso-8859-1"?><!-- Generator: Adobe Illustrator 23.0.3, SVG Export Plug-In . SVG Version: 6.00 Build 0)  --><svg xmlns="http://www.w3.org/2000/svg" xmlns:xlink="http://www.w3.org/1999/xlink" viewBox="0 0 48 48" width="48px" height="48px"><g><path style="fill:#169154;" d="M29,6H15.744C14.781,6,14,6.781,14,7.744v7.259h15V6z"/><path style="fill:#18482A;" d="M14,33.054v7.202C14,41.219,14.781,42,15.743,42H29v-8.946H14z"/><rect x="14" y="15.003" style="fill:#0C8045;" width="15" height="9.002"/><rect x="14" y="24.005" style="fill:#17472A;" width="15" height="9.05"/></g><g><path style="fill:#29C27F;" d="M42.256,6H29v9.003h15V7.744C44,6.781,43.219,6,42.256,6z"/><path style="fill:#27663F;" d="M29,33.054V42h13.257C43.219,42,44,41.219,44,40.257v-7.202H29z"/><rect x="29" y="15.003" style="fill:#19AC65;" width="15" height="9.002"/><rect x="29" y="24.005" style="fill:#129652;" width="15" height="9.05"/></g><path style="fill:#0C7238;" d="M22.319,34H5.681C4.753,34,4,33.247,4,32.319V15.681C4,14.753,4.753,14,5.681,14h16.638  C23.247,14,24,14.753,24,15.681v16.638C24,33.247,23.247,34,22.319,34z"/><polygon style="fill:#FFFFFF;" points="9.807,19 12.193,19 14.129,22.754 16.175,19 18.404,19 15.333,24 18.474,29 16.123,29   14.013,25.07 11.912,29 9.526,29 12.719,23.982 "/></svg>