<?xml version="1.0" encoding="iso-8859-1"?><!-- Generator: Adobe Illustrator 23.0.3, SVG Export Plug-In . SVG Version: 6.00 Build 0)  --><svg xmlns="http://www.w3.org/2000/svg" xmlns:xlink="http://www.w3.org/1999/xlink" viewBox="0 0 48 48" width="48px" height="48px"><g><path style="fill:#2D92D4;" d="M42.256,6H15.744C14.781,6,14,6.781,14,7.744v7.259h30V7.744C44,6.781,43.219,6,42.256,6z"/><path style="fill:#2150A9;" d="M14,33.054v7.202C14,41.219,14.781,42,15.743,42h26.513C43.219,42,44,41.219,44,40.256v-7.202H14z"/><rect x="14" y="15.003" style="fill:#2D83D4;" width="30" height="9.002"/><rect x="14" y="24.005" style="fill:#2E70C9;" width="30" height="9.05"/></g><path style="fill:#00488D;" d="M22.319,34H5.681C4.753,34,4,33.247,4,32.319V15.681C4,14.753,4.753,14,5.681,14h16.638  C23.247,14,24,14.753,24,15.681v16.638C24,33.247,23.247,34,22.319,34z"/><polygon style="fill:#FFFFFF;" points="18.403,19 16.857,26.264 15.144,19 12.957,19 11.19,26.489 9.597,19 7.641,19 9.985,29   12.337,29 14.05,21.311 15.764,29 18.015,29 20.359,19 "/></svg>