<svg version="1.1" id="Layer_1" xmlns="http://www.w3.org/2000/svg" xmlns:xlink="http://www.w3.org/1999/xlink" x="0px" y="0px"
	 width="100%" viewBox="0 0 129 88" enable-background="new 0 0 129 88" xml:space="preserve">
<path fill="#000000" fill-opacity="0"  stroke="none" 
	d="
M89.000000,89.000000 
	C59.333332,89.000000 30.166666,89.000000 1.000000,89.000000 
	C1.000000,59.666668 1.000000,30.333334 1.000000,1.000000 
	C44.000000,1.000000 87.000000,1.000000 130.000000,1.000000 
	C130.000000,30.333334 130.000000,59.666668 130.000000,89.000000 
	C116.500000,89.000000 103.000000,89.000000 89.000000,89.000000 
M119.726723,62.003967 
	C119.885796,61.657475 120.044876,61.310986 120.313423,60.756935 
	C120.313423,60.756935 120.158936,60.580303 120.704971,60.216991 
	C120.805107,59.811348 120.905243,59.405704 121.150696,58.674969 
	C121.150696,58.674969 121.082390,58.325485 121.739632,57.963253 
	C121.913483,56.997051 122.087341,56.030846 123.009277,54.895054 
	C123.263481,52.665779 124.079437,50.328560 123.675385,48.225769 
	C121.850960,38.731060 115.473846,33.566086 106.576286,30.768835 
	C104.425972,30.092810 102.306915,28.598030 100.734581,26.945801 
	C96.929680,22.947588 92.749481,20.028784 86.380363,19.862986 
	C85.243980,19.248009 84.107605,18.633032 82.701767,17.387398 
	C77.694206,14.662024 72.717857,11.875439 67.640816,9.286313 
	C66.982994,8.950845 65.752724,9.509136 64.878532,9.872290 
	C62.783035,10.742797 60.624878,11.553000 58.702419,12.730944 
	C54.511646,15.298738 50.451988,18.080519 45.644066,20.960245 
	C45.170319,21.027573 44.696575,21.094898 43.452217,21.067528 
	C40.183792,22.814167 36.255432,23.935579 33.837372,26.487864 
	C31.538822,28.914001 29.361013,30.277573 26.214855,31.149227 
	C11.644711,35.185936 6.024824,49.181808 13.916648,61.723469 
	C16.919237,64.250511 19.921827,66.777557 23.329990,69.903236 
	C26.239202,70.430046 29.148415,70.956848 32.955971,71.722115 
	C38.282944,71.679161 43.609921,71.636215 49.794125,71.822433 
	C51.854939,71.877815 53.915749,71.933189 56.219822,72.639030 
	C56.526424,73.012299 56.848061,73.374298 57.137394,73.760498 
	C62.388290,80.769394 71.303383,81.070976 75.657707,74.102165 
	C75.740601,73.741478 75.823502,73.380798 76.067123,72.618759 
	C76.067123,72.618759 76.063881,72.186424 76.701225,72.037254 
	C77.117371,71.910065 77.533508,71.782875 78.863945,71.804169 
	C82.256775,71.734749 85.649605,71.665329 89.928230,71.769409 
	C92.935661,71.724808 95.943100,71.680206 99.748497,71.825401 
	C103.500000,70.878044 107.251503,69.930687 111.578178,68.921898 
	C112.047493,68.607285 112.516815,68.292671 113.650421,67.848541 
	C115.508095,65.959435 117.365768,64.070320 119.128334,62.138313 
	C119.128334,62.138313 119.144547,62.241375 119.726723,62.003967 
z"/>
<path fill="#232426" opacity="1.000000" stroke="none" 
	d="
M44.222824,21.162226 
	C44.696575,21.094898 45.170319,21.027573 46.263908,20.979761 
	C47.596695,21.315645 48.309643,21.632015 49.018002,22.339756 
	C50.048889,23.759159 51.179173,25.725788 52.101395,25.632629 
	C54.507496,25.389584 57.066902,24.646049 59.131439,23.389488 
	C68.024498,17.976803 77.242683,17.882858 87.109901,21.236338 
	C89.144730,25.602535 90.862846,29.808567 92.223068,34.035461 
	C91.241058,35.180309 90.345604,36.234589 90.036072,37.439400 
	C87.699989,46.532192 83.386208,54.196671 74.580193,58.965919 
	C72.649796,58.391319 71.125092,57.752102 69.540024,57.352047 
	C63.984459,55.949890 58.132111,59.549351 56.735619,65.100662 
	C55.799198,65.463043 55.118660,65.721191 54.220268,65.785431 
	C53.664070,65.428009 53.325722,65.264496 52.784927,65.028091 
	C52.582485,64.955200 52.158436,64.881889 52.072884,64.561920 
	C50.987625,63.532791 49.987926,62.823627 48.753784,61.932678 
	C47.758766,61.120914 46.998188,60.490936 46.116459,59.624741 
	C45.735813,59.150330 45.476315,58.912136 45.139725,58.339836 
	C44.255928,56.352818 43.449223,54.699902 42.701843,52.740868 
	C42.223392,51.888203 41.685616,51.341656 41.138638,50.495880 
	C41.050522,49.806034 40.971607,49.415417 40.918350,48.657558 
	C40.383083,47.085346 39.822159,45.880367 39.249802,44.240154 
	C39.231468,40.299004 39.224571,36.793095 39.505970,33.163559 
	C40.115669,32.348022 40.437073,31.656107 40.833347,30.606918 
	C42.013088,27.220503 43.117958,24.191364 44.222824,21.162226 
z"/>
<path fill="#3B3CAB" opacity="1.000000" stroke="none" 
	d="
M92.580963,34.014603 
	C90.862846,29.808567 89.144730,25.602535 87.186531,20.992241 
	C86.962784,20.419031 86.979126,20.250082 86.995468,20.081135 
	C92.749481,20.028784 96.929680,22.947588 100.734581,26.945801 
	C102.306915,28.598030 104.425972,30.092810 106.576286,30.768835 
	C115.473846,33.566086 121.850960,38.731060 123.675385,48.225769 
	C124.079437,50.328560 123.263481,52.665779 122.307816,55.164818 
	C121.431694,56.398216 121.257050,57.361851 121.082397,58.325485 
	C121.082390,58.325485 121.150696,58.674969 120.824234,59.025940 
	C120.384819,59.778042 120.271873,60.179173 120.158936,60.580303 
	C120.158936,60.580303 120.313423,60.756935 119.988419,60.984066 
	C119.490456,61.554588 119.317505,61.897984 119.144547,62.241379 
	C119.144547,62.241375 119.128334,62.138313 118.830414,62.091743 
	C118.064079,62.022259 117.595665,61.999340 117.000504,61.810699 
	C116.585632,61.789341 116.297516,61.933708 115.905380,62.278931 
	C115.615288,62.730152 115.374695,62.905884 114.831635,63.098526 
	C114.369766,63.463505 114.155853,63.736935 113.746002,64.106705 
	C113.304779,64.374084 113.127686,64.598831 112.603531,64.907875 
	C110.754051,65.249855 109.322304,65.817101 107.885216,65.830978 
	C98.791977,65.918785 89.697548,65.884064 80.840485,65.621857 
	C83.004272,63.609383 85.224213,62.094864 86.805923,60.079456 
	C92.864098,52.360157 93.854187,43.413826 92.580963,34.014603 
z"/>
<path fill="#3A3BA9" opacity="1.000000" stroke="none" 
	d="
M52.158436,64.881889 
	C52.158436,64.881889 52.582485,64.955200 52.783485,65.344009 
	C52.999992,66.155640 53.015503,66.578461 52.751030,67.282074 
	C46.906929,67.382133 41.337860,66.967224 35.780048,67.084770 
	C29.904955,67.209030 24.325241,67.056015 19.503523,62.909351 
	C18.137300,61.734406 15.874543,61.601952 14.022952,60.991390 
	C6.024824,49.181808 11.644711,35.185936 26.214855,31.149227 
	C29.361013,30.277573 31.538822,28.914001 33.837372,26.487864 
	C36.255432,23.935579 40.183792,22.814167 43.837521,21.114876 
	C43.117958,24.191364 42.013088,27.220503 40.523323,30.680069 
	C39.831512,31.836060 39.524597,32.561619 39.217678,33.287182 
	C39.224571,36.793095 39.231468,40.299004 39.169876,44.637833 
	C39.698490,46.655430 40.295589,47.840111 40.892693,49.024796 
	C40.971607,49.415417 41.050522,49.806034 41.108932,50.814636 
	C41.606457,51.970741 42.124485,52.508865 42.642513,53.046989 
	C43.449223,54.699902 44.255928,56.352818 45.178314,58.632286 
	C45.608532,59.459549 45.923069,59.660252 46.237606,59.860958 
	C46.998188,60.490936 47.758766,61.120914 48.791798,62.268211 
	C50.095646,63.484314 51.127041,64.183105 52.158436,64.881889 
z"/>
<path fill="#F2C5A1" opacity="1.000000" stroke="none" 
	d="
M49.022587,21.948383 
	C48.309643,21.632015 47.596695,21.315645 46.611252,20.887066 
	C50.451988,18.080519 54.511646,15.298738 58.702419,12.730944 
	C60.624878,11.553000 62.783035,10.742797 64.878532,9.872290 
	C65.752724,9.509136 66.982994,8.950845 67.640816,9.286313 
	C72.717857,11.875439 77.694206,14.662024 82.423523,17.741295 
	C74.135849,15.838727 66.584091,17.834188 59.545574,21.351328 
	C55.830952,23.207521 52.670494,24.019917 49.022587,21.948383 
z"/>
<path fill="#303030" opacity="1.000000" stroke="none" 
	d="
M54.438122,65.979347 
	C55.118660,65.721191 55.799198,65.463043 57.040337,65.249146 
	C60.234184,67.687210 62.867428,70.081017 65.500671,72.474831 
	C65.894852,72.118507 66.289024,71.762192 66.683205,71.405869 
	C66.362877,68.775848 66.042549,66.145828 65.722221,63.515804 
	C66.178261,63.515434 66.634300,63.515068 67.090332,63.514698 
	C68.583443,65.102036 70.076553,66.689369 72.003639,68.738068 
	C72.909691,65.667984 73.450348,63.836006 74.245636,62.185894 
	C75.001709,63.244324 75.503143,64.120880 76.002052,65.445724 
	C76.020981,67.991486 76.042435,70.088951 76.063881,72.186424 
	C76.063881,72.186424 76.067123,72.618759 75.770538,72.984436 
	C75.356575,73.688690 75.239197,74.027252 75.121819,74.365822 
	C71.303383,81.070976 62.388290,80.769394 57.137394,73.760498 
	C56.848061,73.374298 56.526424,73.012299 56.114079,72.022667 
	C55.689495,70.947990 55.370655,70.489677 55.052410,69.709610 
	C54.757328,68.588661 54.461647,67.789459 54.206894,66.730240 
	C54.311256,66.306587 54.374687,66.142967 54.438122,65.979347 
z"/>
<path fill="#26268A" opacity="1.000000" stroke="none" 
	d="
M54.165970,66.990265 
	C54.461647,67.789459 54.757328,68.588661 54.652115,69.710159 
	C52.479786,70.552727 50.708340,71.072998 48.936893,71.593269 
	C43.609921,71.636215 38.282944,71.679161 32.387970,71.289978 
	C28.854786,70.340088 25.889603,69.822342 22.924416,69.304596 
	C19.921827,66.777557 16.919237,64.250511 13.969800,61.357430 
	C15.874543,61.601952 18.137300,61.734406 19.503523,62.909351 
	C24.325241,67.056015 29.904955,67.209030 35.780048,67.084770 
	C41.337860,66.967224 46.906929,67.382133 53.034607,67.282089 
	C53.787434,66.997643 53.976704,66.993950 54.165970,66.990265 
z"/>
<path fill="#2B2C8C" opacity="1.000000" stroke="none" 
	d="
M80.603516,65.889771 
	C89.697548,65.884064 98.791977,65.918785 107.885216,65.830978 
	C109.322304,65.817101 110.754051,65.249855 112.607597,65.297821 
	C113.013329,66.430809 112.999725,67.204437 112.986130,67.978058 
	C112.516815,68.292671 112.047493,68.607285 111.052200,68.693481 
	C106.667656,69.521912 102.809090,70.578751 98.950531,71.635597 
	C95.943100,71.680206 92.935661,71.724808 89.344246,71.334549 
	C85.280510,70.612175 81.800766,70.324654 78.219986,69.651291 
	C78.098427,68.206825 78.077888,67.148216 78.377853,66.053970 
	C79.333412,65.975494 79.968460,65.932632 80.603516,65.889771 
z"/>
<path fill="#3F3126" opacity="1.000000" stroke="none" 
	d="
M49.018002,22.339756 
	C52.670494,24.019917 55.830952,23.207521 59.545574,21.351328 
	C66.584091,17.834188 74.135849,15.838727 82.558258,18.056625 
	C84.107605,18.633032 85.243980,19.248009 86.687912,19.972061 
	C86.979126,20.250082 86.962784,20.419031 86.869812,20.832077 
	C77.242683,17.882858 68.024498,17.976803 59.131439,23.389488 
	C57.066902,24.646049 54.507496,25.389584 52.101395,25.632629 
	C51.179173,25.725788 50.048889,23.759159 49.018002,22.339756 
z"/>
<path fill="#424286" opacity="1.000000" stroke="none" 
	d="
M99.349518,71.730499 
	C102.809090,70.578751 106.667656,69.521912 110.764610,68.724205 
	C107.251503,69.930687 103.500000,70.878044 99.349518,71.730499 
z"/>
<path fill="#424286" opacity="1.000000" stroke="none" 
	d="
M78.321014,70.037132 
	C81.800766,70.324654 85.280510,70.612175 88.901352,71.247803 
	C85.649605,71.665329 82.256775,71.734749 78.401634,71.449493 
	C78.066551,70.742264 78.193779,70.389694 78.321014,70.037132 
z"/>
<path fill="#424286" opacity="1.000000" stroke="none" 
	d="
M113.318275,67.913300 
	C112.999725,67.204437 113.013329,66.430809 113.022865,65.267242 
	C113.127686,64.598831 113.304779,64.374084 113.988419,64.005821 
	C114.644379,63.541386 114.861984,63.274181 115.079590,63.006981 
	C115.374695,62.905884 115.615288,62.730152 116.184906,62.254181 
	C116.754730,62.011192 116.940994,61.993805 117.127258,61.976421 
	C117.595665,61.999340 118.064079,62.022259 118.877960,62.113190 
	C117.365768,64.070320 115.508095,65.959435 113.318275,67.913300 
z"/>
<path fill="#434385" opacity="1.000000" stroke="none" 
	d="
M23.127205,69.603912 
	C25.889603,69.822342 28.854786,70.340088 31.938797,71.170746 
	C29.148415,70.956848 26.239202,70.430046 23.127205,69.603912 
z"/>
<path fill="#434385" opacity="1.000000" stroke="none" 
	d="
M49.365509,71.707855 
	C50.708340,71.072998 52.479786,70.552727 54.651520,70.031906 
	C55.370655,70.489677 55.689495,70.947990 55.992447,71.697433 
	C53.915749,71.933189 51.854939,71.877815 49.365509,71.707855 
z"/>
<path fill="#232529" opacity="1.000000" stroke="none" 
	d="
M78.219986,69.651291 
	C78.193779,70.389694 78.066551,70.742264 77.944489,71.375259 
	C77.533508,71.782875 77.117371,71.910065 76.382553,72.111839 
	C76.042435,70.088951 76.020981,67.991486 76.310745,65.470108 
	C77.100426,65.394005 77.578888,65.741806 78.057350,66.089600 
	C78.077888,67.148216 78.098427,68.206825 78.219986,69.651291 
z"/>
<path fill="#2B2C8C" opacity="1.000000" stroke="none" 
	d="
M121.411011,58.144371 
	C121.257050,57.361851 121.431694,56.398216 121.933769,55.249611 
	C122.087341,56.030846 121.913483,56.997051 121.411011,58.144371 
z"/>
<path fill="#232529" opacity="1.000000" stroke="none" 
	d="
M75.389763,74.233994 
	C75.239197,74.027252 75.356575,73.688690 75.690178,73.185120 
	C75.823502,73.380798 75.740601,73.741478 75.389763,74.233994 
z"/>
<path fill="#424286" opacity="1.000000" stroke="none" 
	d="
M119.435638,62.122673 
	C119.317505,61.897984 119.490456,61.554588 119.933685,61.087845 
	C120.044876,61.310986 119.885796,61.657475 119.435638,62.122673 
z"/>
<path fill="#424286" opacity="1.000000" stroke="none" 
	d="
M120.431946,60.398647 
	C120.271873,60.179173 120.384819,59.778042 120.751572,59.188484 
	C120.905243,59.405704 120.805107,59.811348 120.431946,60.398647 
z"/>
<path fill="#1C1C23" opacity="1.000000" stroke="none" 
	d="
M78.377853,66.053970 
	C77.578888,65.741806 77.100426,65.394005 76.313271,65.021828 
	C75.503143,64.120880 75.001709,63.244324 74.365295,61.889694 
	C74.472939,60.611412 74.715576,59.811195 74.958206,59.010975 
	C83.386208,54.196671 87.699989,46.532192 90.036072,37.439400 
	C90.345604,36.234589 91.241058,35.180309 92.223061,34.035461 
	C93.854187,43.413826 92.864098,52.360157 86.805923,60.079456 
	C85.224213,62.094864 83.004272,63.609383 80.840485,65.621857 
	C79.968460,65.932632 79.333412,65.975494 78.377853,66.053970 
z"/>
<path fill="#333234" opacity="1.000000" stroke="none" 
	d="
M74.580193,58.965919 
	C74.715576,59.811195 74.472939,60.611412 74.110657,61.707832 
	C73.450348,63.836006 72.909691,65.667984 72.003639,68.738068 
	C70.076553,66.689369 68.583443,65.102036 67.090332,63.514698 
	C66.634300,63.515068 66.178261,63.515434 65.722221,63.515804 
	C66.042549,66.145828 66.362877,68.775848 66.683205,71.405869 
	C66.289024,71.762192 65.894852,72.118507 65.500671,72.474831 
	C62.867428,70.081017 60.234184,67.687210 57.296219,65.144913 
	C58.132111,59.549351 63.984459,55.949890 69.540024,57.352047 
	C71.125092,57.752102 72.649796,58.391319 74.580193,58.965919 
z"/>
<path fill="#434385" opacity="1.000000" stroke="none" 
	d="
M40.918350,48.657558 
	C40.295589,47.840111 39.698490,46.655430 39.181313,45.073067 
	C39.822159,45.880367 40.383083,47.085346 40.918350,48.657558 
z"/>
<path fill="#434385" opacity="1.000000" stroke="none" 
	d="
M52.072884,64.561920 
	C51.127041,64.183105 50.095646,63.484314 49.026237,62.449997 
	C49.987926,62.823627 50.987625,63.532791 52.072884,64.561920 
z"/>
<path fill="#434385" opacity="1.000000" stroke="none" 
	d="
M42.701843,52.740868 
	C42.124485,52.508865 41.606457,51.970741 41.118134,51.113861 
	C41.685616,51.341656 42.223392,51.888203 42.701843,52.740868 
z"/>
<path fill="#434385" opacity="1.000000" stroke="none" 
	d="
M39.505970,33.163559 
	C39.524597,32.561619 39.831512,31.836060 40.448456,31.037346 
	C40.437073,31.656107 40.115669,32.348022 39.505970,33.163559 
z"/>
<path fill="#434385" opacity="1.000000" stroke="none" 
	d="
M54.206894,66.730240 
	C53.976704,66.993950 53.787434,66.997643 53.314590,67.001312 
	C53.015503,66.578461 52.999992,66.155640 52.985928,65.416901 
	C53.325722,65.264496 53.664070,65.428009 54.220268,65.785431 
	C54.374687,66.142967 54.311256,66.306587 54.206894,66.730240 
z"/>
<path fill="#434385" opacity="1.000000" stroke="none" 
	d="
M46.116459,59.624741 
	C45.923069,59.660252 45.608532,59.459549 45.255405,58.966393 
	C45.476315,58.912136 45.735813,59.150330 46.116459,59.624741 
z"/>
<path fill="#2B2C8C" opacity="1.000000" stroke="none" 
	d="
M114.831635,63.098526 
	C114.861984,63.274181 114.644379,63.541386 114.184357,63.909477 
	C114.155853,63.736935 114.369766,63.463505 114.831635,63.098526 
z"/>
<path fill="#2B2C8C" opacity="1.000000" stroke="none" 
	d="
M117.000504,61.810699 
	C116.940994,61.993805 116.754730,62.011192 116.288925,62.053329 
	C116.297516,61.933708 116.585632,61.789341 117.000504,61.810699 
z"/>
</svg>