<svg version="1.1" id="Layer_1" xmlns="http://www.w3.org/2000/svg" xmlns:xlink="http://www.w3.org/1999/xlink" x="0px" y="0px"
	 width="100%" viewBox="0 0 140 111" enable-background="new 0 0 140 111" xml:space="preserve">
<path fill="#000000" fill-opacity="0"  stroke="none" 
	d="
M82.000000,112.000000 
	C54.666672,112.000000 27.833340,112.000000 1.000007,112.000000 
	C1.000005,75.000008 1.000005,38.000015 1.000002,1.000017 
	C47.666653,1.000011 94.333305,1.000011 140.999969,1.000006 
	C140.999969,37.999981 140.999969,74.999962 140.999985,111.999969 
	C121.500000,112.000000 102.000000,112.000000 82.000000,112.000000 
M55.482082,48.864094 
	C55.320164,48.927788 55.158245,48.991486 54.083015,48.920860 
	C51.799961,48.910908 49.456966,48.566471 47.246681,48.962574 
	C43.008572,49.722080 38.845810,50.902042 33.936577,52.075043 
	C32.742321,52.407688 31.548069,52.740334 30.441963,53.048428 
	C27.516123,47.460373 29.240286,43.105293 33.363308,39.515678 
	C35.719303,37.464489 38.454441,35.848774 41.790478,34.017296 
	C44.518139,33.026024 48.725643,33.255016 46.548882,28.188568 
	C46.461128,27.984329 47.389194,27.343651 48.535206,27.005524 
	C48.999222,27.043072 49.463238,27.080622 50.332935,27.573332 
	C51.222664,27.386196 52.112389,27.199062 53.823231,27.086849 
	C57.191715,27.344460 60.560196,27.602070 64.532005,27.709248 
	C64.358055,26.800528 64.184113,25.891806 63.385395,24.917189 
	C62.966717,24.913696 62.548038,24.910204 62.119431,24.252470 
	C62.493439,23.234894 62.867447,22.217318 63.667473,21.191576 
	C63.667473,21.191576 64.086739,21.115582 64.970116,21.096931 
	C67.264252,21.045956 69.576454,21.145370 71.843987,20.872931 
	C72.804520,20.757523 73.671196,19.860996 74.580536,19.319494 
	C73.723251,18.551508 72.937263,17.672411 71.980911,17.058838 
	C71.441071,16.712482 70.620865,16.803106 70.648674,16.807364 
	C70.943146,15.086004 71.822815,13.295498 71.266273,12.446774 
	C70.326363,11.013416 68.477066,10.176384 66.363731,9.098446 
	C65.937988,9.163968 65.512253,9.229490 64.384857,9.030908 
	C60.206676,5.861040 56.935371,7.713648 53.476219,11.004486 
	C53.476219,11.004486 53.052395,11.124303 52.412636,11.112444 
	C51.861469,11.674248 51.310303,12.236053 50.212688,12.906842 
	C49.780098,13.232654 49.347511,13.558465 48.241039,14.013001 
	C47.207867,15.030621 46.174690,16.048239 44.999680,17.490225 
	C44.999680,17.490225 44.908775,17.928335 44.170795,17.955776 
	C40.524979,12.726690 39.457905,12.601534 35.305828,17.150921 
	C31.096119,19.761501 26.572916,21.981619 22.738770,25.059971 
	C13.340818,32.605381 8.754809,42.488285 11.364255,54.559013 
	C14.552489,69.307098 21.078512,82.610718 32.464329,92.725868 
	C36.167454,96.015724 41.636024,98.108994 46.606735,98.977486 
	C52.566074,100.018730 58.856628,99.164307 65.601578,99.520859 
	C70.934402,100.375244 76.251419,101.736427 81.605690,101.903496 
	C85.098557,102.012474 88.645523,100.387169 93.075539,99.660118 
	C100.561096,99.651207 108.049774,99.776848 115.531517,99.603523 
	C128.463898,99.303909 137.482697,91.530167 139.405563,79.265884 
	C141.563080,65.505142 132.202316,53.246990 116.273193,49.593651 
	C110.897606,49.452549 105.522018,49.311451 99.255180,49.154556 
	C97.475845,49.205311 95.696518,49.256065 93.148857,49.068455 
	C89.095558,47.854397 85.065201,46.553780 80.977287,45.470310 
	C79.415398,45.056351 77.585915,44.666267 76.114685,45.088566 
	C72.333755,46.173847 68.685074,47.719872 64.087746,49.002876 
	C61.384953,49.009510 58.682159,49.016144 55.482082,48.864094 
z"/>
<path fill="#262626" opacity="1.000000" stroke="none" 
	d="
M65.003754,99.130798 
	C58.856628,99.164307 52.566074,100.018730 46.606735,98.977486 
	C41.636024,98.108994 36.167454,96.015724 32.464329,92.725868 
	C21.078512,82.610718 14.552489,69.307098 11.364255,54.559013 
	C8.754809,42.488285 13.340818,32.605381 22.738770,25.059971 
	C26.572916,21.981619 31.096119,19.761501 35.903374,17.266773 
	C38.006901,22.934078 39.512886,28.485533 41.018871,34.036987 
	C38.454441,35.848774 35.719303,37.464489 33.363308,39.515678 
	C29.240286,43.105293 27.516123,47.460373 30.441963,53.048428 
	C31.548069,52.740334 32.742321,52.407688 34.784409,52.026306 
	C42.540611,51.943394 49.448982,51.909214 56.796520,51.775543 
	C58.742397,51.763840 60.249107,51.851627 61.524998,52.218338 
	C60.519291,53.654316 59.744404,54.811375 58.631153,56.059280 
	C50.765045,65.802467 51.726349,76.421181 55.135658,87.110970 
	C55.864582,89.396484 58.200691,91.169418 59.872597,93.505203 
	C61.633781,95.598213 63.318768,97.364502 65.003754,99.130798 
z"/>
<path fill="#8E8E8D" opacity="1.000000" stroke="none" 
	d="
M59.796398,93.178490 
	C58.200691,91.169418 55.864582,89.396484 55.135658,87.110970 
	C51.726349,76.421181 50.765045,65.802467 59.015724,56.071232 
	C62.688206,56.359318 66.193192,57.932156 68.487022,56.875580 
	C76.569542,53.152645 84.663681,50.717995 93.744995,52.637886 
	C93.816772,51.249233 93.866982,50.278027 93.917183,49.306820 
	C95.696518,49.256065 97.475845,49.205311 99.741745,49.515045 
	C100.093758,50.568069 99.959213,51.260601 99.470154,51.924850 
	C98.011017,51.969650 96.906403,52.042732 95.426163,52.140667 
	C99.686752,57.981094 103.871986,63.443623 102.438019,70.988365 
	C101.209564,72.803787 100.172928,74.466927 99.431389,76.252609 
	C94.385735,88.402779 88.463524,93.681168 75.928123,93.971832 
	C70.559906,94.096321 65.174171,93.465904 59.796398,93.178490 
z"/>
<path fill="#262626" opacity="1.000000" stroke="none" 
	d="
M102.766365,70.892776 
	C103.871986,63.443623 99.686752,57.981094 95.426163,52.140667 
	C96.906403,52.042732 98.011017,51.969650 99.950333,51.939133 
	C104.531097,51.989212 108.293747,52.205795 112.015854,51.910824 
	C113.724983,51.775375 115.354561,50.635902 117.020210,49.951729 
	C132.202316,53.246990 141.563080,65.505142 139.405563,79.265884 
	C137.482697,91.530167 128.463898,99.303909 115.531517,99.603523 
	C108.049774,99.776848 100.561096,99.651207 92.669266,99.285263 
	C92.580666,98.357643 92.766319,97.627434 93.235527,97.278343 
	C102.243515,90.576294 104.134087,81.328171 102.766365,70.892776 
z"/>
<path fill="#686868" opacity="1.000000" stroke="none" 
	d="
M102.438019,70.988365 
	C104.134087,81.328171 102.243515,90.576294 93.235527,97.278343 
	C92.766319,97.627434 92.580666,98.357643 92.215630,99.224586 
	C88.645523,100.387169 85.098557,102.012474 81.605690,101.903496 
	C76.251419,101.736427 70.934402,100.375244 65.302666,99.325829 
	C63.318768,97.364502 61.633781,95.598213 59.872597,93.505203 
	C65.174171,93.465904 70.559906,94.096321 75.928123,93.971832 
	C88.463524,93.681168 94.385735,88.402779 99.431389,76.252609 
	C100.172928,74.466927 101.209564,72.803787 102.438019,70.988365 
z"/>
<path fill="#F4C197" opacity="1.000000" stroke="none" 
	d="
M53.052395,11.124304 
	C53.052395,11.124303 53.476219,11.004486 54.109718,10.991490 
	C58.228409,10.647285 62.209881,13.365219 65.086510,9.295013 
	C65.512253,9.229490 65.937988,9.163968 66.795807,9.377378 
	C67.127808,10.235868 67.234749,11.044206 66.891388,11.354886 
	C65.496391,12.617107 63.026836,13.520231 62.713123,14.943590 
	C62.301903,16.809370 63.551491,19.041197 64.086739,21.115582 
	C64.086739,21.115582 63.667473,21.191576 63.077057,21.158087 
	C61.695755,21.919588 60.904873,22.714581 60.113991,23.509571 
	C60.785782,23.975283 61.457573,24.440996 62.129360,24.906712 
	C62.548038,24.910204 62.966717,24.913696 63.691959,25.311359 
	C63.975243,26.423578 63.951965,27.141630 63.928680,27.859680 
	C60.560196,27.602070 57.191715,27.344460 53.245468,26.804184 
	C51.754219,26.720402 50.840736,26.919287 49.927254,27.118172 
	C49.463238,27.080622 48.999222,27.043072 48.236248,26.611248 
	C47.533932,23.232618 48.316002,19.815130 44.908775,17.928335 
	C44.908775,17.928335 44.999680,17.490225 45.424088,17.256161 
	C46.870640,15.976154 47.892780,14.930214 48.914921,13.884275 
	C49.347511,13.558465 49.780098,13.232654 50.824203,12.889194 
	C51.974609,12.289131 52.513500,11.706717 53.052395,11.124304 
z"/>
<path fill="#F0C4A1" opacity="1.000000" stroke="none" 
	d="
M93.533020,49.187637 
	C93.866982,50.278027 93.816772,51.249233 93.744995,52.637886 
	C84.663681,50.717995 76.569542,53.152645 68.487022,56.875580 
	C66.193192,57.932156 62.688206,56.359318 59.354088,55.980385 
	C59.744404,54.811375 60.519291,53.654316 61.827831,52.239014 
	C63.235504,51.014427 64.109520,50.048088 64.983536,49.081749 
	C68.685074,47.719872 72.333755,46.173847 76.114685,45.088566 
	C77.585915,44.666267 79.415398,45.056351 80.977287,45.470310 
	C85.065201,46.553780 89.095558,47.854397 93.533020,49.187637 
z"/>
<path fill="#524E4D" opacity="1.000000" stroke="none" 
	d="
M44.539787,17.942055 
	C48.316002,19.815130 47.533932,23.232618 47.890629,26.561646 
	C47.389194,27.343651 46.461128,27.984329 46.548882,28.188568 
	C48.725643,33.255016 44.518139,33.026024 41.404675,34.027142 
	C39.512886,28.485533 38.006901,22.934078 36.250271,17.190006 
	C39.457905,12.601534 40.524979,12.726690 44.539787,17.942055 
z"/>
<path fill="#F6D4B6" opacity="1.000000" stroke="none" 
	d="
M64.528427,21.106256 
	C63.551491,19.041197 62.301903,16.809370 62.713123,14.943590 
	C63.026836,13.520231 65.496391,12.617107 66.891388,11.354886 
	C67.234749,11.044206 67.127808,10.235868 67.119019,9.372454 
	C68.477066,10.176384 70.326363,11.013416 71.266273,12.446774 
	C71.822815,13.295498 70.943146,15.086004 70.648674,16.807364 
	C70.620865,16.803106 71.441071,16.712482 71.980911,17.058838 
	C72.937263,17.672411 73.723251,18.551508 74.580536,19.319492 
	C73.671196,19.860996 72.804520,20.757523 71.843987,20.872931 
	C69.576454,21.145370 67.264252,21.045956 64.528427,21.106256 
M66.812325,14.732560 
	C66.970840,14.618710 67.129364,14.504859 67.287880,14.391007 
	C67.066902,14.413869 66.845917,14.436729 66.812325,14.732560 
z"/>
<path fill="#080807" opacity="1.000000" stroke="none" 
	d="
M56.357357,51.875038 
	C49.448982,51.909214 42.540611,51.943394 35.142014,51.942566 
	C38.845810,50.902042 43.008572,49.722080 47.246681,48.962574 
	C49.456966,48.566471 51.799961,48.910908 54.633919,49.186913 
	C55.353024,49.703884 55.575031,49.890942 55.934036,50.324677 
	C56.130604,51.048485 56.243980,51.461761 56.357357,51.875038 
z"/>
<path fill="#111212" opacity="1.000000" stroke="none" 
	d="
M116.646698,49.772690 
	C115.354561,50.635902 113.724983,51.775375 112.015854,51.910824 
	C108.293747,52.205795 104.531097,51.989212 100.304840,51.967415 
	C99.959213,51.260601 100.093758,50.568069 100.187363,49.522945 
	C105.522018,49.311451 110.897606,49.452549 116.646698,49.772690 
z"/>
<path fill="#F6D4B6" opacity="1.000000" stroke="none" 
	d="
M64.735687,9.162960 
	C62.209881,13.365219 58.228409,10.647285 54.326080,10.950482 
	C56.935371,7.713648 60.206676,5.861040 64.735687,9.162960 
z"/>
<path fill="#BABEB0" opacity="1.000000" stroke="none" 
	d="
M56.796520,51.775543 
	C56.243980,51.461761 56.130604,51.048485 56.016956,50.083431 
	C56.004250,49.362026 55.991810,49.192402 55.979366,49.022778 
	C58.682159,49.016144 61.384953,49.009510 64.535645,49.042313 
	C64.109520,50.048088 63.235504,51.014427 62.058655,51.960091 
	C60.249107,51.851627 58.742397,51.763840 56.796520,51.775543 
z"/>
<path fill="#F6D4B6" opacity="1.000000" stroke="none" 
	d="
M48.577980,13.948638 
	C47.892780,14.930214 46.870640,15.976154 45.495010,17.043976 
	C46.174690,16.048239 47.207867,15.030621 48.577980,13.948638 
z"/>
<path fill="#F6D4B6" opacity="1.000000" stroke="none" 
	d="
M62.124397,24.579590 
	C61.457573,24.440996 60.785782,23.975283 60.113991,23.509571 
	C60.904873,22.714581 61.695755,21.919588 62.864044,21.162170 
	C62.867447,22.217318 62.493439,23.234894 62.124397,24.579590 
z"/>
<path fill="#F6D4B6" opacity="1.000000" stroke="none" 
	d="
M64.230347,27.784464 
	C63.951965,27.141630 63.975243,26.423578 64.004349,25.344307 
	C64.184113,25.891806 64.358055,26.800528 64.230347,27.784464 
z"/>
<path fill="#F6D4B6" opacity="1.000000" stroke="none" 
	d="
M50.130096,27.345753 
	C50.840736,26.919287 51.754219,26.720402 52.834908,26.766724 
	C52.112389,27.199062 51.222664,27.386196 50.130096,27.345753 
z"/>
<path fill="#F6D4B6" opacity="1.000000" stroke="none" 
	d="
M52.732513,11.118374 
	C52.513500,11.706717 51.974609,12.289131 51.097427,12.834702 
	C51.310303,12.236053 51.861469,11.674248 52.732513,11.118374 
z"/>
<path fill="#262626" opacity="1.000000" stroke="none" 
	d="
M55.730724,48.943436 
	C55.991810,49.192402 56.004250,49.362026 55.933765,49.772896 
	C55.575031,49.890942 55.353024,49.703884 55.090576,49.254074 
	C55.158245,48.991486 55.320164,48.927788 55.730724,48.943436 
z"/>
<path fill="#F4C197" opacity="1.000000" stroke="none" 
	d="
M66.718628,14.596075 
	C66.845917,14.436729 67.066902,14.413869 67.287880,14.391007 
	C67.129364,14.504859 66.970840,14.618710 66.718628,14.596075 
z"/>
</svg>