<svg version="1.1" id="Layer_1" xmlns="http://www.w3.org/2000/svg" xmlns:xlink="http://www.w3.org/1999/xlink" x="0px" y="0px"
	 width="100%" viewBox="0 0 142 113" enable-background="new 0 0 142 113" xml:space="preserve">
<path fill="#000000" fill-opacity="0"  stroke="none" 
	d="
M79.000000,114.000000 
	C52.692013,114.000000 26.884029,114.000000 1.038022,114.000000 
	C1.038022,76.395676 1.038022,38.791298 1.038022,1.093460 
	C48.224419,1.093460 95.449089,1.093460 142.836884,1.093460 
	C142.836884,38.666111 142.836884,76.332985 142.836884,114.000000 
	C121.791748,114.000000 100.645874,114.000000 79.000000,114.000000 
M71.948128,39.752518 
	C68.301407,40.132740 64.654678,40.512962 60.203854,40.882679 
	C57.861000,41.190876 55.518147,41.499069 53.141739,41.074886 
	C52.735870,39.718636 52.330002,38.362389 51.884377,36.319126 
	C50.246559,34.585629 48.608742,32.852135 46.166206,30.977457 
	C42.937748,30.475725 41.050297,31.887054 41.019936,35.113552 
	C40.983135,39.024597 41.296734,42.938934 40.746338,47.349609 
	C38.436073,47.557739 36.111195,47.663486 33.817947,47.990841 
	C20.284655,49.922680 9.117675,62.473248 14.780037,75.182304 
	C18.700596,83.117439 25.047058,88.449501 33.436317,92.653786 
	C41.352547,96.694267 49.782200,94.875465 58.757446,94.994720 
	C69.068657,101.227295 79.490860,102.522797 90.142433,95.781219 
	C90.953079,95.268150 91.999733,95.127960 93.857239,95.047134 
	C97.498566,95.074913 101.140182,95.146629 104.781166,95.122704 
	C118.827682,95.030426 128.000793,87.175400 135.626648,75.478958 
	C139.652924,63.744061 134.103729,53.161694 121.471916,49.227207 
	C117.419991,47.965134 113.049980,47.724239 108.940697,46.213379 
	C108.953499,45.139793 108.966293,44.066212 109.290192,42.289024 
	C109.316902,40.014668 109.792618,37.621792 109.233124,35.502171 
	C108.756157,33.695183 107.198502,30.977190 105.921555,30.862656 
	C104.082413,30.697691 101.472343,32.064098 100.263405,33.613495 
	C98.506226,35.865524 97.704391,38.862968 95.794456,41.800255 
	C93.528519,41.511333 91.262573,41.222412 88.468086,40.365589 
	C83.253738,40.148529 78.039398,39.931465 71.948128,39.752518 
z"/>
<path fill="#616060" opacity="1.000000" stroke="none" 
	d="
M88.996635,40.933491 
	C91.262573,41.222412 93.528519,41.511333 96.382721,41.993294 
	C98.207069,42.546936 99.443146,42.907532 100.908104,43.532387 
	C103.699821,44.869808 106.262665,45.942978 108.825500,47.016148 
	C113.049980,47.724239 117.419991,47.965134 121.471916,49.227207 
	C134.103729,53.161694 139.652924,63.744061 135.006592,75.774048 
	C132.422989,77.765152 130.176193,79.227257 128.547455,81.199715 
	C122.993858,87.925323 115.650314,91.300453 107.281502,91.752380 
	C104.269386,91.915039 99.910187,92.815483 97.870934,88.334595 
	C102.572273,80.451797 100.978462,72.152000 100.945465,63.654167 
	C100.205170,57.307884 97.034470,52.793480 92.291962,48.828148 
	C91.715149,48.366093 91.319687,48.190052 90.958984,48.013569 
	C90.993744,48.013123 90.974907,48.080051 90.988670,47.748917 
	C90.239388,46.636932 89.476349,45.856083 88.806290,44.669334 
	C88.931725,43.153454 88.964180,42.043472 88.996635,40.933491 
z"/>
<path fill="#616060" opacity="1.000000" stroke="none" 
	d="
M53.175293,41.807262 
	C55.518147,41.499069 57.861000,41.190876 60.665329,41.306923 
	C61.258530,42.843056 61.390259,43.954945 61.295349,45.344414 
	C59.439438,47.692249 57.810165,49.762512 55.828510,51.928612 
	C46.659088,60.169979 46.386860,79.812248 54.931435,90.761421 
	C54.289295,91.744987 53.606579,92.920029 53.039501,92.866638 
	C47.682793,92.362373 42.345791,91.648827 36.840286,90.688034 
	C33.141052,87.683182 29.965706,83.840759 25.975521,82.582680 
	C21.144299,81.059410 19.144287,78.195770 17.620489,74.079239 
	C17.548262,73.884132 15.704409,74.344818 14.685607,74.500092 
	C9.117675,62.473248 20.284655,49.922680 33.817947,47.990841 
	C36.111195,47.663486 38.436073,47.557739 41.465782,47.130955 
	C45.848587,45.210621 49.511940,43.508942 53.175293,41.807262 
z"/>
<path fill="#2D140A" opacity="1.000000" stroke="none" 
	d="
M100.918472,64.042603 
	C100.978462,72.152000 102.572273,80.451797 97.553055,88.464981 
	C95.751610,90.905052 94.344139,92.859749 92.936676,94.814445 
	C91.999733,95.127960 90.953079,95.268150 90.142433,95.781219 
	C79.490860,102.522797 69.068657,101.227295 58.362679,94.574142 
	C57.221313,92.810463 56.474716,91.467369 56.160461,90.118530 
	C59.818409,90.699913 63.025669,91.626678 66.273506,91.802094 
	C72.650337,92.146500 78.864342,92.279625 85.084213,89.325531 
	C91.655464,86.204575 93.441154,79.897919 96.822388,74.692986 
	C98.849396,71.572685 99.596245,67.620758 100.918472,64.042603 
z"/>
<path fill="#545353" opacity="1.000000" stroke="none" 
	d="
M93.396957,94.930786 
	C94.344139,92.859749 95.751610,90.905052 97.476959,88.819984 
	C99.910187,92.815483 104.269386,91.915039 107.281502,91.752380 
	C115.650314,91.300453 122.993858,87.925323 128.547455,81.199715 
	C130.176193,79.227257 132.422989,77.765152 134.738998,76.048325 
	C128.000793,87.175400 118.827682,95.030426 104.781166,95.122704 
	C101.140182,95.146629 97.498566,95.074913 93.396957,94.930786 
z"/>
<path fill="#1D1D1D" opacity="1.000000" stroke="none" 
	d="
M53.158516,41.441074 
	C49.511940,43.508942 45.848587,45.210621 41.821972,46.882072 
	C41.296734,42.938934 40.983135,39.024597 41.019936,35.113552 
	C41.050297,31.887054 42.937748,30.475725 46.362099,31.311920 
	C44.276390,32.787731 43.259121,34.336708 44.966442,36.716015 
	C45.091202,36.889877 45.436192,36.905708 45.717716,37.009342 
	C45.923523,35.949657 46.121914,34.928139 46.120594,34.934940 
	C48.183575,35.671188 50.053856,36.338661 51.924133,37.006138 
	C52.330002,38.362389 52.735870,39.718636 53.158516,41.441074 
z"/>
<path fill="#2D2D2D" opacity="1.000000" stroke="none" 
	d="
M100.679230,43.268135 
	C99.443146,42.907532 98.207069,42.546936 96.733078,41.864441 
	C97.704391,38.862968 98.506226,35.865524 100.263405,33.613495 
	C101.472343,32.064098 104.082413,30.697691 105.921555,30.862656 
	C107.198502,30.977190 108.756157,33.695183 109.233124,35.502171 
	C109.792618,37.621792 109.316902,40.014668 108.843704,42.498207 
	C108.007217,42.395744 107.562981,42.132175 107.236702,41.764057 
	C105.880653,40.234119 104.560158,38.672661 103.226624,37.122765 
	C102.377495,39.171223 101.528358,41.219677 100.679230,43.268135 
z"/>
<path fill="#5A5A5A" opacity="1.000000" stroke="none" 
	d="
M14.732822,74.841202 
	C15.704409,74.344818 17.548262,73.884132 17.620489,74.079239 
	C19.144287,78.195770 21.144299,81.059410 25.975521,82.582680 
	C29.965706,83.840759 33.141052,87.683182 36.464249,90.691216 
	C35.149994,91.372528 34.048954,91.743088 32.947910,92.113647 
	C25.047058,88.449501 18.700596,83.117439 14.732822,74.841202 
z"/>
<path fill="#525050" opacity="1.000000" stroke="none" 
	d="
M33.192116,92.383713 
	C34.048954,91.743088 35.149994,91.372528 36.627071,90.998795 
	C42.345791,91.648827 47.682793,92.362373 53.039501,92.866638 
	C53.606579,92.920029 54.289295,91.744987 55.120796,90.674995 
	C55.323227,90.210144 55.728119,90.124275 55.728119,90.124275 
	C56.474716,91.467369 57.221313,92.810463 58.013008,94.482422 
	C49.782200,94.875465 41.352547,96.694267 33.192116,92.383713 
z"/>
<path fill="#1A1A1A" opacity="1.000000" stroke="none" 
	d="
M100.908112,43.532387 
	C101.528358,41.219677 102.377495,39.171223 103.226624,37.122765 
	C104.560158,38.672661 105.880653,40.234119 107.236702,41.764057 
	C107.562981,42.132175 108.007217,42.395744 108.688156,42.850010 
	C108.966293,44.066212 108.953499,45.139793 108.883102,46.614761 
	C106.262665,45.942978 103.699821,44.869808 100.908112,43.532387 
z"/>
<path fill="#B7C5BB" opacity="1.000000" stroke="none" 
	d="
M88.732361,40.649540 
	C88.964180,42.043472 88.931725,43.153454 88.443741,44.643654 
	C82.989555,43.353283 77.990898,41.682693 72.949020,39.938477 
	C72.905807,39.864845 72.825050,39.714401 72.825050,39.714401 
	C78.039398,39.931465 83.253738,40.148529 88.732361,40.649540 
z"/>
<path fill="#B3BDB4" opacity="1.000000" stroke="none" 
	d="
M61.521988,45.066837 
	C61.390259,43.954945 61.258530,42.843056 61.067379,41.312176 
	C64.654678,40.512962 68.301407,40.132740 72.386589,39.733459 
	C72.825050,39.714401 72.905807,39.864845 72.797363,40.259354 
	C68.966606,42.124855 65.244301,43.595848 61.521988,45.066837 
z"/>
<path fill="#292A29" opacity="1.000000" stroke="none" 
	d="
M51.904255,36.662632 
	C50.053856,36.338661 48.183575,35.671188 46.120594,34.934940 
	C46.121914,34.928139 45.923523,35.949657 45.717716,37.009342 
	C45.436192,36.905708 45.091202,36.889877 44.966442,36.716015 
	C43.259121,34.336708 44.276390,32.787731 46.764458,31.382507 
	C48.608742,32.852135 50.246559,34.585629 51.904255,36.662632 
z"/>
<path fill="#3E1A08" opacity="1.000000" stroke="none" 
	d="
M56.160461,90.118530 
	C55.728119,90.124275 55.323227,90.210144 55.133865,90.296570 
	C46.386860,79.812248 46.659088,60.169979 56.168739,52.065540 
	C59.315750,52.627308 62.406773,54.361214 64.117050,53.463779 
	C72.631310,48.996086 81.480927,47.180126 90.974907,48.080051 
	C90.974907,48.080051 90.993744,48.013123 91.008713,48.381851 
	C91.506882,48.871769 91.990089,48.992966 92.473297,49.114162 
	C97.034470,52.793480 100.205170,57.307884 100.945473,63.654167 
	C99.596245,67.620758 98.849396,71.572685 96.822388,74.692986 
	C93.441154,79.897919 91.655464,86.204575 85.084213,89.325531 
	C78.864342,92.279625 72.650337,92.146500 66.273506,91.802094 
	C63.025669,91.626678 59.818409,90.699913 56.160461,90.118530 
z"/>
<path fill="#F0C19A" opacity="1.000000" stroke="none" 
	d="
M90.988670,47.748917 
	C81.480927,47.180126 72.631310,48.996086 64.117050,53.463779 
	C62.406773,54.361214 59.315750,52.627308 56.521118,51.969704 
	C57.810165,49.762512 59.439438,47.692249 61.295349,45.344414 
	C65.244301,43.595848 68.966606,42.124855 72.840576,40.332985 
	C77.990898,41.682693 82.989555,43.353283 88.350754,45.049553 
	C89.476349,45.856083 90.239388,46.636932 90.988670,47.748917 
z"/>
<path fill="#F0C19A" opacity="1.000000" stroke="none" 
	d="
M92.291962,48.828148 
	C91.990089,48.992966 91.506882,48.871769 90.973946,48.382294 
	C91.319687,48.190052 91.715149,48.366093 92.291962,48.828148 
z"/>
</svg>