<svg version="1.1" id="Layer_1" xmlns="http://www.w3.org/2000/svg" xmlns:xlink="http://www.w3.org/1999/xlink" x="0px" y="0px"
	 width="100%" viewBox="0 0 153 100" enable-background="new 0 0 153 100" xml:space="preserve">
<path fill="#000000" fill-opacity="0" stroke="none"
	d="
M154.000000,60.999996 
	C154.000000,74.321609 154.000000,87.643227 154.000000,100.982422 
	C103.056557,100.982422 52.113106,100.982422 1.084828,100.982422 
	C1.084828,67.752716 1.084828,34.505138 1.084828,1.128781 
	C51.999798,1.128781 102.999847,1.128781 154.000000,1.128781 
	C154.000000,18.092564 154.000000,35.077625 153.649414,52.492966 
	C152.591141,51.863384 151.977905,50.720684 151.144791,49.770817 
	C150.519440,49.057831 149.611481,48.592724 148.708984,47.838955 
	C148.588654,47.660648 148.530350,47.234386 148.840149,47.059090 
	C148.739960,45.470535 148.329956,44.057278 147.919937,42.644020 
	C147.166061,42.987099 146.412201,43.330173 145.457138,43.573784 
	C145.255951,43.474312 145.019470,43.092800 144.895996,42.843460 
	C144.457260,42.414986 144.141998,42.235855 143.504303,41.940117 
	C137.834091,38.031124 132.034546,35.679325 125.329521,35.766499 
	C124.012245,35.783627 122.682205,34.820309 121.501236,34.236557 
	C121.644409,34.163937 121.780197,33.872982 122.017502,33.552528 
	C122.256218,29.450293 122.846535,25.549240 122.110817,21.916763 
	C121.179565,17.318874 117.529816,16.430552 114.549850,20.060600 
	C112.188026,22.937654 110.821815,26.632019 108.610275,29.997993 
	C106.131241,29.654076 104.055466,29.275639 101.700180,28.646572 
	C98.627144,28.032871 95.833611,27.669800 92.580322,27.217716 
	C86.098938,27.671404 80.077309,28.214108 73.649361,28.770205 
	C70.914009,29.130463 68.584991,29.477324 66.179405,29.464645 
	C65.180725,26.983665 64.738937,24.375648 63.211281,22.867643 
	C61.422276,21.101645 58.733444,19.560862 56.342041,19.411688 
	C55.310360,19.347330 53.287239,22.936649 53.055252,25.015779 
	C52.656784,28.586996 53.309917,32.275547 53.036499,35.887573 
	C43.601753,35.453377 35.722034,37.728329 29.665407,45.095474 
	C29.521704,45.257702 29.557007,45.689709 29.656990,45.760551 
	C29.756975,45.831390 29.608030,45.636772 29.314354,45.709053 
	C28.318775,46.571983 27.616877,47.362633 26.582577,48.134346 
	C25.808495,48.073830 25.366814,48.032246 24.967018,47.609497 
	C24.940239,46.467419 24.871571,45.706509 24.890291,44.504070 
	C24.924786,41.059872 24.871893,38.057205 24.905266,34.711708 
	C24.908264,33.912731 24.824997,33.456581 24.737427,32.622696 
	C21.011053,28.588934 14.894793,28.992180 13.056433,33.339870 
	C13.015734,34.125000 13.072240,34.578655 13.050350,35.450115 
	C13.025537,37.562931 13.079118,39.257938 13.047409,41.417755 
	C12.951349,53.038162 12.990911,64.194160 12.902551,75.349152 
	C12.871571,79.260124 15.044007,80.062416 18.362841,79.988190 
	C21.622393,79.915291 25.016125,80.333252 24.985907,75.515190 
	C24.961899,71.687714 24.933226,67.860275 25.194801,63.995026 
	C25.676489,63.947243 25.869997,63.937241 26.292114,64.184074 
	C29.291416,69.104652 32.019749,73.813477 37.938232,75.114334 
	C37.959511,75.078514 37.877552,75.063423 37.912197,75.420288 
	C39.417145,77.211670 40.717621,78.893478 42.386150,80.039345 
	C51.190990,86.086182 61.205456,83.687836 71.153412,84.081154 
	C83.127762,91.893082 93.492043,91.797852 105.632103,84.001656 
	C119.818962,85.244446 132.740005,83.722618 143.139984,72.849472 
	C143.618607,72.423836 143.829941,72.107834 144.084137,71.747223 
	C144.127029,71.702614 144.238846,71.649529 144.664825,71.721878 
	C145.682114,70.747635 146.273422,69.701035 146.926971,68.379089 
	C147.549469,67.362656 148.109726,66.621559 149.072098,65.905090 
	C150.308075,65.197472 151.211151,64.528671 151.956482,63.715340 
	C152.718246,62.884071 153.325241,61.910995 154.000000,60.999996 
z"/>
<path fill="#000000" fill-opacity="0" stroke="none"
	d="
M148.829330,48.017262
	C149.611481,48.592724 150.519440,49.057831 151.144791,49.770817
	C151.977905,50.720684 152.591141,51.863384 153.649414,52.961624
	C154.000000,55.370556 154.000000,57.741116 154.000000,60.555832
	C153.325241,61.910995 152.718246,62.884071 151.956482,63.715340
	C151.211151,64.528671 150.308075,65.197472 149.153931,65.532318
	C149.443817,62.100029 150.054016,59.065128 150.703003,55.658657
	C150.104294,52.863811 149.466812,50.440536 148.829330,48.017262
z"/>
<path fill="#647A96" opacity="1.000000" stroke="none"
	d="
M148.708984,47.838955 
	C149.466812,50.440536 150.104294,52.863811 150.388092,55.673988 
	C149.108368,58.752567 148.718689,61.812332 147.166412,64.074242 
	C139.049744,75.901566 128.200439,82.661072 113.292061,80.925781 
	C112.114395,80.788712 111.054794,79.637291 109.986107,78.600060 
	C113.994881,71.641037 116.171074,64.686226 114.255539,56.498569 
	C113.910316,53.665821 113.553925,51.255333 113.154381,48.480774 
	C111.466370,45.674404 109.821518,43.232105 108.044312,40.510433 
	C107.248550,39.773697 106.585167,39.316330 105.925034,38.506233 
	C104.176559,35.253860 100.791161,33.051117 101.979691,28.897200 
	C104.055466,29.275639 106.131241,29.654076 108.829437,30.262936 
	C110.962311,31.002661 112.472763,31.511963 114.232590,32.267570 
	C116.736839,32.990814 118.991730,33.467754 121.320244,34.021820 
	C121.393867,34.098946 121.358055,34.309170 121.358055,34.309174 
	C122.682205,34.820309 124.012245,35.783627 125.329521,35.766499 
	C132.034546,35.679325 137.834091,38.031124 143.623840,42.193428 
	C144.383682,42.739834 144.701569,42.916317 145.019470,43.092804 
	C145.019470,43.092800 145.255951,43.474312 145.546219,43.850586 
	C146.734436,45.229374 147.632401,46.231880 148.530350,47.234386 
	C148.530350,47.234386 148.588654,47.660648 148.708984,47.838955 
z"/>
<path fill="#657A96" opacity="1.000000" stroke="none"
	d="
M66.255966,29.824186 
	C68.584991,29.477324 70.914009,29.130463 73.610191,29.221285 
	C73.979416,31.444082 73.981476,33.229195 73.660812,35.128426 
	C70.943001,37.493134 68.547913,39.743729 66.038498,42.165955 
	C65.924171,42.337585 65.825821,42.738136 65.607880,42.875336 
	C65.271446,43.324848 65.152962,43.637154 64.934669,44.132507 
	C64.834869,44.315552 64.779358,44.728806 64.513832,44.942451 
	C63.768803,46.397095 63.289303,47.638092 62.810089,48.907326 
	C62.810375,48.935566 62.842480,48.890057 62.578754,49.143295 
	C61.991985,51.607391 61.668941,53.818245 61.266052,56.459114 
	C61.402752,59.943424 61.619293,62.997730 61.813824,66.444008 
	C62.449345,68.999321 63.106880,71.162651 63.797409,73.587257 
	C64.098549,74.292725 64.366684,74.736916 64.684669,75.535156 
	C64.812027,76.361038 64.889549,76.832870 64.863846,77.522385 
	C65.154060,78.181389 65.547501,78.622726 65.871361,79.461349 
	C65.609566,80.115288 65.436203,80.579239 65.222420,80.598679 
	C56.876419,81.357658 48.537563,82.122719 41.287220,76.420074 
	C40.365307,75.694962 39.024364,75.502602 37.877552,75.063423 
	C37.877552,75.063423 37.959511,75.078514 37.930099,74.754654 
	C36.861507,73.208351 35.938026,71.859322 34.763058,70.785446 
	C29.769409,66.221443 25.432461,61.355118 25.957579,53.962631 
	C25.970350,53.997696 25.896414,53.987488 26.193043,53.769077 
	C26.641781,52.341404 26.793892,51.132137 26.958687,49.959595 
	C26.971373,49.996319 26.898556,49.969200 27.215601,49.858330 
	C29.705166,49.124813 31.173204,48.146488 29.608030,45.636772 
	C29.608030,45.636772 29.756975,45.831390 29.889912,45.803196 
	C30.150896,45.697338 30.278942,45.619675 30.406988,45.542011 
	C30.207695,45.339088 30.008404,45.136169 29.809111,44.933247 
	C35.722034,37.728329 43.601753,35.453377 53.374424,35.845177 
	C58.216961,33.828098 62.236465,31.826143 66.255966,29.824186 
z"/>
<path fill="#6D301C" opacity="1.000000" stroke="none"
	d="
M24.906620,64.032814 
	C24.933226,67.860275 24.961899,71.687714 24.985907,75.515190 
	C25.016125,80.333252 21.622393,79.915291 18.362841,79.988190 
	C15.044007,80.062416 12.871571,79.260124 12.902551,75.349152 
	C12.990911,64.194160 12.951349,53.038162 13.296215,41.163094 
	C13.463123,38.639851 13.295935,36.836082 13.128746,35.032310 
	C13.072240,34.578655 13.015734,34.125000 13.503489,33.341259 
	C17.612411,33.007591 21.177071,33.004009 24.741730,33.000431 
	C24.824997,33.456581 24.908264,33.912731 24.655991,35.012939 
	C24.481270,38.753197 24.642086,41.849400 24.802904,44.945599 
	C24.871571,45.706509 24.940239,46.467419 24.575428,47.669769 
	C22.117537,48.587864 20.093121,49.064514 18.124809,49.527958 
	C16.243343,61.294903 16.749794,62.364365 24.906620,64.032814 
z"/>
<path fill="#D4CF79" opacity="1.000000" stroke="none"
	d="
M114.244377,56.920834 
	C116.171074,64.686226 113.994881,71.641037 109.707153,78.754852 
	C107.982574,80.825775 106.582741,82.384674 105.182907,83.943573 
	C93.492043,91.797852 83.127762,91.893082 71.047073,83.797554 
	C69.965881,82.327194 69.302444,81.312683 69.083206,80.208313 
	C72.784294,80.615631 76.030067,81.434586 79.300247,81.547623 
	C87.945137,81.846420 96.955925,81.911102 102.871811,74.388382 
	C106.979782,69.164635 109.680122,62.833912 113.318375,56.982666 
	C113.833054,56.951992 114.038719,56.936413 114.244377,56.920834 
z"/>
<path fill="#4D291A" opacity="1.000000" stroke="none"
	d="
M66.179405,29.464645 
	C62.236465,31.826143 58.216961,33.828098 53.859528,35.872452 
	C53.309917,32.275547 52.656784,28.586996 53.055252,25.015779 
	C53.287239,22.936649 55.310360,19.347330 56.342041,19.411688 
	C58.733444,19.560862 61.422276,21.101645 63.211281,22.867643 
	C64.738937,24.375648 65.180725,26.983665 66.179405,29.464645 
z"/>
<path fill="#5C6B7C" opacity="1.000000" stroke="none" 
	d="
M105.632095,84.001648 
	C106.582741,82.384674 107.982574,80.825775 109.661362,79.112076 
	C111.054794,79.637291 112.114395,80.788712 113.292061,80.925781 
	C128.200439,82.661072 139.049744,75.901566 147.166412,64.074242 
	C148.718689,61.812332 149.108368,58.752567 150.349304,56.045563 
	C150.054016,59.065128 149.443817,62.100029 148.751801,65.507706 
	C148.109726,66.621559 147.549469,67.362656 146.628052,68.545753 
	C145.590851,69.875015 144.914856,70.762276 144.238846,71.649529 
	C144.238846,71.649529 144.127029,71.702614 143.802872,71.840202 
	C143.276703,72.304901 143.074692,72.632004 142.872681,72.959114 
	C132.740005,83.722618 119.818962,85.244446 105.632095,84.001648 
z"/>
<path fill="#502C20" opacity="1.000000" stroke="none"
	d="
M113.983223,32.021263 
	C112.472763,31.511963 110.962311,31.002661 109.232689,30.228415 
	C110.821815,26.632019 112.188026,22.937654 114.549850,20.060600 
	C117.529816,16.430552 121.179565,17.318874 122.110817,21.916763 
	C122.846535,25.549240 122.256218,29.450293 121.930481,33.522278 
	C121.606171,33.812481 121.434563,33.745426 121.300697,33.467316 
	C119.649765,31.387709 118.132690,29.586206 116.199783,27.290901 
	C115.531723,28.716608 114.757469,30.368935 113.983223,32.021263 
z"/>
<path fill="#EBBB99" opacity="1.000000" stroke="none" 
	d="
M25.194801,63.995026 
	C16.749794,62.364365 16.243343,61.294903 18.124809,49.527958 
	C20.093121,49.064514 22.117537,48.587864 24.533543,48.050938 
	C25.366814,48.032246 25.808495,48.073830 26.599258,48.435371 
	C26.931747,49.159954 26.915152,49.564579 26.898556,49.969200 
	C26.898556,49.969200 26.971373,49.996319 26.689182,50.203369 
	C26.236799,51.602776 26.066607,52.795132 25.896414,53.987488 
	C25.896414,53.987488 25.970350,53.997696 25.675159,54.235935 
	C25.607815,57.625198 25.835659,60.776218 26.063503,63.927242 
	C25.869997,63.937241 25.676489,63.947243 25.194801,63.995026 
z"/>
<path fill="#576577" opacity="1.000000" stroke="none"
	d="
M68.639015,80.298164 
	C69.302444,81.312683 69.965881,82.327194 70.735657,83.625313 
	C61.205456,83.687836 51.190990,86.086182 42.386150,80.039345 
	C40.717621,78.893478 39.417145,77.211670 37.912197,75.420288 
	C39.024364,75.502602 40.365307,75.694962 41.287220,76.420074 
	C48.537563,82.122719 56.876419,81.357658 65.222420,80.598679 
	C65.436203,80.579239 65.609566,80.115288 65.882889,79.450668 
	C65.963989,79.042702 65.977089,79.020195 66.267212,79.103195 
	C66.941048,79.302406 67.324760,79.418633 67.821121,79.708389 
	C68.136063,80.076248 68.371147,80.214996 68.639015,80.298164 
z"/>
<path fill="#B3C5BC" opacity="1.000000" stroke="none" 
	d="
M73.983543,35.014305 
	C73.981476,33.229195 73.979416,31.444082 74.016518,29.207890 
	C80.077309,28.214108 86.098938,27.671404 92.616783,27.533272 
	C93.391861,28.975351 93.670723,30.012861 93.566414,31.030331 
	C88.848381,27.918488 84.869423,29.532909 80.618492,32.000778 
	C79.211082,33.037930 78.135254,34.009724 76.928284,34.730927 
	C76.187332,34.661663 75.577530,34.842983 74.975143,35.000572 
	C74.982567,34.976845 75.031715,34.984409 74.760445,34.983009 
	C74.308487,34.989193 74.127792,34.996777 73.960297,34.994713 
	C73.973495,34.985058 73.983543,35.014305 73.983543,35.014305 
z"/>
<path fill="#AFBBB6" opacity="1.000000" stroke="none" 
	d="
M93.949585,31.050371 
	C93.670723,30.012861 93.391861,28.975351 93.076546,27.622284 
	C95.833611,27.669800 98.627144,28.032871 101.700180,28.646572 
	C100.791161,33.051117 104.176559,35.253860 105.612823,38.420944 
	C103.874367,38.115753 102.451385,37.543118 100.995750,36.601830 
	C99.660995,35.130741 98.358902,34.028305 96.872726,32.686630 
	C96.120079,32.274818 95.551506,32.102249 94.868820,31.724136 
	C94.548531,31.263977 94.285545,31.100897 93.969833,31.026194 
	C93.973892,31.023035 93.949585,31.050371 93.949585,31.050371 
M97.173706,30.752254 
	C97.118912,30.587255 97.064117,30.422256 97.009323,30.257257 
	C96.955879,30.423248 96.902428,30.589239 97.173706,30.752254 
z"/>
<path fill="#5F6F80" opacity="1.000000" stroke="none"
	d="
M26.292114,64.184074
	C25.835659,60.776218 25.607815,57.625198 25.662388,54.200867
	C25.432461,61.355118 29.769409,66.221443 34.763058,70.785446
	C35.938026,71.859322 36.861507,73.208351 37.908817,74.790482
	C32.019749,73.813477 29.291416,69.104652 26.292114,64.184074
z"/>
<path fill="#583021" opacity="1.000000" stroke="none"
	d="
M24.737427,32.622696
	C21.177071,33.004009 17.612411,33.007591 13.600695,33.009785
	C14.894793,28.992180 21.011053,28.588934 24.737427,32.622696
z"/>

<path fill="#5F6F80" opacity="1.000000" stroke="none"
	d="
M27.215601,49.858330
	C26.915152,49.564579 26.931747,49.159954 26.931660,48.454308
	C27.616877,47.362633 28.318775,46.571983 29.314354,45.709053
	C31.173204,48.146488 29.705166,49.124813 27.215601,49.858330
z"/>


<path fill="#EFD991" opacity="1.000000" stroke="none"
	d="
M101.028404,36.970482
	C102.451385,37.543118 103.874367,38.115753 105.609558,38.773674
	C106.585167,39.316330 107.248550,39.773697 107.980621,40.589531
	C108.049309,40.947994 107.923012,41.107029 107.494308,41.076126
	C100.374847,41.017605 93.684082,40.989983 87.001083,40.711205
	C87.014885,40.292645 87.020927,40.125233 87.364563,39.933121
	C89.134247,39.339314 90.566338,38.770214 92.373291,38.244484
	C94.845779,38.187263 96.943413,38.086670 99.022919,37.995350
	C99.004807,38.004623 98.974541,38.031834 99.239174,38.002144
	C99.647438,37.673679 99.791077,37.374908 100.208694,37.055557
	C100.664581,37.013481 100.846489,36.991982 101.028404,36.970482
z"/>
<path fill="#2E1710" opacity="1.000000" stroke="none"
	d="
M121.300697,33.467316
	C121.434563,33.745426 121.312935,33.896938 121.279778,33.920815
	C118.991730,33.467754 116.736839,32.990814 114.232590,32.267570
	C114.757469,30.368935 115.531723,28.716608 116.199783,27.290901
	C118.132690,29.586206 119.649765,31.387709 121.300697,33.467316
z"/>
<path fill="#EFD991" opacity="1.000000" stroke="none"
	d="
M108.112991,40.868896
	C109.821518,43.232105 111.466370,45.674404 113.078445,48.538750
	C113.045670,48.960800 112.894371,49.075249 112.618439,48.883774
	C110.869339,46.163876 109.396172,43.635456 107.923004,41.107033
	C107.923012,41.107029 108.049309,40.947994 108.112991,40.868896
z"/>
<path fill="#EFD991" opacity="1.000000" stroke="none"
	d="
M114.255539,56.498569
	C114.038719,56.936413 113.833054,56.951992 113.314774,56.540977
	C112.966232,53.768002 112.930298,51.421623 112.894371,49.075249
	C112.894371,49.075249 113.045670,48.960800 113.121605,48.902824
	C113.553925,51.255333 113.910316,53.665821 114.255539,56.498569
z"/>
<path fill="#FCF588" opacity="1.000000" stroke="none"
	d="
M112.618439,48.883774
	C112.930298,51.421623 112.966232,53.768002 113.005768,56.556065
	C109.680122,62.833912 106.979782,69.164635 102.871811,74.388382
	C96.955925,81.911102 87.945137,81.846420 79.300247,81.547623
	C76.030067,81.434586 72.784294,80.615631 69.083206,80.208313
	C68.371147,80.214996 68.136063,80.076248 67.876160,79.327820
	C67.141884,78.254059 66.465233,77.734406 65.837776,77.129364
	C65.886978,77.043976 65.777267,77.218689 65.822876,76.879990
	C65.457268,76.087891 65.046051,75.634506 64.634827,75.181114
	C64.366684,74.736916 64.098549,74.292725 63.866909,73.173294
	C63.214222,70.349380 62.525032,68.200706 61.835838,66.052032
	C61.619293,62.997730 61.402752,59.943424 61.611397,56.332893
	C62.305218,53.481125 62.573849,51.185593 62.842484,48.890057
	C62.842480,48.890057 62.810375,48.935566 63.158901,48.790394
	C63.931404,47.339748 64.355385,46.034279 64.779358,44.728806
	C64.779358,44.728806 64.834869,44.315552 65.160210,44.003765
	C65.598976,43.374031 65.712395,43.056084 65.825821,42.738136
	C65.825821,42.738136 65.924171,42.337585 66.441483,42.169296
	C73.152809,44.835739 79.120110,43.587746 85.042503,41.056240
	C85.603630,40.816387 86.338898,40.983952 86.993317,40.962364
	C93.684082,40.989983 100.374847,41.017605 107.494308,41.076130
	C109.396172,43.635456 110.869339,46.163876 112.618439,48.883774
z"/>
<path fill="#F1D095" opacity="1.000000" stroke="none"
	d="
M87.001083,40.711208
	C86.338898,40.983952 85.603630,40.816387 85.042503,41.056240
	C79.120110,43.587746 73.152809,44.835739 66.555809,41.997662
	C68.547913,39.743729 70.943001,37.493134 73.660812,35.128426
	C73.983543,35.014305 73.973495,34.985058 73.878670,35.370140
	C74.259499,36.189121 74.735161,36.623024 75.392693,37.051491
	C75.574570,37.046059 75.938026,37.027664 76.004822,37.405792
	C78.302559,38.163612 80.533501,38.543312 83.021431,38.872345
	C83.526077,38.586205 83.773720,38.350723 84.026382,38.073296
	C84.031395,38.031345 84.115105,38.019859 84.427063,38.014473
	C85.154831,38.004555 85.570641,38.000027 85.992447,37.999939
	C85.998444,38.004379 86.001396,38.019241 86.109558,38.236191
	C86.418907,38.722126 86.680397,38.904831 87.007538,39.240417
	C87.012886,39.479580 87.026970,39.957825 87.026970,39.957825
	C87.020927,40.125233 87.014885,40.292645 87.001083,40.711208
z"/>
<path fill="#F1D095" opacity="1.000000" stroke="none"
	d="
M62.578758,49.143295
	C62.573849,51.185593 62.305218,53.481125 61.691242,55.902882
	C61.668941,53.818245 61.991985,51.607391 62.578758,49.143295
z"/>
<path fill="#F1D095" opacity="1.000000" stroke="none"
	d="
M61.813824,66.444008
	C62.525032,68.200706 63.214222,70.349380 63.833912,72.912018
	C63.106880,71.162651 62.449345,68.999321 61.813824,66.444008
z"/>
<path fill="#F1D095" opacity="1.000000" stroke="none"
	d="
M64.513832,44.942451
	C64.355385,46.034279 63.931404,47.339748 63.158615,48.762154
	C63.289303,47.638092 63.768803,46.397095 64.513832,44.942451
z"/>
<path fill="#5F6F80" opacity="1.000000" stroke="none"
	d="
M26.193043,53.769077
	C26.066607,52.795132 26.236799,51.602776 26.676495,50.166649
	C26.793892,51.132137 26.641781,52.341404 26.193043,53.769077
z"/>
<path fill="#576577" opacity="1.000000" stroke="none"
	d="
M65.952469,79.053375
	C65.547501,78.622726 65.154060,78.181389 65.066704,77.503189
	C65.372787,77.266312 65.777267,77.218689 65.777267,77.218689
	C65.777267,77.218689 65.886978,77.043976 65.848282,77.431625
	C65.865417,78.219582 65.921257,78.619888 65.977097,79.020195
	C65.977089,79.020195 65.963989,79.042702 65.952469,79.053375
z"/>
<path fill="#F1D095" opacity="1.000000" stroke="none"
	d="
M65.822876,76.879990
	C65.777267,77.218689 65.372787,77.266312 65.169922,77.285507
	C64.889549,76.832870 64.812027,76.361038 64.684669,75.535156
	C65.046051,75.634506 65.457268,76.087891 65.822876,76.879990
z"/>
<path fill="#F1D095" opacity="1.000000" stroke="none" 
	d="
M65.607880,42.875336 
	C65.712395,43.056084 65.598976,43.374031 65.260010,43.820717 
	C65.152962,43.637154 65.271446,43.324848 65.607880,42.875336 
z"/>
<path fill="#F1D095" opacity="1.000000" stroke="none" 
	d="
M66.267220,79.103195 
	C65.921257,78.619888 65.865417,78.219582 65.799072,77.517014 
	C66.465233,77.734406 67.141884,78.254059 67.763504,79.154282 
	C67.324760,79.418633 66.941048,79.302406 66.267220,79.103195 
z"/>
<path fill="#EEC7A5" opacity="1.000000" stroke="none" 
	d="
M87.364563,39.933121 
	C87.026970,39.957825 87.012886,39.479580 86.900490,39.022041 
	C86.589203,38.291378 86.326973,38.109623 86.001396,38.019241 
	C86.001396,38.019241 85.998444,38.004379 85.936722,37.650993 
	C84.233353,35.510208 82.591713,33.722813 80.950066,31.935417 
	C84.869423,29.532909 88.848381,27.918488 93.566414,31.030331 
	C93.949585,31.050371 93.973892,31.023035 94.072540,31.243229 
	C94.374039,31.736767 94.644623,31.892187 94.982933,31.929682 
	C95.551506,32.102249 96.120079,32.274818 96.796989,33.042892 
	C95.234070,34.450619 93.562805,35.262833 91.622520,36.216629 
	C91.568474,36.972507 91.783447,37.586811 91.998421,38.201115 
	C90.566338,38.770214 89.134247,39.339314 87.364563,39.933121 
z"/>
<path fill="#DEC8B0" opacity="1.000000" stroke="none" 
	d="
M80.618492,32.000778 
	C82.591713,33.722813 84.233353,35.510208 85.930725,37.646553 
	C85.570641,38.000027 85.154831,38.004555 84.297226,37.665894 
	C81.216293,37.224358 78.577164,37.126011 75.938026,37.027664 
	C75.938026,37.027664 75.574570,37.046059 75.438904,36.688286 
	C75.212730,35.881817 75.122223,35.433113 75.031715,34.984409 
	C75.031715,34.984409 74.982567,34.976845 75.305847,35.174355 
	C76.105896,35.241749 76.582664,35.111637 77.059425,34.981522 
	C78.135254,34.009724 79.211082,33.037930 80.618492,32.000778 
z"/>
<path fill="#766755" opacity="1.000000" stroke="none" 
	d="
M76.928284,34.730934 
	C76.582664,35.111637 76.105896,35.241749 75.298431,35.198082 
	C75.577530,34.842983 76.187332,34.661663 76.928284,34.730934 
z"/>
<path fill="#766755" opacity="1.000000" stroke="none" 
	d="
M74.760445,34.983009 
	C75.122223,35.433113 75.212730,35.881817 75.257027,36.693722 
	C74.735161,36.623024 74.259499,36.189121 73.865471,35.379791 
	C74.127792,34.996777 74.308487,34.989193 74.760445,34.983009 
z"/>
<path fill="#DFC8B4" opacity="1.000000" stroke="none" 
	d="
M91.891548,36.075047 
	C93.562805,35.262833 95.234070,34.450619 96.981064,33.282135 
	C98.358902,34.028305 99.660995,35.130741 100.995750,36.601830 
	C100.846489,36.991982 100.664581,37.013481 99.924072,37.086456 
	C99.235153,37.435894 99.104843,37.733864 98.974541,38.031834 
	C98.974541,38.031834 99.004807,38.004623 98.651154,37.868237 
	C96.162186,37.179581 94.026871,36.627316 91.891548,36.075047 
z"/>
<path fill="#B3C5BC" opacity="1.000000" stroke="none" 
	d="
M97.011345,30.753742 
	C96.902428,30.589239 96.955879,30.423248 97.009323,30.257257 
	C97.064117,30.422256 97.118912,30.587255 97.011345,30.753742 
z"/>
<path fill="#B3C5BC" opacity="1.000000" stroke="none" 
	d="
M94.868820,31.724136 
	C94.644623,31.892187 94.374039,31.736767 94.068474,31.246387 
	C94.285545,31.100897 94.548531,31.263977 94.868820,31.724136 
z"/>
<path fill="#836B4B" opacity="1.000000" stroke="none" 
	d="
M91.622520,36.216629 
	C94.026871,36.627316 96.162186,37.179581 98.669273,37.858963 
	C96.943413,38.086670 94.845779,38.187263 92.373291,38.244484 
	C91.783447,37.586811 91.568474,36.972507 91.622520,36.216629 
z"/>
<path fill="#836B4B" opacity="1.000000" stroke="none" 
	d="
M99.239174,38.002144 
	C99.104843,37.733864 99.235153,37.435894 99.650085,37.107033 
	C99.791077,37.374908 99.647438,37.673679 99.239174,38.002144 
z"/>
<path fill="#92715A" opacity="1.000000" stroke="none" 
	d="
M76.004822,37.405792 
	C78.577164,37.126011 81.216293,37.224358 83.985268,37.671280 
	C84.115105,38.019859 84.031395,38.031345 83.786339,38.158516 
	C83.282333,38.498131 83.023384,38.710567 82.764435,38.923012 
	C80.533501,38.543312 78.302559,38.163612 76.004822,37.405792 
z"/>
<path fill="#EBC598" opacity="1.000000" stroke="none" 
	d="
M86.109558,38.236191 
	C86.326973,38.109623 86.589203,38.291378 86.895142,38.782883 
	C86.680397,38.904831 86.418907,38.722126 86.109558,38.236191 
z"/>
<path fill="#EBC598" opacity="1.000000" stroke="none" 
	d="
M83.021431,38.872345 
	C83.023384,38.710567 83.282333,38.498131 83.781326,38.200470 
	C83.773720,38.350723 83.526077,38.586205 83.021431,38.872345 
z"/>
</svg>