<svg version="1.1" id="Layer_1" xmlns="http://www.w3.org/2000/svg" xmlns:xlink="http://www.w3.org/1999/xlink" x="0px" y="0px"
	 width="100%" viewBox="0 0 140 112" enable-background="new 0 0 140 112" xml:space="preserve">
<path fill="#000000" fill-opacity="0" stroke="none"
	d="
M141.000000,78.000000 
	C141.000000,89.653732 141.000000,101.307472 141.000000,112.980606 
	C94.398003,112.980606 47.795998,112.980606 1.096996,112.980606 
	C1.096996,75.772942 1.096996,38.545544 1.096996,1.000000 
	C36.686932,1.000000 72.374809,1.000000 108.514267,1.350877 
	C107.102173,3.257313 105.036629,4.631210 103.429176,6.417363 
	C101.673790,8.367897 100.342476,10.700074 98.602631,13.099501 
	C99.502518,14.236906 100.566277,15.230132 101.760277,16.028597 
	C106.262947,19.039650 110.807968,21.987366 115.246017,25.365120 
	C112.358932,34.027428 114.315392,41.650146 118.149780,49.362778 
	C118.028526,51.518921 118.008827,53.321388 117.566498,55.082832 
	C110.412300,54.723080 103.680717,54.404346 96.671661,53.787247 
	C89.323288,53.024734 82.126022,53.360428 75.730942,49.255947 
	C74.876038,48.707253 72.959900,49.656471 71.595016,50.097237 
	C69.881233,50.650665 68.281761,51.670189 66.540138,52.003349 
	C62.069103,52.858624 57.546783,53.445827 52.583466,54.026352 
	C43.537441,54.558060 34.952919,55.203609 26.154758,55.865223 
	C24.767910,49.789299 25.141024,48.181679 30.621546,43.510071 
	C32.996872,41.485340 35.825119,39.991959 38.821205,38.234367 
	C43.330818,38.794907 43.590111,35.245499 45.277130,32.865314 
	C46.759174,32.541641 47.885876,32.191959 49.385666,31.880821 
	C50.508488,31.938618 51.258217,31.957869 52.285862,32.262569 
	C55.601166,32.548019 58.638557,32.548019 61.675945,32.548019 
	C61.732204,32.014355 61.788464,31.480694 61.844719,30.947031 
	C60.976620,29.902246 60.108524,28.857462 59.159000,27.714680 
	C60.691364,26.709906 61.926903,25.899759 63.572433,25.076672 
	C65.927124,24.930321 67.871819,24.796915 69.816521,24.663509 
	C69.890678,24.205080 69.964828,23.746649 70.038986,23.288219 
	C68.399551,22.496931 66.760117,21.705645 65.093246,20.595039 
	C65.033440,19.849024 65.001060,19.422325 64.993095,18.615387 
	C65.017517,16.857632 65.017517,15.480116 65.017517,14.537841 
	C59.921513,13.414442 54.632751,8.974743 50.376579,15.853769 
	C49.045994,16.314627 48.039921,16.723770 46.696014,17.125881 
	C44.543400,18.289177 42.728622,19.459507 40.557446,20.676510 
	C37.589043,18.995935 34.955734,17.050159 32.590462,21.577223 
	C27.836657,24.356539 23.047197,26.516941 19.106134,29.720919 
	C10.798155,36.475082 5.521625,45.235977 7.306403,56.289047 
	C9.953807,72.684326 17.224234,87.038391 29.726927,98.147346 
	C32.997818,101.053612 37.824924,103.007332 42.200333,103.675018 
	C48.036800,104.565666 54.130180,103.772743 60.496593,103.775322 
	C66.124512,104.880234 71.356590,106.623802 76.617607,106.716011 
	C80.686424,106.787323 84.791489,104.790581 89.333466,103.870445 
	C98.621918,103.776176 107.455559,105.158699 116.033669,100.825668 
	C126.622322,95.477066 135.673111,88.893723 141.000000,78.000000 
z"/>
<path fill="#616160" opacity="1.000000" stroke="none"
	d="
M141.000000,77.532059
	C135.673111,88.893723 126.622322,95.477066 116.033669,100.825668
	C107.455559,105.158699 98.621918,103.776176 89.365723,103.538155
	C98.619125,95.122131 101.824883,85.007378 99.131966,72.498810
	C99.138412,66.224030 96.057137,61.933170 91.891434,57.812557
	C93.570831,56.972565 95.357651,56.460869 97.595123,55.963814
	C104.864136,56.846321 111.677666,57.759647 118.510902,58.488075
	C119.009567,58.541233 119.651039,57.254597 120.418167,56.355385
	C125.743690,53.404495 130.877167,50.689079 136.149292,48.306000
	C137.858627,52.425560 139.429306,56.212780 141.000000,60.000000
	C141.000000,65.688042 141.000000,71.376083 141.000000,77.532059
z"/>

<path fill="#C8DDD7" opacity="1.000000" stroke="none"
	d="
M112.600006,0.999999
	C116.016235,4.849810 118.995239,8.729635 122.064301,12.536857
	C123.615570,14.461220 125.329765,16.254246 126.775162,18.674625
	C125.483734,20.505671 124.387436,21.768745 123.291145,23.031820
	C123.217880,22.459312 123.144623,21.886805 123.071365,21.314297
	C121.370972,20.875847 119.670586,20.437397 117.658112,19.858707
	C115.401848,18.489603 113.595367,16.884171 111.484123,16.112190
	C107.396599,14.617578 104.002502,10.125761 98.826317,12.865898
	C100.342476,10.700074 101.673790,8.367897 103.429176,6.417363
	C105.036629,4.631210 107.102173,3.257313 108.982925,1.350877
	C110.066673,1.000000 111.133339,1.000000 112.600006,0.999999
z"/>

<path fill="#CADBD2" opacity="1.000000" stroke="none"
	d="
M141.000000,32.666668
	C140.221832,34.205280 139.443649,35.410564 138.290833,36.676430
	C137.614731,36.845337 137.313278,36.953659 137.011810,37.061981
	C137.011810,37.061985 137.005508,37.000530 136.672058,37.050903
	C135.567078,38.420727 134.795547,39.740177 134.024033,41.059631
	C134.024033,41.059635 134.012604,40.996910 133.688065,41.014664
	C132.247803,41.367016 131.132065,41.701618 130.050034,41.644310
	C130.757401,35.783112 131.431076,30.313818 132.104767,24.844528
	C134.836746,26.895205 137.568741,28.945881 140.650360,30.998280
	C141.000000,31.444445 141.000000,31.888891 141.000000,32.666668
z"/>
<path fill="#616161" opacity="1.000000" stroke="none"
	d="
M60.113213,103.702934
	C54.130180,103.772743 48.036800,104.565666 42.200333,103.675018
	C37.824924,103.007332 32.997818,101.053612 29.726927,98.147346
	C17.224234,87.038391 9.953807,72.684326 7.306403,56.289047
	C5.521625,45.235977 10.798155,36.475082 19.106134,29.720919
	C23.047197,26.516941 27.836657,24.356539 32.704872,21.969589
	C34.372429,26.154806 35.576878,30.093800 36.424301,34.038559
	C34.776039,34.961567 33.597515,36.140739 32.174984,36.752892
	C23.871929,40.325882 20.329153,46.570610 20.947567,55.522404
	C21.200542,59.184307 22.338745,62.641655 25.920534,63.139114
	C28.088585,63.440231 31.370876,61.599754 32.839710,59.704174
	C35.162376,56.706711 37.625759,56.550865 40.923038,56.707054
	C44.928482,56.896790 48.969826,56.328678 53.368591,56.053894
	C54.956841,56.073467 56.172127,56.127583 57.325893,56.178955
	C56.897144,57.810345 56.548115,59.138401 55.840897,60.601280
	C54.183048,62.177837 52.279957,63.405910 51.681538,65.095947
	C47.757847,76.177162 47.285328,87.032722 54.945168,97.351776
	C56.721008,99.690445 58.417110,101.696693 60.113213,103.702934
z"/>
<path fill="#F8C69F" opacity="1.000000" stroke="none"
	d="
M132.024719,24.519239
	C131.431076,30.313818 130.757401,35.783112 129.838852,41.901463
	C125.813095,44.703384 122.032211,46.856243 118.251328,49.009102
	C114.315392,41.650146 112.358932,34.027428 115.574753,25.309502
	C116.653122,23.231356 117.311661,21.615152 117.970192,19.998949
	C119.670586,20.437397 121.370972,20.875847 123.071365,21.314297
	C123.144623,21.886805 123.217880,22.459312 123.291145,23.031820
	C124.387436,21.768745 125.483734,20.505671 126.847321,19.000740
	C128.724640,20.570574 130.334656,22.382263 132.024719,24.519239
z"/>
<path fill="#2D140A" opacity="1.000000" stroke="none"
	d="
M60.496590,103.775322
	C58.417110,101.696693 56.721008,99.690445 55.369591,97.345474
	C61.597687,97.670120 67.468269,98.498177 73.367554,98.957649
	C81.887146,99.621201 87.726463,95.042320 91.787666,88.233093
	C94.679390,83.384674 96.722115,78.029907 99.143730,72.901108
	C101.824883,85.007378 98.619125,95.122131 88.912704,103.380943
	C84.791489,104.790581 80.686424,106.787323 76.617607,106.716011
	C71.356590,106.623802 66.124512,104.880234 60.496590,103.775322
z"/>
<path fill="#EAC3A1" opacity="1.000000" stroke="none"
	d="
M56.199081,60.466461
	C56.548115,59.138401 56.897144,57.810345 57.325893,56.178955
	C56.172127,56.127583 54.956841,56.073467 53.337093,55.727554
	C52.970078,55.003902 53.007523,54.572044 53.044964,54.140190
	C57.546783,53.445827 62.069103,52.858624 66.540138,52.003349
	C68.281761,51.670189 69.881233,50.650665 71.595016,50.097237
	C72.959900,49.656471 74.876038,48.707253 75.730942,49.255947
	C82.126022,53.360428 89.323288,53.024734 96.741119,54.092796
	C97.106857,55.114204 97.125671,55.531689 97.144478,55.949173
	C95.357651,56.460869 93.570831,56.972565 91.479126,57.723755
	C83.017471,55.900822 74.935997,56.266285 67.591209,60.369434
	C63.465073,62.674492 60.021500,62.839531 56.199081,60.466461
z"/>
<path fill="#525353" opacity="1.000000" stroke="none"
	d="
M52.583466,54.026352
	C53.007523,54.572044 52.970078,55.003902 52.964134,55.762093
	C48.969826,56.328678 44.928482,56.896790 40.923038,56.707054
	C37.625759,56.550865 35.162376,56.706711 32.839710,59.704174
	C31.370876,61.599754 28.088585,63.440231 25.920534,63.139114
	C22.338745,62.641655 21.200542,59.184307 20.947567,55.522404
	C20.329153,46.570610 23.871929,40.325882 32.174984,36.752892
	C33.597515,36.140739 34.776039,34.961567 36.618092,34.367966
	C37.595146,35.880138 38.021393,37.068684 38.447639,38.257225
	C35.825119,39.991959 32.996872,41.485340 30.621546,43.510071
	C25.141024,48.181679 24.767910,49.789299 26.154758,55.865223
	C34.952919,55.203609 43.537441,54.558060 52.583466,54.026352
z"/>
<path fill="#F8C398" opacity="1.000000" stroke="none"
	d="
M52.007946,31.977121
	C51.258217,31.957869 50.508488,31.938618 49.245949,31.640917
	C47.574879,31.260593 46.416615,31.158722 44.976154,30.896217
	C44.495735,30.144506 44.297516,29.553429 44.461464,28.962976
	C45.640617,27.314507 46.885441,25.734907 47.167423,23.998909
	C47.528477,21.776123 47.114090,19.427382 47.033848,17.132914
	C48.039921,16.723770 49.045994,16.314627 50.794167,15.953239
	C55.026226,17.333511 58.516186,18.666029 61.815880,20.270643
	C59.990051,21.883421 58.813713,23.173126 62.002209,24.229227
	C61.990311,24.648159 61.983124,24.815659 61.606796,24.991737
	C58.002342,25.720793 54.352142,26.189539 57.728531,30.544739
	C55.730717,31.044973 53.869331,31.511047 52.007946,31.977121
z"/>
<path fill="#A9BDB6" opacity="1.000000" stroke="none"
	d="
M44.099297,28.962353
	C44.297516,29.553429 44.495735,30.144506 44.891281,31.188267
	C45.033005,32.040401 44.977398,32.439854 44.921787,32.839302
	C43.590111,35.245499 43.330818,38.794907 38.821205,38.234367
	C38.021393,37.068684 37.595146,35.880138 36.975113,34.362194
	C35.576878,30.093800 34.372429,26.154806 33.053574,21.823448
	C34.955734,17.050159 37.589043,18.995935 40.705421,21.016916
	C42.301487,22.171261 43.393177,23.031874 44.099297,23.588530
	C44.099297,25.549736 44.099297,27.256044 44.099297,28.962353
M41.518566,24.909529
	C41.764019,24.765200 42.009468,24.620871 42.254921,24.476543
	C42.002323,24.344255 41.691807,24.054756 41.512314,24.120882
	C41.304470,24.197454 41.211838,24.586765 41.518566,24.909529
z"/>
<path fill="#A6BFB9" opacity="1.000000" stroke="none"
	d="
M118.149780,49.362782
	C122.032211,46.856243 125.813095,44.703384 129.805161,42.293373
	C131.132065,41.701618 132.247803,41.367016 133.716965,41.028130
	C134.731155,43.088116 135.391891,45.152382 136.031647,47.595154
	C130.877167,50.689079 125.743690,53.404495 120.160789,56.229923
	C119.137283,55.934574 118.563210,55.529213 117.989136,55.123856
	C118.008827,53.321388 118.028526,51.518921 118.149780,49.362782
z"/>
<path fill="#ACC6C0" opacity="1.000000" stroke="none"
	d="
M117.658112,19.858707
	C117.311661,21.615152 116.653122,23.231356 115.665863,24.903177
	C110.807968,21.987366 106.262947,19.039650 101.760277,16.028597
	C100.566277,15.230132 99.502518,14.236906 98.602631,13.099503
	C104.002502,10.125761 107.396599,14.617578 111.484123,16.112190
	C113.595367,16.884171 115.401848,18.489603 117.658112,19.858707
z"/>
<path fill="#F0CAAC" opacity="1.000000" stroke="none"
	d="
M62.006145,19.998547
	C58.516186,18.666029 55.026226,17.333511 51.118679,15.901525
	C54.632751,8.974743 59.921513,13.414442 65.017517,14.537841
	C65.017517,15.480116 65.017517,16.857632 64.678406,18.642582
	C63.561573,19.366192 62.783859,19.682367 62.006145,19.998547
z"/>
<path fill="#4C4E4E" opacity="1.000000" stroke="none"
	d="
M117.566505,55.082832
	C118.563210,55.529213 119.137283,55.934574 119.968735,56.465401
	C119.651039,57.254597 119.009567,58.541233 118.510902,58.488075
	C111.677666,57.759647 104.864136,56.846321 97.595123,55.963814
	C97.125671,55.531689 97.106857,55.114204 97.018593,54.391167
	C103.680717,54.404346 110.412300,54.723080 117.566505,55.082832
z"/>
<path fill="#F0CAAC" opacity="1.000000" stroke="none"
	d="
M44.461464,28.962976
	C44.099297,27.256044 44.099297,25.549736 44.099297,23.588530
	C43.393177,23.031874 42.301487,22.171261 41.061821,20.970242
	C42.728622,19.459507 44.543400,18.289177 46.696014,17.125881
	C47.114090,19.427382 47.528477,21.776123 47.167423,23.998909
	C46.885441,25.734907 45.640617,27.314507 44.461464,28.962976
z"/>
<path fill="#F4D1B2" opacity="1.000000" stroke="none"
	d="
M52.285862,32.262569
	C53.869331,31.511047 55.730717,31.044973 57.728531,30.544739
	C54.352142,26.189539 58.002342,25.720793 61.904221,25.011108
	C62.768005,25.044468 62.965225,25.067043 63.162445,25.089615
	C61.926903,25.899759 60.691364,26.709906 59.159000,27.714680
	C60.108524,28.857462 60.976620,29.902246 61.844719,30.947031
	C61.788464,31.480694 61.732204,32.014355 61.675945,32.548019
	C58.638557,32.548019 55.601166,32.548019 52.285862,32.262569
z"/>
<path fill="#F0CAAC" opacity="1.000000" stroke="none"
	d="
M63.572433,25.076672
	C62.965225,25.067043 62.768005,25.044468 62.273361,25.002525
	C61.983124,24.815659 61.990311,24.648159 62.179176,23.972305
	C63.280792,22.614084 64.200737,21.764221 65.120682,20.914358
	C66.760117,21.705645 68.399551,22.496931 70.038986,23.288219
	C69.964828,23.746649 69.890678,24.205080 69.816521,24.663509
	C67.871819,24.796915 65.927124,24.930321 63.572433,25.076672
z"/>
<path fill="#F4D1B2" opacity="1.000000" stroke="none"
	d="
M65.093246,20.595039
	C64.200737,21.764221 63.280792,22.614084 62.183884,23.720871
	C58.813713,23.173126 59.990051,21.883421 61.815880,20.270641
	C62.783859,19.682367 63.561573,19.366192 64.653976,19.022821
	C65.001060,19.422325 65.033440,19.849024 65.093246,20.595039
z"/>
<path fill="#F4D1B2" opacity="1.000000" stroke="none"
	d="
M45.277130,32.865314
	C44.977398,32.439854 45.033005,32.040401 45.173485,31.348902
	C46.416615,31.158722 47.574879,31.260593 48.872856,31.602371
	C47.885876,32.191959 46.759174,32.541641 45.277130,32.865314
z"/>
<path fill="#3E1A09" opacity="1.000000" stroke="none"
	d="
M55.840897,60.601280
	C60.021500,62.839531 63.465073,62.674492 67.591209,60.369434
	C74.935997,56.266285 83.017471,55.900822 91.586555,58.052055
	C96.057137,61.933170 99.138412,66.224030 99.131966,72.498810
	C96.722115,78.029907 94.679390,83.384674 91.787666,88.233093
	C87.726463,95.042320 81.887146,99.621201 73.367554,98.957649
	C67.468269,98.498177 61.597687,97.670120 55.289856,97.013054
	C47.285328,87.032722 47.757847,76.177162 51.681538,65.095947
	C52.279957,63.405910 54.183048,62.177837 55.840897,60.601280
z"/>
<path fill="#A6BFB9" opacity="1.000000" stroke="none"
	d="
M134.316986,40.900764
	C134.795547,39.740177 135.567078,38.420727 136.699402,37.065292
	C136.243439,38.266838 135.426682,39.504368 134.316986,40.900764
z"/>
<path fill="#A6BFB9" opacity="1.000000" stroke="none"
	d="
M137.295258,37.127640
	C137.313278,36.953659 137.614731,36.845337 138.034851,36.919769
	C137.961914,37.132782 137.770325,37.163040 137.295258,37.127640
z"/>
<path fill="#F0CAAC" opacity="1.000000" stroke="none"
	d="
M41.293877,24.874916
	C41.211838,24.586765 41.304470,24.197454 41.512314,24.120882
	C41.691807,24.054756 42.002323,24.344255 42.254921,24.476543
	C42.009468,24.620871 41.764019,24.765200 41.293877,24.874916
z"/>
</svg>