<svg version="1.1" id="Layer_1" xmlns="http://www.w3.org/2000/svg" xmlns:xlink="http://www.w3.org/1999/xlink" x="0px" y="0px"
	 width="100%" viewBox="0 0 134 99" enable-background="new 0 0 134 99" xml:space="preserve">
<path fill="#000000" fill-opacity="0" stroke="none"
	d="
M1.000000,41.000000
	C1.000000,27.692989 1.000000,14.385980 1.000000,1.039485
	C45.552132,1.039485 90.104301,1.039485 135.000000,1.039485
	C135.000000,16.685890 135.000000,32.374287 134.647400,48.491783
	C131.405746,46.957581 129.847855,44.501823 128.544800,40.986336
	C127.455750,38.048218 123.044037,35.498032 119.598358,34.470154
	C114.107056,32.832050 108.195885,32.601398 102.401421,31.341412
	C102.336418,28.124800 102.595230,25.310772 102.265930,22.567335
	C101.782944,18.543447 99.479881,16.771072 94.926300,18.088879
	C88.600441,19.253653 85.288292,23.669054 81.821274,28.203789
	C81.644928,28.296427 81.257942,28.391140 80.885178,28.254299
	C79.008545,27.741789 77.504669,27.366119 75.916809,26.607376
	C72.257034,25.760143 68.674156,25.343117 65.109085,24.807543
	C63.770256,24.606415 61.748741,24.539377 61.279518,23.709499
	C59.030727,19.732256 57.182873,20.225525 54.596004,23.410784
	C53.785244,24.409088 51.708214,24.826139 50.279961,24.703541
	C49.459099,24.633081 48.339085,23.042789 48.104912,21.972334
	C46.798782,16.001781 45.652298,15.587179 39.550293,19.215179
	C35.717957,17.830837 32.478764,17.275005 30.901031,22.107197
	C29.377071,23.173937 27.285515,24.228662 27.271578,25.310165
	C27.208494,30.204689 25.487059,33.484516 20.480247,34.634422
	C20.230438,34.691792 20.155838,35.512047 19.666634,35.986725
	C18.889315,35.998432 18.445019,36.000496 17.768372,35.724659
	C10.831246,33.070076 9.481705,33.947567 8.554132,40.998749
	C5.740058,40.999550 3.370029,40.999775 1.000000,41.000000
M67.097778,21.732233
	C67.042778,21.232494 66.987778,20.732756 66.932770,20.233017
	C66.485260,20.347954 66.037743,20.462891 65.590233,20.577829
	C65.893097,21.004471 66.195969,21.431112 67.097778,21.732233
z"/>


<path fill="#59BA82" opacity="1.000000" stroke="none"
	d="
M101.969727,35.913883
	C111.648506,34.981102 119.928734,37.877510 126.552574,45.070667
	C131.745819,50.710281 132.647446,59.148605 128.231842,65.908707
	C124.898544,68.527367 122.162209,70.875092 119.591530,73.392014
	C111.589439,81.226761 101.734467,82.847374 91.150810,81.892174
	C90.340248,81.819023 89.638702,80.537872 89.039421,79.508316
	C95.845108,68.087204 95.915619,56.619766 91.020264,44.537354
	C88.350334,41.433414 85.709541,38.677265 82.923431,35.657784
	C82.182907,34.590107 81.587700,33.785763 81.006355,32.594482
	C81.099457,30.935411 81.178703,29.663275 81.257942,28.391140
	C81.257942,28.391140 81.644928,28.296427 82.133926,28.367586
	C84.693336,28.941963 86.763733,29.445179 89.133438,30.152744
	C93.611740,32.209354 97.790733,34.061619 101.969727,35.913883
z"/>

<path fill="#2B2A2B" opacity="1.000000" stroke="none"
	d="
M39.550293,19.215179
	C41.300735,22.282585 42.725006,25.223015 43.755135,28.562401
	C39.520851,29.660231 35.680717,30.359104 31.658138,30.704178
	C31.413836,27.602757 31.351974,24.855133 31.290115,22.107510
	C32.478764,17.275005 35.717957,17.830837 39.550293,19.215179
z"/>
<path fill="#2D2E2E" opacity="1.000000" stroke="none"
	d="
M102.401421,31.341412
	C102.462273,31.775562 102.225609,31.902899 101.742889,31.906830
	C99.586739,29.656229 97.913315,27.401695 96.065010,24.911556
	C95.368759,26.327507 94.502289,28.089642 94.047073,29.015404
	C92.180984,29.015404 90.721588,29.015404 89.269257,28.661123
	C91.302261,24.913256 93.328201,21.519669 95.354149,18.126080
	C99.479881,16.771072 101.782944,18.543447 102.265930,22.567335
	C102.595230,25.310772 102.336418,28.124800 102.401421,31.341412
z"/>

<path fill="#B3C5BA" opacity="1.000000" stroke="none"
	d="
M67.005806,27.031639
	C69.704506,27.034008 72.403206,27.036377 75.551346,27.014599
	C77.504669,27.366119 79.008545,27.741789 80.885178,28.254299
	C81.178703,29.663275 81.099457,30.935411 80.623978,32.595329
	C75.820419,30.999290 71.413116,29.015465 67.005806,27.031639
z"/>


<path fill="#59BA82" opacity="1.000000" stroke="none"
	d="
M17.683395,37.643848
	C18.523052,37.408569 19.070934,37.325706 19.800154,37.015320
	C20.527140,36.696091 21.072786,36.604389 22.204277,36.347694
	C23.511896,36.020130 24.233673,35.857555 24.955452,35.694981
	C25.751503,35.679794 26.547552,35.664612 28.091019,35.726414
	C29.896856,35.835827 30.955278,35.868256 32.364315,35.832603
	C36.824142,33.835693 40.933361,31.906862 45.042576,29.978031
	C47.101486,29.580675 49.160393,29.183319 51.623169,29.209618
	C52.059311,31.098251 52.091591,32.563232 51.899105,34.272881
	C50.078171,36.247906 48.482006,37.978260 46.607346,39.814514
	C45.848747,40.486912 45.368641,41.053410 44.602493,41.850471
	C40.231522,47.956768 38.919323,54.582062 39.800320,61.509155
	C40.343887,65.783142 41.800476,69.941017 42.859371,74.104927
	C42.871578,74.058838 42.777870,74.076508 42.739609,74.413651
	C42.846931,75.412300 42.992512,76.073799 43.113533,77.072685
	C43.479385,77.885849 43.869804,78.361626 44.158936,78.926605
	C44.057652,79.015800 44.240788,78.817825 44.190079,79.144836
	C44.553360,79.868385 44.967350,80.264915 45.402039,80.690010
	C45.422737,80.718575 45.493057,80.712898 45.321548,81.033325
	C45.091431,81.586708 45.032825,81.819679 44.512737,82.042152
	C40.029385,82.036293 36.007519,82.040924 31.660862,82.036331
	C30.902859,82.024071 30.469645,82.021011 29.759586,82.005096
	C29.297977,81.991371 29.113216,81.990501 28.645687,81.862373
	C27.586575,81.491425 26.810226,81.247726 25.776625,80.982590
	C25.349262,80.935013 25.179157,80.908890 24.726738,80.624382
	C23.688229,80.387695 22.932032,80.409393 22.175837,80.431099
	C22.175837,80.431099 22.320919,80.140450 22.133114,80.006592
	C16.794912,75.045593 11.661283,70.200195 6.460599,65.427864
	C6.067015,65.066696 5.196750,65.224998 4.548066,65.141838
	C4.548066,65.141838 4.245975,65.110542 4.107767,64.690414
	C3.666434,63.173225 3.363309,62.076164 3.060184,60.979103
	C2.975860,60.542248 2.891536,60.105392 2.702693,59.351311
	C2.673585,57.945339 2.748997,56.856586 2.741021,55.365078
	C2.744893,54.526817 2.832154,54.091316 2.902291,53.321873
	C3.288159,51.916019 3.691152,50.844112 4.085998,49.417664
	C4.077850,49.063126 4.042162,49.049847 4.309390,48.897293
	C4.802890,48.192783 5.029162,47.640823 5.255433,47.088863
	C6.396896,45.880630 7.538359,44.672394 9.141716,43.142357
	C10.525095,41.942455 11.446580,41.064362 12.368066,40.186272
	C12.837258,39.997890 13.306451,39.809509 14.214071,39.332394
	C14.932018,38.765675 15.211535,38.487690 15.491053,38.209702
	C16.124575,38.071892 16.758097,37.934082 17.683395,37.643848
z"/>
<path fill="#2B170B" opacity="1.000000" stroke="none"
	d="
M91.049393,44.885151
	C95.915619,56.619766 95.845108,68.087204 88.752106,79.659821
	C87.152802,81.621284 85.993752,83.121346 84.834702,84.621399
	C79.635506,86.481812 74.562233,88.971130 69.205299,90.043785
	C62.476250,91.391190 56.257767,88.875389 50.161781,84.663132
	C48.295654,83.063171 46.894356,81.888039 45.493057,80.712898
	C45.493057,80.712898 45.422737,80.718575 45.393921,80.401321
	C44.990330,79.661995 44.615559,79.239906 44.240788,78.817825
	C44.240788,78.817825 44.057652,79.015800 44.141693,78.614517
	C44.158421,77.801712 44.091099,77.390182 44.047112,76.955261
	C44.070446,76.931854 44.119820,76.887917 44.504265,76.922638
	C45.937309,77.539154 46.951485,78.197456 48.041241,78.687759
	C50.822765,79.939224 53.578510,81.918137 56.453899,82.131294
	C60.605225,82.439041 64.843948,81.297813 69.061584,81.034012
	C79.763756,80.364616 92.045723,67.550262 91.955254,56.783352
	C91.921906,52.815029 91.366623,48.851089 91.049393,44.885151
z"/>
<path fill="#549772" opacity="1.000000" stroke="none"
	d="
M85.290817,84.777542
	C85.993752,83.121346 87.152802,81.621284 88.599167,79.969727
	C89.638702,80.537872 90.340248,81.819023 91.150810,81.892174
	C101.734467,82.847374 111.589439,81.226761 119.591530,73.392014
	C122.162209,70.875092 124.898544,68.527367 127.916870,66.094841
	C122.144447,76.524277 113.337265,83.342529 101.212013,84.934181
	C96.144333,85.599403 90.907082,84.972893 85.290817,84.777542
z"/>
<path fill="#16221C" opacity="1.000000" stroke="none"
	d="
M89.133438,30.152744
	C88.878143,29.780384 88.922150,29.612375 89.114166,29.229885
	C90.721588,29.015404 92.180984,29.015404 94.047073,29.015404
	C94.502289,28.089642 95.368759,26.327507 96.065010,24.911556
	C97.913315,27.401695 99.586739,29.656229 101.616730,31.953087
	C101.957222,33.040459 101.941162,34.085503 101.947411,35.522217
	C97.790733,34.061619 93.611740,32.209354 89.133438,30.152744
z"/>
<path fill="#5F9878" opacity="1.000000" stroke="none"
	d="
M4.650411,65.484520
	C5.196750,65.224998 6.067015,65.066696 6.460599,65.427864
	C11.661283,70.200195 16.794912,75.045593 22.271973,80.090851
	C21.554710,80.342476 20.070692,80.842224 19.535347,80.336914
	C14.515227,75.598434 9.657456,70.687958 4.650411,65.484520
z"/>
<path fill="#5F9878" opacity="1.000000" stroke="none"
	d="
M30.036430,82.017944
	C30.469645,82.021011 30.902859,82.024071 31.747061,82.415382
	C35.098732,83.494621 38.039410,84.185600 40.980091,84.876579
	C34.392426,85.025833 27.585264,86.300011 22.100964,80.804672
	C22.932032,80.409393 23.688229,80.387695 24.792152,80.820641
	C25.437881,81.184868 25.735882,81.094444 26.033880,81.004028
	C26.810226,81.247726 27.586575,81.491425 28.746674,82.040314
	C29.432426,82.236313 29.734428,82.127129 30.036430,82.017944
z"/>
<path fill="#45966A" opacity="1.000000" stroke="none"
	d="
M41.378193,84.939163
	C38.039410,84.185600 35.098732,83.494621 32.071854,82.424591
	C36.007519,82.040924 40.029385,82.036293 44.524384,82.395172
	C44.994263,83.467644 44.991009,84.176613 44.987755,84.885574
	C43.917267,84.924301 42.846783,84.963028 41.378193,84.939163
z"/>
<path fill="#5F9878" opacity="1.000000" stroke="none"
	d="
M45.401283,84.957886
	C44.991009,84.176613 44.994263,83.467644 44.985870,82.405663
	C45.032825,81.819679 45.091431,81.586708 45.321548,81.033325
	C46.894356,81.888039 48.295654,83.063171 49.828857,84.524979
	C48.578777,84.884499 47.196793,84.957344 45.401283,84.957886
z"/>



<path fill="#3E1A08" opacity="1.000000" stroke="none"
	d="
M91.020264,44.537354
	C91.366623,48.851089 91.921906,52.815029 91.955254,56.783352
	C92.045723,67.550262 79.763756,80.364616 69.061584,81.034012
	C64.843948,81.297813 60.605225,82.439041 56.453899,82.131294
	C53.578510,81.918137 50.822765,79.939224 48.041241,78.687759
	C46.951485,78.197456 45.937309,77.539154 44.459816,76.588028
	C43.613232,75.504631 43.195553,74.790573 42.777870,74.076508
	C42.777870,74.076508 42.871578,74.058838 42.903381,73.676178
	C41.683380,64.277412 38.837502,55.229321 43.986031,46.408432
	C44.757385,45.086887 44.610596,43.229443 44.888535,41.619907
	C45.368641,41.053410 45.848747,40.486912 46.938168,39.994698
	C50.085091,40.763725 53.360062,42.827473 55.036987,41.924259
	C63.892525,37.154568 73.185738,35.400246 83.068748,35.921120
	C85.709541,38.677265 88.350334,41.433414 91.020264,44.537354
z"/>
<path fill="#F1C29B" opacity="1.000000" stroke="none"
	d="
M82.923431,35.657784
	C73.185738,35.400246 63.892525,37.154568 55.036987,41.924259
	C53.360062,42.827473 50.085091,40.763725 47.216660,39.888794
	C48.482006,37.978260 50.078171,36.247906 52.248882,34.228397
	C55.074627,32.955364 57.358143,32.038132 59.567055,30.967037
	C61.416245,30.070372 63.178253,28.993916 65.204086,27.892910
	C65.713417,27.594378 65.908936,27.333593 66.015884,27.006395
	C66.015884,27.006395 66.511581,26.986637 66.758698,27.009138
	C71.413116,29.015465 75.820419,30.999290 80.610107,32.982269
	C81.587700,33.785763 82.182907,34.590107 82.923431,35.657784
z"/>
<path fill="#A7C5B2" opacity="1.000000" stroke="none"
	d="
M64.978867,27.997072
	C63.178253,28.993916 61.416245,30.070372 59.567055,30.967037
	C57.358143,32.038132 55.074627,32.955364 52.473648,33.983727
	C52.091591,32.563232 52.059311,31.098251 52.024342,29.190052
	C55.416679,28.183174 58.811714,27.619518 62.795074,27.315865
	C63.915226,27.716270 64.447044,27.856672 64.978867,27.997072
z"/>
<path fill="#17291E" opacity="1.000000" stroke="none"
	d="
M44.973915,29.744457
	C40.933361,31.906862 36.824142,33.835693 32.333740,35.474586
	C31.828671,34.479767 31.704790,33.774887 31.580910,33.070011
	C31.610426,32.618561 31.639944,32.167110 31.755024,31.386818
	C35.680717,30.359104 39.520851,29.660231 43.770367,28.937649
	C44.530411,28.980646 44.772247,29.179626 44.973915,29.744457
z"/>
<path fill="#B3C5BA" opacity="1.000000" stroke="none"
	d="
M65.204086,27.892910
	C64.447044,27.856672 63.915226,27.716270 63.210693,27.358253
	C63.781254,27.083277 64.524529,27.025915 65.641846,26.987473
	C65.908936,27.333593 65.713417,27.594378 65.204086,27.892910
z"/>



<path fill="#2B170B" opacity="1.000000" stroke="none"
	d="
M44.602493,41.850471
	C44.610596,43.229443 44.757385,45.086887 43.986031,46.408432
	C38.837502,55.229321 41.683380,64.277412 42.891174,73.722260
	C41.800476,69.941017 40.343887,65.783142 39.800320,61.509155
	C38.919323,54.582062 40.231522,47.956768 44.602493,41.850471
z"/>
<path fill="#2B170B" opacity="1.000000" stroke="none"
	d="
M42.739609,74.413651
	C43.195553,74.790573 43.613232,75.504631 44.075367,76.553307
	C44.119820,76.887917 44.070446,76.931854 43.825817,76.893837
	C43.581188,76.855820 43.138096,76.735306 43.138096,76.735306
	C42.992512,76.073799 42.846931,75.412300 42.739609,74.413651
z"/>
<path fill="#5F9878" opacity="1.000000" stroke="none"
	d="
M43.113533,77.072685
	C43.138096,76.735306 43.581188,76.855820 43.802483,76.917236
	C44.091099,77.390182 44.158421,77.801712 44.242981,78.525322
	C43.869804,78.361626 43.479385,77.885849 43.113533,77.072685
z"/>
<path fill="#5F9878" opacity="1.000000" stroke="none"
	d="
M44.190079,79.144836
	C44.615559,79.239906 44.990330,79.661995 45.373222,80.372757
	C44.967350,80.264915 44.553360,79.868385 44.190079,79.144836
z"/>
<path fill="#45966A" opacity="1.000000" stroke="none"
	d="
M25.776625,80.982582
	C25.735882,81.094444 25.437881,81.184868 25.074467,81.079033
	C25.179157,80.908890 25.349262,80.935013 25.776625,80.982582
z"/>
<path fill="#45966A" opacity="1.000000" stroke="none"
	d="
M29.759586,82.005096
	C29.734428,82.127129 29.432426,82.236313 29.029440,82.167557
	C29.113216,81.990501 29.297977,81.991371 29.759586,82.005096
z"/>
</svg>