<?xml version="1.0" standalone="no"?>
<!DOCTYPE svg PUBLIC "-//W3C//DTD SVG 20010904//EN"
 "http://www.w3.org/TR/2001/REC-SVG-20010904/DTD/svg10.dtd">
<svg version="1.0" xmlns="http://www.w3.org/2000/svg"
 width="1192.000000pt" height="580.000000pt" viewBox="0 0 1192.000000 580.000000"
 preserveAspectRatio="xMidYMid meet">

<g transform="translate(0.000000,580.000000) scale(0.100000,-0.100000)"
fill="#000000" stroke="none">
<path d="M10151 5703 c-16 -54 -38 -126 -48 -160 l-18 -62 -160 -68 c-88 -37
-165 -67 -171 -67 -18 2 -24 -120 -24 -462 l0 -314 -42 5 c-24 3 -226 10 -450
16 -404 11 -408 11 -425 -9 -10 -11 -165 -137 -346 -281 -205 -164 -336 -261
-350 -261 -15 0 -18 -3 -9 -8 11 -8 -462 -142 -499 -142 -13 0 -468 -169 -534
-199 -112 -49 -452 -216 -457 -224 -4 -7 -84 6 -235 36 -125 26 -233 47 -239
47 -8 0 -14 -70 -18 -232 -8 -260 -11 -288 -33 -288 -19 0 -606 -269 -614
-282 -4 -6 -126 13 -315 49 -210 40 -311 56 -315 49 -4 -6 -57 -150 -118 -320
-61 -170 -117 -314 -125 -320 -8 -6 -125 -114 -261 -241 -179 -166 -254 -231
-273 -232 -15 -1 -136 16 -270 37 -133 22 -248 40 -254 40 -12 0 -7 -41 15
-120 9 -30 18 -67 22 -82 3 -16 7 -40 10 -55 4 -16 21 -86 40 -158 18 -71 33
-137 32 -146 0 -14 -41 -18 -316 -33 l-316 -18 -409 -151 c-343 -127 -414
-157 -435 -181 -73 -85 -299 -335 -325 -361 -21 -21 -39 -29 -56 -27 -14 2
-212 37 -440 77 -228 40 -416 72 -417 71 -2 -2 87 -110 198 -240 110 -131 199
-239 197 -241 -3 -3 -352 404 -405 471 -9 13 -23 9 -95 -27 l-83 -42 -350 27
c-192 15 -365 30 -383 33 l-32 5 2 -303 3 -304 5958 -3 5957 -2 0 2900 0 2900
-870 0 -869 0 -30 -97z m16 -1348 c67 -101 81 -125 66 -110 -10 10 -122 177
-138 205 -20 37 17 -12 72 -95z m-3787 -1600 c41 -50 -95 92 -192 200 -39 44
-20 26 44 -40 63 -66 129 -138 148 -160z"/>
</g>
</svg>
