<?xml version="1.0" encoding="UTF-8" standalone="no"?>
<!-- Created with Inkscape (http://www.inkscape.org/) -->

<svg
   xmlns:svg="http://www.w3.org/2000/svg"
   xmlns="http://www.w3.org/2000/svg"
   version="1.1"
   width="113.69mm"
   height="132.63901mm"
   viewBox="0 0 113.69 132.639"
   id="svg2"
   xml:space="preserve"
   style="fill-rule:evenodd"><title
   id="title2917">Tryzub</title>
 <defs
   id="defs4">
  <style
   type="text/css"
   id="style6" />
 </defs>
 <g
   id="Layer_x0020_1">
  
  <g
   id="_186497360">
   <path
   d="m 57.5437,1.0541 c 0.3556,10.922 4.2418,22.9362 17.272,19.05 13.0556,-3.8862 18.3642,-5.0038 22.9362,2.8194 2.4638,4.2418 -4.2164,12.3444 -4.9276,17.6276 -0.7112,5.3086 0.7112,8.128 7.0612,12.0142 6.35,3.8608 13.0302,7.747 12.7,12.7 -0.3556,4.9276 -3.8862,9.1694 -12.0142,13.0556 -8.1026,3.8608 -8.1026,11.6332 -6.35,16.9164 1.778,5.3086 5.9944,13.0556 1.778,18.0086 -4.2418,4.9276 -10.2362,5.6388 -20.4724,2.1082 -10.2362,-3.5306 -17.6276,1.397 -17.6276,16.2306 l -2.1336,0 c 0,-14.8336 -7.3914,-19.7612 -17.6276,-16.2306 -10.2362,3.5306 -16.2306,2.8194 -20.4724,-2.1082 -4.2164,-4.953 0,-12.7 1.778,-18.0086 1.7526,-5.2832 1.7526,-13.0556 -6.35,-16.9164 -8.128,-3.8862 -11.6332,-8.128 -11.9888,-13.0556 -0.3556,-4.953 6.35,-8.8392 12.7,-12.7 6.35,-3.8862 7.747,-6.7056 7.0358,-12.0142 -0.6858,-5.2832 -7.3914,-13.3858 -4.9276,-17.6276 4.572,-7.8232 9.8806,-6.7056 22.9362,-2.8194 13.0556,3.8862 16.9164,-8.128 17.272,-19.05 l 1.4224,0 z"
   id="_187102776"
   style="fill:#fefefe;stroke:#2b2a29;stroke-width:2.10820007" />
   <g
   id="g12">
    <g
   id="g14">
     <path
   d="m 48.7299,2.1209 c 0,0 4.9276,12.8524 -10.414,17.4498 0,0 -4.7752,-14.986 10.414,-17.4498 z"
   id="_187102704"
   style="fill:#fefefe;stroke:#2b2a29;stroke-width:2.10820007" />
     <line
   id="_187102656"
   class="fil1 str0"
   x1="48.7299"
   y1="2.1208999"
   x2="38.315899"
   y2="19.5707"
   style="fill:none;stroke:#2b2a29;stroke-width:2.10820007" />
    </g>
    <g
   id="g18">
     <path
   d="m 36.2077,27.6987 c 0,0 -10.4394,8.9916 -19.939,-3.8862 0,0 12.4968,-9.5504 19.939,3.8862 z"
   id="_187102536"
   style="fill:#fefefe;stroke:#2b2a29;stroke-width:2.10820007" />
     <line
   id="_187102488"
   class="fil1 str0"
   x1="36.207699"
   y1="27.6987"
   x2="16.2687"
   y2="23.8125"
   style="fill:none;stroke:#2b2a29;stroke-width:2.10820007" />
    </g>
    <g
   id="g22">
     <path
   d="m 7.1247,32.5247 c 0,0 12.954,4.7498 6.3246,19.3294 0,0 -14.4272,-6.2738 -6.3246,-19.3294 z"
   id="_186502208"
   style="fill:#fefefe;stroke:#2b2a29;stroke-width:2.10820007" />
     <line
   id="_186502160"
   class="fil1 str0"
   x1="7.1247001"
   y1="32.5247"
   x2="13.4493"
   y2="51.854099"
   style="fill:none;stroke:#2b2a29;stroke-width:2.10820007" />
    </g>
    <g
   id="g26">
     <path
   d="m 18.8087,57.0611 c 0,0 1.2954,13.7414 -14.7066,14.0208 0,0 -0.5588,-15.7226 14.7066,-14.0208 z"
   id="_186502040"
   style="fill:#fefefe;stroke:#2b2a29;stroke-width:2.10820007" />
     <line
   id="_186501992"
   class="fil1 str0"
   x1="18.808701"
   y1="57.0611"
   x2="4.1020999"
   y2="71.081902"
   style="fill:none;stroke:#2b2a29;stroke-width:2.10820007" />
    </g>
    <g
   id="g30">
     <path
   d="m 1.5875,84.7725 c 0,0 13.081,-4.3688 16.9672,11.176 0,0 -15.1892,4.0894 -16.9672,-11.176 z"
   id="_186501872"
   style="fill:#fefefe;stroke:#2b2a29;stroke-width:2.10820007" />
     <line
   id="_186501824"
   class="fil1 str0"
   x1="1.5875"
   y1="84.772499"
   x2="18.554701"
   y2="95.948502"
   style="fill:none;stroke:#2b2a29;stroke-width:2.10820007" />
    </g>
    <g
   id="g34">
     <path
   d="m 25.3619,96.4311 c 0,0 10.6426,8.763 -0.4572,20.32 0,0 -11.5316,-10.6934 0.4572,-20.32 z"
   id="_186501704"
   style="fill:#fefefe;stroke:#2b2a29;stroke-width:2.10820007" />
     <line
   id="_186501656"
   class="fil1 str0"
   x1="25.3619"
   y1="96.431099"
   x2="24.904699"
   y2="116.751"
   style="fill:none;stroke:#2b2a29;stroke-width:2.10820007" />
    </g>
    <g
   id="g38">
     <path
   d="m 33.5407,127.622 c 0,0 2.794,-13.5128 18.1864,-9.0932 0,0 -4.0894,15.1892 -18.1864,9.0932 z"
   id="_186501536"
   style="fill:#fefefe;stroke:#2b2a29;stroke-width:2.10820007" />
     <line
   id="_186501488"
   class="fil1 str0"
   x1="33.540699"
   y1="127.622"
   x2="51.7271"
   y2="118.529"
   style="fill:none;stroke:#2b2a29;stroke-width:2.10820007" />
    </g>
    <g
   id="g42">
     <path
   d="m 64.9605,2.1209 c 0,0 -4.953,12.8524 10.3886,17.4498 0,0 4.7752,-14.986 -10.3886,-17.4498 z"
   id="_186501368"
   style="fill:#fefefe;stroke:#2b2a29;stroke-width:2.10820007" />
     <line
   id="_186501320"
   class="fil1 str0"
   x1="64.960503"
   y1="2.1208999"
   x2="75.349098"
   y2="19.5707"
   style="fill:none;stroke:#2b2a29;stroke-width:2.10820007" />
    </g>
    <g
   id="g46">
     <path
   d="m 77.4573,27.6987 c 0,0 10.4394,8.9916 19.939,-3.8862 0,0 -12.4968,-9.5504 -19.939,3.8862 z"
   id="_186501200"
   style="fill:#fefefe;stroke:#2b2a29;stroke-width:2.10820007" />
     <line
   id="_186501152"
   class="fil1 str0"
   x1="77.457298"
   y1="27.6987"
   x2="97.396301"
   y2="23.8125"
   style="fill:none;stroke:#2b2a29;stroke-width:2.10820007" />
    </g>
    <g
   id="g50">
     <path
   d="m 106.54,32.5247 c 0,0 -12.954,4.7498 -6.3246,19.3294 0,0 14.4526,-6.2738 6.3246,-19.3294 z"
   id="_186501032"
   style="fill:#fefefe;stroke:#2b2a29;stroke-width:2.10820007" />
     <line
   id="_186500984"
   class="fil1 str0"
   x1="106.54"
   y1="32.5247"
   x2="100.216"
   y2="51.854099"
   style="fill:none;stroke:#2b2a29;stroke-width:2.10820007" />
    </g>
    <g
   id="g54">
     <path
   d="m 94.8563,57.4167 c 0,0 -1.2954,13.7414 14.732,14.0208 0,0 0.5334,-15.7226 -14.732,-14.0208 z"
   id="_186500864"
   style="fill:#fefefe;stroke:#2b2a29;stroke-width:2.10820007" />
     <line
   id="_186500816"
   class="fil1 str0"
   x1="94.8563"
   y1="57.416698"
   x2="109.588"
   y2="71.4375"
   style="fill:none;stroke:#2b2a29;stroke-width:2.10820007" />
    </g>
    <g
   id="g58">
     <path
   d="m 112.103,84.7725 c 0,0 -13.1064,-4.3688 -16.9926,11.176 0,0 15.1892,4.0894 16.9926,-11.176 z"
   id="_186500696"
   style="fill:#fefefe;stroke:#2b2a29;stroke-width:2.10820007" />
     <line
   id="_186500648"
   class="fil1 str0"
   x1="112.103"
   y1="84.772499"
   x2="95.110298"
   y2="95.948502"
   style="fill:none;stroke:#2b2a29;stroke-width:2.10820007" />
    </g>
    <g
   id="g62">
     <path
   d="m 88.3285,96.4311 c 0,0 -10.6426,8.763 0.4318,20.32 0,0 11.5316,-10.6934 -0.4318,-20.32 z"
   id="_186500528"
   style="fill:#fefefe;stroke:#2b2a29;stroke-width:2.10820007" />
     <line
   id="_186500480"
   class="fil1 str0"
   x1="88.328499"
   y1="96.431099"
   x2="88.7603"
   y2="116.751"
   style="fill:none;stroke:#2b2a29;stroke-width:2.10820007" />
    </g>
    <g
   id="g66">
     <path
   d="m 80.1243,127.622 c 0,0 -2.7686,-13.5128 -18.161,-9.0932 0,0 4.064,15.1892 18.161,9.0932 z"
   id="_186500360"
   style="fill:#fefefe;stroke:#2b2a29;stroke-width:2.10820007" />
     <line
   id="_186500312"
   class="fil1 str0"
   x1="80.124298"
   y1="127.622"
   x2="61.963299"
   y2="118.529"
   style="fill:none;stroke:#2b2a29;stroke-width:2.10820007" />
    </g>
   </g>
   <g
   id="g70">
    <path
   d="m 32.4993,8.6741 c -1.2446,0 -2.2606,1.016 -2.2606,2.2606 0,1.2446 1.016,2.2352 2.2606,2.2352 1.2446,0 2.2352,-0.9906 2.2352,-2.2352 0,-1.2446 -0.9906,-2.2606 -2.2352,-2.2606 z"
   id="_186500168"
   style="fill:#fefefe;stroke:#2b2a29;stroke-width:1.60020006" />
    <path
   d="m 24.3713,33.0327 c -1.2192,0 -2.2352,0.9906 -2.2352,2.2352 0,1.2446 1.016,2.2352 2.2352,2.2352 1.2446,0 2.2606,-0.9906 2.2606,-2.2352 0,-1.2446 -1.016,-2.2352 -2.2606,-2.2352 z"
   id="_186500096"
   style="fill:#fefefe;stroke:#2b2a29;stroke-width:1.60020006" />
    <path
   d="m 10.9855,27.3685 c -1.2446,0 -2.2606,1.016 -2.2606,2.2606 0,1.2446 1.016,2.2352 2.2606,2.2352 1.2192,0 2.2352,-0.9906 2.2352,-2.2352 0,-1.2446 -1.016,-2.2606 -2.2352,-2.2606 z"
   id="_186500024"
   style="fill:#fefefe;stroke:#2b2a29;stroke-width:1.60020006" />
    <path
   d="m 3.0353,49.4411 c -1.2446,0 -2.2352,0.9906 -2.2352,2.2352 0,1.2446 0.9906,2.2352 2.2352,2.2352 1.2446,0 2.2352,-0.9906 2.2352,-2.2352 0,-1.2446 -0.9906,-2.2352 -2.2352,-2.2352 z"
   id="_186499952"
   style="fill:#fefefe;stroke:#2b2a29;stroke-width:1.60020006" />
    <path
   d="m 15.0241,71.9963 c -1.2446,0 -2.2352,1.016 -2.2352,2.2606 0,1.2446 0.9906,2.2352 2.2352,2.2352 1.2446,0 2.2606,-0.9906 2.2606,-2.2352 0,-1.2446 -1.016,-2.2606 -2.2606,-2.2606 z"
   id="_186499880"
   style="fill:#fefefe;stroke:#2b2a29;stroke-width:1.60020006" />
    <path
   d="m 3.2131,76.5937 c -1.2446,0 -2.2352,1.016 -2.2352,2.2352 0,1.2446 0.9906,2.2606 2.2352,2.2606 1.2446,0 2.2352,-1.016 2.2352,-2.2606 0,-1.2192 -0.9906,-2.2352 -2.2352,-2.2352 z"
   id="_186499808"
   style="fill:#fefefe;stroke:#2b2a29;stroke-width:1.60020006" />
    <path
   d="m 10.4521,99.8855 c -1.2446,0 -2.2606,0.9906 -2.2606,2.2352 0,1.2446 1.016,2.2352 2.2606,2.2352 1.2446,0 2.2352,-0.9906 2.2352,-2.2352 0,-1.2446 -0.9906,-2.2352 -2.2352,-2.2352 z"
   id="_186499736"
   style="fill:#fefefe;stroke:#2b2a29;stroke-width:1.60020006" />
    <path
   d="m 35.6743,108.166 c -1.2446,0 -2.2606,1.016 -2.2606,2.2352 0,1.2446 1.016,2.2606 2.2606,2.2606 1.2446,0 2.2352,-1.016 2.2352,-2.2606 0,-1.2192 -0.9906,-2.2352 -2.2352,-2.2352 z"
   id="_186499664"
   style="fill:#fefefe;stroke:#2b2a29;stroke-width:1.60020006" />
    <path
   d="m 30.2133,119.977 c -1.2446,0 -2.2606,1.016 -2.2606,2.2606 0,1.2446 1.016,2.2352 2.2606,2.2352 1.2192,0 2.2352,-0.9906 2.2352,-2.2352 0,-1.2446 -1.016,-2.2606 -2.2352,-2.2606 z"
   id="_186499592"
   style="fill:#fefefe;stroke:#2b2a29;stroke-width:1.60020006" />
    <path
   d="m 51.1937,126.86 c -1.2446,0 -2.2352,1.016 -2.2352,2.2606 0,1.2192 0.9906,2.2352 2.2352,2.2352 1.2446,0 2.2352,-1.016 2.2352,-2.2352 0,-1.2446 -0.9906,-2.2606 -2.2352,-2.2606 z"
   id="_186499520"
   style="fill:#fefefe;stroke:#2b2a29;stroke-width:1.60020006" />
    <path
   d="m 81.1657,8.6741 c 1.2446,0 2.2606,1.016 2.2606,2.2606 0,1.2446 -1.016,2.2352 -2.2606,2.2352 -1.2192,0 -2.2352,-0.9906 -2.2352,-2.2352 0,-1.2446 1.016,-2.2606 2.2352,-2.2606 z"
   id="_186499448"
   style="fill:#fefefe;stroke:#2b2a29;stroke-width:1.60020006" />
    <path
   d="m 89.2937,33.0327 c 1.2446,0 2.2352,0.9906 2.2352,2.2352 0,1.2446 -0.9906,2.2352 -2.2352,2.2352 -1.2446,0 -2.2352,-0.9906 -2.2352,-2.2352 0,-1.2446 0.9906,-2.2352 2.2352,-2.2352 z"
   id="_186499376"
   style="fill:#fefefe;stroke:#2b2a29;stroke-width:1.60020006" />
    <path
   d="m 102.705,27.3685 c 1.2192,0 2.2352,1.016 2.2352,2.2606 0,1.2446 -1.016,2.2352 -2.2352,2.2352 -1.2446,0 -2.2606,-0.9906 -2.2606,-2.2352 0,-1.2446 1.016,-2.2606 2.2606,-2.2606 z"
   id="_186499304"
   style="fill:#fefefe;stroke:#2b2a29;stroke-width:1.60020006" />
    <path
   d="m 110.63,49.4411 c 1.2446,0 2.2606,0.9906 2.2606,2.2352 0,1.2446 -1.016,2.2352 -2.2606,2.2352 -1.2446,0 -2.2352,-0.9906 -2.2352,-2.2352 0,-1.2446 0.9906,-2.2352 2.2352,-2.2352 z"
   id="_186499232"
   style="fill:#fefefe;stroke:#2b2a29;stroke-width:1.60020006" />
    <path
   d="m 98.6409,71.9963 c 1.2446,0 2.2352,1.016 2.2352,2.2606 0,1.2446 -0.9906,2.2352 -2.2352,2.2352 -1.2446,0 -2.2352,-0.9906 -2.2352,-2.2352 0,-1.2446 0.9906,-2.2606 2.2352,-2.2606 z"
   id="_186499160"
   style="fill:#fefefe;stroke:#2b2a29;stroke-width:1.60020006" />
    <path
   d="m 110.452,76.5937 c 1.2446,0 2.2606,1.016 2.2606,2.2352 0,1.2446 -1.016,2.2606 -2.2606,2.2606 -1.2446,0 -2.2352,-1.016 -2.2352,-2.2606 0,-1.2192 0.9906,-2.2352 2.2352,-2.2352 z"
   id="_186499088"
   style="fill:#fefefe;stroke:#2b2a29;stroke-width:1.60020006" />
    <path
   d="m 103.238,99.8855 c 1.2192,0 2.2352,0.9906 2.2352,2.2352 0,1.2446 -1.016,2.2352 -2.2352,2.2352 -1.2446,0 -2.2606,-0.9906 -2.2606,-2.2352 0,-1.2446 1.016,-2.2352 2.2606,-2.2352 z"
   id="_186499016"
   style="fill:#fefefe;stroke:#2b2a29;stroke-width:1.60020006" />
    <path
   d="m 77.9907,108.166 c 1.2446,0 2.2606,1.016 2.2606,2.2352 0,1.2446 -1.016,2.2606 -2.2606,2.2606 -1.2192,0 -2.2352,-1.016 -2.2352,-2.2606 0,-1.2192 1.016,-2.2352 2.2352,-2.2352 z"
   id="_186498944"
   style="fill:#fefefe;stroke:#2b2a29;stroke-width:1.60020006" />
    <path
   d="m 83.4771,119.977 c 1.2446,0 2.2352,1.016 2.2352,2.2606 0,1.2446 -0.9906,2.2352 -2.2352,2.2352 -1.2446,0 -2.2606,-0.9906 -2.2606,-2.2352 0,-1.2446 1.016,-2.2606 2.2606,-2.2606 z"
   id="_186498872"
   style="fill:#fefefe;stroke:#2b2a29;stroke-width:1.60020006" />
    <path
   d="m 62.4713,126.86 c 1.2446,0 2.2606,1.016 2.2606,2.2606 0,1.2192 -1.016,2.2352 -2.2606,2.2352 -1.2192,0 -2.2352,-1.016 -2.2352,-2.2352 0,-1.2446 1.016,-2.2606 2.2352,-2.2606 z"
   id="_186498824"
   style="fill:#fefefe;stroke:#2b2a29;stroke-width:1.60020006" />
   </g>
   <g
   id="g92">
    <path
   d="m 66.5353,94.3483 c 0,0 -2.1082,4.4196 -4.4196,6.8834 -2.286,2.4892 -3.8862,5.1816 -4.572,8.6614 -0.1778,0.8636 -0.3556,1.2192 -1.2446,1.2192 -0.8636,0 -1.0414,-0.3556 -1.2192,-1.2192 -0.7112,-3.4798 -2.3114,-6.1722 -4.5974,-8.6614 -2.286,-2.4638 -4.3942,-6.8834 -4.3942,-6.8834 l -4.4196,0 0,-4.9276 3.5306,0 0,-1.4986 5.6388,0 0,1.4986 1.6256,0 0,4.8768 -1.27,0 c 0.889,2.3622 2.8194,3.1496 2.8194,3.1496 l 0,-3.1496 -1.5494,0 0,-4.8768 1.1938,0 c 0,0 0.1016,-4.064 -2.8194,-4.2418 l 0,2.7432 -5.6388,0 0,-3.9624 c 0,0 -4.699,-0.381 -6.8834,-3.9116 -0.1016,-0.127 -0.3556,-0.4826 -0.4318,-0.635 l -0.6096,0 c 0,-0.5334 -0.0254,-1.8542 -0.0254,-2.5146 0,-1.143 0,-1.7526 0,-2.6416 l 0.7366,0 c 0.1016,-0.5842 0.381,-0.9398 0.4572,-1.0668 1.2954,-2.0574 3.2258,-2.9972 3.2258,-2.9972 0,0 0.8382,-9.1186 -0.1778,-14.4526 -1.4224,-7.4168 -4.2418,-9.525 -4.2418,-9.525 l 0,43.2054 4.4196,0 0,4.9276 -10.0584,0 0,-59.2582 c 0,0 15.1638,4.953 15.1638,24.003 0,15.1638 0,15.1638 0,15.1638 0,0 -2.3622,-0.3556 -2.4638,1.9304 -0.0762,1.9558 2.6416,1.9558 2.6416,1.9558 0,0 5.6388,-8.128 5.6388,-17.1196 0,-8.9916 -0.6858,-13.589 -0.6858,-16.2306 0,-2.6416 1.1176,-13.4366 3.7084,-17.272 0.6858,-1.0668 0.1524,-0.5334 0.6858,-0.5334 0.5334,0 0,-0.5334 0.7112,0.5334 2.5654,3.8354 3.7084,14.6304 3.7084,17.272 0,2.6416 -0.7112,7.239 -0.7112,16.2306 0,2.6924 0.508,5.334 1.2192,7.6708 l -4.9276,2.2098 c 0,0.5334 -2.9972,6.35 -3.175,7.4168 -0.1778,1.0414 -0.3556,0.6858 0.7112,1.5748 1.0668,0.889 2.4638,1.7526 2.4638,2.4638 0,-0.7112 1.4224,-1.5748 2.4892,-2.4638 1.0414,-0.889 0.8636,-0.5334 0.6858,-1.5748 -0.1778,-1.0668 -3.175,-6.8834 -3.175,-7.4168 l 4.9276,-2.2098 c 1.6764,5.461 4.4196,9.4488 4.4196,9.4488 0,0 2.7178,0 2.667,-1.9558 -0.1016,-2.286 -2.4892,-1.9304 -2.4892,-1.9304 0,0 0,0 0,-15.1638 0,-19.05 15.1892,-24.003 15.1892,-24.003 l 0,59.2582 -10.0584,0 0,-4.9276 4.3942,0 0,-43.2054 c 0,0 -2.8194,2.1082 -4.2164,9.525 -1.016,5.334 -0.1778,14.4526 -0.1778,14.4526 0,0 1.905,0.9398 3.2004,2.9972 0.0762,0.127 0.3556,0.4826 0.4826,1.0668 l 0.7366,0 c -0.0254,0.889 -0.0254,1.4986 -0.0254,2.6416 0,0.6604 -0.0254,1.9812 0,2.5146 l -0.635,0 c -0.0762,0.1524 -0.3302,0.508 -0.4064,0.635 -2.1844,3.5306 -6.8834,3.9116 -6.8834,3.9116 l 0,3.9624 -5.6388,0 0,-2.7432 c -2.921,0.1778 -2.8448,4.2418 -2.8448,4.2418 l 1.1938,0 0,4.8768 -1.524,0 0,3.1496 c 0,0 1.9304,-0.7874 2.8194,-3.1496 l -1.2954,0 0,-4.8768 1.651,0 0,-1.4986 5.6388,0 0,1.4986 3.5306,0 0,4.9276 -4.4196,0 z"
   id="_186498704"
   style="fill:#2b2a29" />
    <g
   id="g95">
     <path
   d="m 56.2991,84.5439 c 0,-1.0668 2.159,-2.3876 3.7592,-3.7338 1.6002,-1.3462 1.3462,-0.8128 1.0668,-2.413 -0.254,-1.6002 -4.826,-10.4648 -4.826,-11.2522 0,0.7874 -4.5466,9.652 -4.826,11.2522 -0.254,1.6002 -0.5334,1.0668 1.0922,2.413 1.6002,1.3462 3.7338,2.667 3.7338,3.7338 z"
   id="_186498632"
   style="fill:none;stroke:#fefefe;stroke-width:0.5334" />
     <path
   d="m 49.7713,83.3247 0,7.4168 4.953,0 c 0,0 1.143,-6.604 -4.953,-7.4168 z"
   id="_186498560"
   style="fill:none;stroke:#fefefe;stroke-width:0.5334" />
     <path
   d="m 49.7205,93.3831 5.2578,0 0,5.8674 c 0,0 -3.2512,-0.6604 -5.2578,-5.8674 z"
   id="_186498488"
   style="fill:none;stroke:#fefefe;stroke-width:0.5334" />
     <path
   d="m 62.8269,83.3247 0,7.4168 -4.9276,0 c 0,0 -1.143,-6.604 4.9276,-7.4168 z"
   id="_186498416"
   style="fill:none;stroke:#fefefe;stroke-width:0.5334" />
     <path
   d="m 62.9031,93.3831 -5.2578,0 0,5.8674 c 0,0 3.2512,-0.6604 5.2578,-5.8674 z"
   id="_186498344"
   style="fill:none;stroke:#fefefe;stroke-width:0.5334" />
     <path
   d="m 36.1569,77.9653 0,12.446 10.3632,0 0,-7.5184 c 0,0 -6.858,-0.635 -8.1026,-4.9276 l -2.2606,0 z"
   id="_186498272"
   style="fill:none;stroke:#fefefe;stroke-width:0.5334" />
     <path
   d="m 38.3159,75.5777 c 0.635,-3.3274 4.4958,-4.6482 4.4958,-4.6482 0,0 0.7874,-11.7094 -0.5842,-17.3228 -1.905,-7.7724 -6.0706,-9.652 -6.0706,-9.652 l 0,31.623 2.159,0 z"
   id="_186498200"
   style="fill:none;stroke:#fefefe;stroke-width:0.5334" />
     <path
   d="m 76.4667,77.9653 0,12.446 -10.3632,0 0,-7.5184 c 0,0 6.858,-0.635 8.1026,-4.9276 l 2.2606,0 z"
   id="_186498128"
   style="fill:none;stroke:#fefefe;stroke-width:0.5334" />
     <path
   d="m 74.3077,75.5777 c -0.635,-3.3274 -4.4958,-4.6482 -4.4958,-4.6482 0,0 -0.7874,-11.7094 0.5842,-17.3228 1.905,-7.7724 6.0706,-9.652 6.0706,-9.652 l 0,31.623 -2.159,0 z"
   id="_186496856"
   style="fill:none;stroke:#fefefe;stroke-width:0.5334" />
     <path
   d="m 56.2991,29.4513 c 0.5334,0 -0.3556,-0.5334 0.3556,0.5334 2.5654,3.8354 2.6416,12.1666 2.6416,14.8082 0,2.6416 -0.1524,6.731 -0.6858,15.6972 -0.5334,8.636 6.35,19.4056 6.35,19.4056 0,0 4.7498,-0.1778 4.7498,-3.7084 0,-2.9972 -2.4638,-2.9972 -2.4638,-2.9972 0,0 0,1.0668 0,-14.097 0,-16.9418 12.3444,-21.5392 12.3444,-21.5392 l 0,55.753 -13.7668,0 c 0,0 -2.1082,4.3942 -4.3942,6.8834 -2.3114,2.4638 -3.9116,4.4704 -4.5974,7.9248 -0.1778,0.889 0.3556,1.2446 -0.5334,1.2446 -0.8636,0 -0.3556,-0.3556 -0.5334,-1.2446 -0.6858,-3.4544 -2.286,-5.461 -4.572,-7.9248 -2.286,-2.4892 -4.4196,-6.8834 -4.4196,-6.8834 l -13.7414,0 0,-55.753 c 0,0 12.3444,4.5974 12.3444,21.5392 0,15.1638 0,14.097 0,14.097 0,0 -2.4638,0 -2.4638,2.9972 0,3.5306 4.7498,3.7084 4.7498,3.7084 0,0 6.8834,-10.7696 6.35,-19.4056 -0.5588,-8.9662 -0.7112,-13.0556 -0.7112,-15.6972 0,-2.6416 0.0762,-10.9728 2.6416,-14.8082 0.7112,-1.0668 -0.1778,-0.5334 0.3556,-0.5334 z"
   id="_186496880"
   style="fill:none;stroke:#fefefe;stroke-width:0.5334" />
    </g>
   </g>
  </g>
 </g>
</svg>