<?xml version="1.0" encoding="utf-8"?>
<!-- Generator: Adobe Illustrator 19.0.0, SVG Export Plug-In . SVG Version: 6.00 Build 0)  -->
<svg version="1.1" xmlns="http://www.w3.org/2000/svg" xmlns:xlink="http://www.w3.org/1999/xlink" x="0px" y="0px"
	 viewBox="0 0 64 64" style="enable-background:new 0 0 64 64;" xml:space="preserve">
<style type="text/css">
	.st0{display:none;}
	.st1{display:inline;fill:#FFFFFF;}
	.st2{display:inline;fill:none;stroke:#4C5159;stroke-width:2;stroke-miterlimit:10;}
	.st3{display:inline;}
	.st4{fill:none;stroke:#4C5159;stroke-width:2;stroke-miterlimit:10;}
	.st5{fill:none;stroke:#4C5159;stroke-width:2;stroke-miterlimit:10;stroke-dasharray:2;}
	.st6{display:inline;fill:none;stroke:#4C5159;stroke-width:2;stroke-miterlimit:10;stroke-dasharray:2;}
	.st7{fill:#4C5159;}
	.st8{font-family:'Montserrat-Bold';}
	.st9{font-size:7px;}
	.st10{display:inline;fill:#74E2F0;}
	.st11{display:inline;fill:#FBDA73;}
	.st12{display:inline;fill:#F08E70;}
</style>
<g id="bg" class="st0">
	<rect id="XMLID_119_" x="-218" y="-268.2" class="st1" width="500" height="600.3"/>
</g>
<g id="guideline" class="st0">
</g>
<g id="icons">
	<g id="XMLID_51_" class="st0">
		<path id="XMLID_153_" class="st2" d="M14.4,55V42c0-0.9,0.6-1.6,1.4-1.9L27,36.2v-4.3"/>
		<path id="XMLID_157_" class="st2" d="M49.6,55V42c0-0.9-0.6-1.6-1.4-1.9L37,36.2v-4.3"/>
		<path id="XMLID_162_" class="st2" d="M40.4,19.3l0.1-1.8c0-4.7-3.8-8.5-8.5-8.5c-4.7,0-8.5,3.8-8.5,8.5l0.1,1.8h-0.1
			c-1,0-1.7,0.9-1.5,1.9l0.1,0.3c0.2,0.9,1,1.6,1.9,1.7l0.4,4.5c0.1,1.4,0.9,2.6,2.1,3.3l4.1,2.7h2.7l4.3-2.7c1.2-0.6,2-1.9,2.1-3.3
			l0.4-4.5c0.8-0.2,1.4-0.9,1.6-1.7l0.1-0.3C42,20.3,41.3,19.4,40.4,19.3z"/>
		<line id="XMLID_7_" class="st2" x1="18.4" y1="53.3" x2="24.4" y2="53.3"/>
		<line id="XMLID_166_" class="st2" x1="22.4" y1="50.3" x2="22.4" y2="53.3"/>
		<polyline id="XMLID_14_" class="st2" points="27,36.2 30.2,41.1 33.8,41.1 37,36.2 		"/>
		<path id="XMLID_9_" class="st2" d="M20.8,47.5h-2.4v-5.1c0-2.3,1.9-4.2,4.2-4.2h0.5c2.3,0,4.2,1.9,4.2,4.2v5.1h-2.7"/>
		<path id="XMLID_4_" class="st2" d="M22,37.5c0-2.5,2-4.5,4.5-4.5"/>
		<path id="XMLID_48_" class="st2" d="M37,33c2.5,0,4.5,2,4.5,4.5v5.3"/>
		<circle id="XMLID_13_" class="st2" cx="41.8" cy="46.2" r="3.1"/>
		<line id="XMLID_50_" class="st2" x1="40.6" y1="46.2" x2="43" y2="46.2"/>
		<line id="XMLID_62_" class="st2" x1="23.5" y1="17.4" x2="28.3" y2="17.4"/>
		<line id="XMLID_64_" class="st2" x1="40" y1="17.4" x2="34.9" y2="17.4"/>
		<line id="XMLID_72_" class="st2" x1="24.6" y1="14.4" x2="28.5" y2="14.4"/>
		<line id="XMLID_65_" class="st2" x1="40" y1="14.4" x2="35.2" y2="14.4"/>
		<circle id="XMLID_58_" class="st2" cx="31.9" cy="15.9" r="3.5"/>
	</g>
	<g id="XMLID_78_" class="st0">
		<path id="XMLID_70_" class="st2" d="M14.4,54.7v-6.1c0-0.9,0.6-1.6,1.4-1.9L27,42.8v-4.3"/>
		<path id="XMLID_68_" class="st2" d="M49.6,54.7v-6.1c0-0.9-0.6-1.6-1.4-1.9L37,42.8v-4.3"/>
		<path id="XMLID_53_" class="st2" d="M40.6,23.1l-0.1,2.8c0.9,0.1,1.5,1,1.3,1.9l-0.1,0.3c-0.2,0.8-0.8,1.4-1.6,1.7l-0.4,4.5
			c-0.1,1.4-0.9,2.6-2.1,3.3l-4.3,2.7h-2.7l-4.1-2.7c-1.2-0.6-2-1.9-2.1-3.3L24,29.9c-0.9-0.2-1.6-0.8-1.9-1.7L22,27.8
			c-0.2-1,0.5-1.9,1.5-1.9h0.1l-0.1-2.8h4.6c2.1,0,4-1,5.1-2.8l0.7-1h0.9l1.1,1.9c0.7,1.2,1.9,1.9,3.3,1.9L40.6,23.1z"/>
		<polyline id="XMLID_59_" class="st2" points="27,42.8 31.2,52.7 32.8,52.7 37,42.8 		"/>
		<path id="XMLID_55_" class="st2" d="M41.2,17.1c1,1.6,1.5,3.5,1.5,5.5v1.8"/>
		<path id="XMLID_54_" class="st2" d="M21.3,24.3v-1.8c0-2.1,0.6-4.1,1.7-5.7"/>
		<path id="XMLID_56_" class="st2" d="M21.6,31.2v1.3c0,0.5-0.1,0.9-0.3,1.3L19.1,38c-0.7,0.9-1.7,1.4-2.8,1.4l0,0v0.9h8.8"/>
		<path id="XMLID_57_" class="st2" d="M42.4,31.2v1.3c0,0.5,0.1,0.9,0.3,1.3l2.2,4.2c0.7,0.9,1.7,1.4,2.8,1.4l0,0v0.9h-8.8"/>
		<path id="XMLID_74_" class="st2" d="M39.3,17.1h-14c-0.1,0-0.2-0.1-0.3-0.2l-0.9-7.2c0-0.2,0.1-0.3,0.3-0.3h15.9
			c0.2,0,0.3,0.1,0.3,0.3l-0.9,7.2C39.5,17,39.4,17.1,39.3,17.1z"/>
		<g id="XMLID_75_" class="st3">
			<line id="XMLID_76_" class="st4" x1="29.6" y1="13.2" x2="34.9" y2="13.2"/>
			<line id="XMLID_77_" class="st4" x1="32.3" y1="15.8" x2="32.3" y2="10.6"/>
		</g>
	</g>
	<g id="XMLID_100_" class="st0">
		<polyline id="XMLID_69_" class="st2" points="20.3,32.5 11.2,32.5 11.2,54.6 31.3,54.6 		"/>
		<polyline id="XMLID_80_" class="st2" points="44.3,32.5 53.8,32.5 53.8,54.6 32.7,54.6 		"/>
		<rect id="XMLID_942_" x="22.1" y="20.5" class="st2" width="20.4" height="34.1"/>
		<polyline id="XMLID_73_" class="st2" points="15.4,35.6 15.4,41.3 18.7,41.3 		"/>
		<polyline id="XMLID_82_" class="st2" points="25.6,26.4 25.6,32.1 28.9,32.1 		"/>
		<polyline id="XMLID_85_" class="st2" points="31.3,26.4 31.3,32.1 34.6,32.1 		"/>
		<polyline id="XMLID_86_" class="st2" points="37,26.4 37,32.1 40.3,32.1 		"/>
		<polyline id="XMLID_91_" class="st2" points="25.6,36.5 25.6,42.3 28.9,42.3 		"/>
		<polyline id="XMLID_88_" class="st2" points="31.3,36.5 31.3,42.3 34.6,42.3 		"/>
		<polyline id="XMLID_87_" class="st2" points="37,36.5 37,42.3 40.3,42.3 		"/>
		<polyline id="XMLID_81_" class="st2" points="15.4,44.7 15.4,50.4 18.7,50.4 		"/>
		<polyline id="XMLID_84_" class="st2" points="49.2,35.6 49.2,41.3 45.9,41.3 		"/>
		<polyline id="XMLID_83_" class="st2" points="49.2,44.7 49.2,50.4 45.9,50.4 		"/>
		<polyline id="XMLID_95_" class="st2" points="27.9,54.9 27.9,47.6 36.1,47.6 36.1,54.6 		"/>
		<line id="XMLID_96_" class="st2" x1="7.8" y1="54.6" x2="56.2" y2="54.6"/>
		<g id="XMLID_99_" class="st3">
			<line id="XMLID_97_" class="st4" x1="30.2" y1="9.1" x2="30.2" y2="15.4"/>
			<line id="XMLID_93_" class="st4" x1="34.3" y1="9.1" x2="34.3" y2="15.4"/>
			<line id="XMLID_98_" class="st4" x1="30.2" y1="12.3" x2="34.3" y2="12.3"/>
		</g>
		<polyline id="XMLID_101_" class="st2" points="11.2,32.5 9.2,30.3 9.2,28.1 20.3,28.1 		"/>
		<polyline id="XMLID_104_" class="st2" points="41.8,20.5 43.9,18.3 43.9,16.1 32.7,16.1 31.1,16.1 20,16.1 20,18.3 22,20.5 		"/>
		<polyline id="XMLID_102_" class="st2" points="53.4,32.5 55.4,30.3 55.4,28.1 44.3,28.1 		"/>
	</g>
	<g id="XMLID_105_" class="st0">
		<path id="XMLID_152_" class="st2" d="M39.1,14.9c0-2.5-2-4.6-4.6-4.6c-1.3,0-2.4,0.5-3.3,1.4c-0.8-0.8-2-1.4-3.3-1.4
			c-2.5,0-4.6,2-4.6,4.6c0,1.2,0.5,2.3,1.3,3.2l6.5,6.5l6.7-6.6c0.1-0.1,0.3-0.3,0.3-0.3C38.7,16.8,39.1,15.9,39.1,14.9z"/>
		<g id="XMLID_243_" class="st3">
			<path id="XMLID_252_" class="st4" d="M40.3,20.1h12.2c0.6,0,1,0.4,1,1v24.8c0,0.6-0.4,1-1,1h-41c-0.6,0-1-0.4-1-1V21.1
				c0-0.6,0.4-1,1-1h10"/>
			<line id="XMLID_241_" class="st4" x1="10.5" y1="41.1" x2="53.5" y2="41.1"/>
			<line id="XMLID_242_" class="st4" x1="21.3" y1="46.3" x2="21.3" y2="53.7"/>
			<line id="XMLID_240_" class="st4" x1="42.3" y1="46.3" x2="42.3" y2="53.7"/>
			<line id="XMLID_244_" class="st4" x1="17.5" y1="53.7" x2="46.2" y2="53.7"/>
		</g>
		<polyline id="XMLID_106_" class="st2" points="13,30.8 19,30.8 21.7,24.8 24.3,35.8 27.7,27.9 28.7,30.9 34.5,30.9 36.6,24.4 
			39.3,35.8 41.6,27.9 42.4,30.8 50.5,30.8 		"/>
	</g>
	<g id="XMLID_71_" class="st0">
		<polyline id="XMLID_89_" class="st2" points="15.7,33.5 32,49.7 47.9,33.9 		"/>
		<path id="XMLID_66_" class="st2" d="M50.7,29.8c0.5-1.3,0.8-2.7,0.8-4.1c0-6.3-5.1-11.4-11.4-11.4c-3.2,0-6.1,1.3-8.1,3.4
			c-2.1-2.1-4.9-3.4-8.1-3.4c-6.3,0-11.4,5.1-11.4,11.4c0,1.3,0.2,2.5,0.6,3.7"/>
		<polyline id="XMLID_67_" class="st2" points="10,31.6 21.4,31.6 23,25.9 25.4,36.3 26.8,28.8 27.7,31.7 34.1,31.7 36.1,25.5 
			38.7,36.3 40.9,28.8 41.6,31.6 54,31.6 		"/>
	</g>
	<g id="XMLID_109_">
		<path id="XMLID_116_" class="st4" d="M42.5,24.1c0-3.4-2.7-6.1-6.1-6.1c-1.7,0-3.3,0.7-4.4,1.8c-1.1-1.1-2.7-1.8-4.4-1.8
			c-3.4,0-6.1,2.7-6.1,6.1c0,1.7,0.7,3.1,1.7,4.3L32,37l9-8.9c0.1-0.1,0.4-0.4,0.4-0.4C42.1,26.7,42.5,25.4,42.5,24.1z"/>
		<path id="XMLID_327_" class="st4" d="M49.1,54.3v-6.9c0,0,0-0.1-0.1-0.1H34.7c0,0-0.1,0-0.1,0.1v6.9"/>
		<path id="XMLID_326_" class="st4" d="M37.1,47.4l0-8.9c0.1-0.5,0.4-1.3,0.8-1.7l5.4-5.8c1.3-1.7,4.1,0.1,2.6,1.7l-4.3,6l2.1,0
			l5.2-5.6c0,0,0.3-3.4,0.4-3.9l-2.5-6.2c-0.4-1-0.5-2.2-0.1-3.3c0.3-0.8,0.7-1.5,1-1.7l4.3,10.7c0.2,0.4,0.1,6.2,0.1,6.2l-6,12.5"
			/>
		<path id="XMLID_325_" class="st4" d="M14.9,54.3v-6.9c0,0,0-0.1,0.1-0.1h14.3c0,0,0.1,0,0.1,0.1v6.9"/>
		<path id="XMLID_324_" class="st4" d="M26.9,47.4l0-8.9c-0.1-0.5-0.4-1.3-0.8-1.7l-5.4-5.8c-1.3-1.7-4.1,0.1-2.6,1.7l4.3,6l-2.1,0
			L15.1,33c0,0-0.3-3.4-0.4-3.9l2.5-6.2c0.4-1,0.5-2.2,0.1-3.3c-0.3-0.8-0.7-1.5-1-1.7l-4.3,10.7c-0.2,0.4-0.1,6.2-0.1,6.2l6,12.5"
			/>
		<path id="XMLID_108_" class="st5" d="M18.4,15.3c1.7-1.7,3.8-3.1,6.1-4.1s4.8-1.5,7.5-1.5s5.2,0.5,7.5,1.5s4.4,2.4,6.1,4.1"/>
	</g>
	<g id="XMLID_111_" class="st0">
		<circle id="XMLID_321_" class="st2" cx="16.6" cy="42.2" r="3.4"/>
		<circle id="XMLID_333_" class="st2" cx="43.8" cy="42.2" r="3.4"/>
		<path id="XMLID_336_" class="st2" d="M22.5,42.3h11.9c0.1,0,0.1-0.1,0.1-0.1V18.5c0-0.1-0.1-0.1-0.1-0.1H8.7
			c-0.1,0-0.1,0.1-0.1,0.1v23.7c0,0.1,0.1,0.1,0.1,0.1h3"/>
		<path id="XMLID_337_" class="st2" d="M38.9,42.2h-1.4V22.6c0-0.1,0.1-0.3,0.3-0.3h10c0.1,0,0.2,0.1,0.2,0.1l3.4,7.7l3.9,2
			c0.1,0,0.1,0.1,0.1,0.2V42c0,0.1-0.1,0.2-0.2,0.2h-6"/>
		<polyline id="XMLID_334_" class="st2" points="42,22.4 42,30.8 49.1,30.8 		"/>
		<line id="XMLID_338_" class="st2" x1="41" y1="34.3" x2="43.1" y2="34.3"/>
		<line id="XMLID_335_" class="st2" x1="52.5" y1="37" x2="54.7" y2="37"/>
		<line id="XMLID_340_" class="st2" x1="21.6" y1="38.7" x2="34.3" y2="38.7"/>
		<polyline id="XMLID_341_" class="st2" points="8.6,34.2 11.7,34.2 11.7,37.6 8.6,37.6 		"/>
		<line id="XMLID_94_" class="st2" x1="10.8" y1="22.4" x2="13.2" y2="22.4"/>
		<line id="XMLID_92_" class="st2" x1="29.8" y1="22.4" x2="32.2" y2="22.4"/>
		<path id="XMLID_112_" class="st2" d="M41.7,21.7V21c0-0.8,0.6-1.4,1.4-1.4l0,0c0.8,0,1.4,0.6,1.4,1.4v0.7"/>
		<path id="XMLID_134_" class="st2" d="M26.3,26.1h-3.1V23c0-0.1-0.1-0.2-0.2-0.2h-2.8c-0.1,0-0.2,0.1-0.2,0.2v3.1h-3.1
			c-0.1,0-0.2,0.1-0.2,0.2v2.8c0,0.1,0.1,0.2,0.2,0.2h3.1v3.1c0,0.1,0.1,0.2,0.2,0.2H23c0.1,0,0.2-0.1,0.2-0.2v-3.1h3.1
			c0.1,0,0.2-0.1,0.2-0.2v-2.8C26.5,26.2,26.4,26.1,26.3,26.1z"/>
	</g>
	<g id="XMLID_148_" class="st0">
		<polyline id="XMLID_141_" class="st2" points="36.4,26 36.4,22.1 39.4,22.1 39.4,26 		"/>
		<line id="XMLID_138_" class="st2" x1="41" y1="23" x2="56.7" y2="23"/>
		<line id="XMLID_140_" class="st2" x1="19" y1="23" x2="34.7" y2="23"/>
		<circle id="XMLID_135_" class="st2" cx="11.6" cy="29.3" r="4.3"/>
		<path id="XMLID_120_" class="st2" d="M56.2,49.6c0,1.3-1,2.3-2.3,2.3H23.4"/>
		<line id="XMLID_117_" class="st2" x1="46.8" y1="47.2" x2="51.2" y2="51.5"/>
		<line id="XMLID_114_" class="st2" x1="36" y1="47.2" x2="31.7" y2="51.5"/>
		<path id="XMLID_133_" class="st2" d="M15.4,26.9h24.2c4.7,0,9.2,1.9,12.4,5.3l2.7,2.8c1.3,1.4,2.1,3.2,2.1,5.1l0,0
			c0,2.4-1.2,4.6-3.1,6l0,0c-1.3,0.9-2.8,1.4-4.3,1.4h-17c-2.8,0-5-2.3-5-5V31"/>
		<line id="XMLID_137_" class="st2" x1="27.8" y1="34.4" x2="14.9" y2="31.9"/>
		<path id="XMLID_136_" class="st2" d="M39.8,29.3V40c0,0.1,0.1,0.2,0.2,0.2h14"/>
		<g id="XMLID_139_" class="st3">
			<line id="XMLID_144_" class="st4" x1="30.2" y1="37.2" x2="36.3" y2="37.2"/>
			<line id="XMLID_146_" class="st4" x1="33.3" y1="40.2" x2="33.3" y2="34.1"/>
		</g>
		<line id="XMLID_150_" class="st2" x1="10.5" y1="29.3" x2="12.6" y2="29.3"/>
		<line id="XMLID_151_" class="st2" x1="41" y1="43.3" x2="43.7" y2="43.3"/>
		<g id="XMLID_149_" class="st3">
			<path id="XMLID_155_" class="st4" d="M33.8,17.7c0-1.5-0.6-2.9-1.6-3.9c-1-1-2.4-1.6-3.9-1.6c-1.5,0-2.9,0.6-3.9,1.6
				c-1,1-1.6,2.4-1.6,3.9h-7.5"/>
			<path id="XMLID_154_" class="st4" d="M33.6,14.8c0.7-0.7,1.7-1.2,2.8-1.2c1.1,0,2.1,0.4,2.8,1.2c0.7,0.7,1.2,1.7,1.2,2.8h5"/>
		</g>
		<path id="XMLID_158_" class="st2" d="M10.9,42.4c0.7-0.7,1.7-1.2,2.8-1.2c1.1,0,2.1,0.4,2.8,1.2c0.7,0.7,1.2,1.7,1.2,2.8h5"/>
	</g>
	<g id="XMLID_163_" class="st0">
		<g id="XMLID_159_" class="st3">
			<path id="XMLID_142_" class="st4" d="M37,20.7c-1.5,0-3.1,1.8-5,2c-1.9-0.2-3.5-2-5-2c-4.3,0-7,2.7-7,6.1c0,1.7,1.3,3.8,2.1,5.2
				c1.4,2.4,2.1,15.2,4.9,15.2c2.8,0,3.2-13.2,5-13.5c2.6,0.6,2.3,13.5,5,13.5c2.6,0,3.3-12.9,4.7-15.2c0.9-1.4,2.3-3.5,2.3-5.2
				C44,23.5,41.3,20.7,37,20.7z"/>
			<path id="XMLID_161_" class="st4" d="M40.6,27.6c0-1.8-1.4-3.3-3.8-3.3"/>
			<path id="XMLID_145_" class="st4" d="M32.2,22.7c-1.3,0.5-2.4,1.3-3.3,2.4"/>
		</g>
		<path id="XMLID_164_" class="st2" d="M32,11.4c11.4,0,20.6,9.2,20.6,20.6S43.4,52.6,32,52.6S11.4,43.4,11.4,32"/>
		<path id="XMLID_160_" class="st6" d="M11.4,32c0-11.4,9.2-20.6,20.6-20.6"/>
	</g>
	<g id="XMLID_187_" class="st0">
		<g id="XMLID_184_" class="st3">
			<path id="XMLID_170_" class="st4" d="M35.7,13.2c0-2.2-1.8-3.9-3.9-3.9c-2.2,0-3.9,1.8-3.9,3.9h-1.7c-1.2,0-2.1,0.9-2.1,2.1v3.9
				c0,0.1,0.1,0.1,0.1,0.1h15.2c0.1,0,0.1-0.1,0.1-0.1v-3.9c0-1.2-0.9-2.1-2.1-2.1H35.7z"/>
			<path id="XMLID_168_" class="st4" d="M41.6,15.5h5.1c0.1,0,0.2,0.1,0.2,0.2v31.7c0,0,0,0.1-0.1,0.1H16c0,0-0.1,0-0.1-0.1V15.7
				c0-0.1,0.1-0.2,0.2-0.2h5.8"/>
			<polyline id="XMLID_169_" class="st4" points="21.9,18 19.4,18 19.4,44.1 44.1,44.1 44.1,18 41.6,18 			"/>
			<line id="XMLID_172_" class="st4" x1="29.6" y1="24.2" x2="40.7" y2="24.2"/>
			<line id="XMLID_176_" class="st4" x1="29.6" y1="27.5" x2="40.7" y2="27.5"/>
			<line id="XMLID_177_" class="st4" x1="23.2" y1="30.8" x2="40.7" y2="30.8"/>
			<line id="XMLID_178_" class="st4" x1="23.2" y1="34" x2="40.7" y2="34"/>
			<line id="XMLID_179_" class="st4" x1="23.2" y1="37.3" x2="40.7" y2="37.3"/>
			<line id="XMLID_182_" class="st4" x1="23.2" y1="40.6" x2="40.7" y2="40.6"/>
			<g id="XMLID_167_">
				<line id="XMLID_173_" class="st4" x1="23.2" y1="26.2" x2="28.4" y2="26.2"/>
				<line id="XMLID_174_" class="st4" x1="25.8" y1="28.8" x2="25.8" y2="23.6"/>
			</g>
			<line id="XMLID_186_" class="st4" x1="31" y1="13" x2="32.6" y2="13"/>
		</g>
		<g id="XMLID_746_" class="st3">
			<polygon id="XMLID_735_" class="st4" points="46.2,51.1 48.2,52.9 46.2,54.6 16.9,54.6 16.9,51.1 			"/>
			<line id="XMLID_741_" class="st4" x1="13.5" y1="52.9" x2="16.4" y2="52.9"/>
			<line id="XMLID_743_" class="st4" x1="47.6" y1="52.9" x2="50.5" y2="52.9"/>
			<line id="XMLID_742_" class="st4" x1="33.8" y1="54.7" x2="33.8" y2="51.1"/>
			<line id="XMLID_736_" class="st4" x1="43.5" y1="54.7" x2="43.5" y2="51.1"/>
		</g>
	</g>
	<g id="XMLID_213_" class="st0">
		<path id="XMLID_220_" class="st2" d="M24.2,22.4l4.7,3c0.6,0.3,1.1,1.1,1.1,1.8V52"/>
		<path id="XMLID_219_" class="st2" d="M40,22.4l-4.9,3c-0.6,0.3-1.1,1.1-1.1,1.8V52"/>
		<path id="XMLID_217_" class="st2" d="M26.6,30.1c0.3,4-2.8,7.1-6.9,6.8l0,0c-4-0.3-6.2-3.8-6.8-7.8c-0.4-2.6,0.1-7.6,0.7-10.4
			c0.9-3.9,3.8-7.1,7.8-6.8l0,0c4,0.3,3.1,4.6,2.6,8.8C23.9,23.4,26.4,27.4,26.6,30.1z"/>
		<line id="XMLID_216_" class="st2" x1="19.5" y1="24.5" x2="22.4" y2="24.5"/>
		<line id="XMLID_215_" class="st2" x1="19.6" y1="20.2" x2="22.2" y2="21.5"/>
		<line id="XMLID_214_" class="st2" x1="20" y1="28.8" x2="22.6" y2="27.5"/>
		<path id="XMLID_212_" class="st2" d="M37.4,30.1c-0.3,4,2.8,7.1,6.9,6.8l0,0c4-0.3,6.2-3.8,6.8-7.8c0.4-2.6-0.1-7.6-0.7-10.4
			c-0.9-3.9-3.8-7.1-7.8-6.8l0,0c-4,0.3-3.1,4.6-2.6,8.8C40.1,23.4,37.6,27.4,37.4,30.1z"/>
		<line id="XMLID_211_" class="st2" x1="44.5" y1="24.5" x2="41.6" y2="24.5"/>
		<line id="XMLID_210_" class="st2" x1="44.4" y1="20.2" x2="41.8" y2="21.5"/>
		<line id="XMLID_209_" class="st2" x1="44" y1="28.8" x2="41.4" y2="27.5"/>
	</g>
	<g id="XMLID_221_" class="st0">
		<path id="XMLID_207_" class="st2" d="M28.7,43.7c0,4-0.7,5.7-4.6,6.8C20.7,51.4,11.3,53,11.3,49c0-6.8,1.7-13.8,4-17.4
			c2.1-3.3,6.6-6.4,9.2-6.4c4.2-0.1,4.2,2.9,4.2,6.9V43.7z"/>
		<path id="XMLID_205_" class="st2" d="M35.3,43.7c0,4,0.7,5.7,4.6,6.8c3.4,0.9,12.8,2.5,12.8-1.5c0-6.8-1.7-13.8-4-17.4
			c-2.1-3.3-6.6-6.4-9.2-6.4c-4.2-0.1-4.2,2.9-4.2,6.9V43.7z"/>
		<line id="XMLID_204_" class="st2" x1="31.8" y1="12.4" x2="31.8" y2="27.4"/>
		<line id="XMLID_202_" class="st2" x1="31.8" y1="27.4" x2="44.5" y2="40.2"/>
		<line id="XMLID_200_" class="st2" x1="40.7" y1="41.1" x2="40.1" y2="35.9"/>
		<line id="XMLID_197_" class="st2" x1="45.3" y1="36.5" x2="40.1" y2="35.9"/>
		<line id="XMLID_196_" class="st2" x1="31.7" y1="27" x2="19" y2="39.7"/>
		<line id="XMLID_195_" class="st2" x1="22.8" y1="40.6" x2="23.4" y2="35.5"/>
		<line id="XMLID_194_" class="st2" x1="18.2" y1="36" x2="23.4" y2="35.5"/>
	</g>
	<g id="XMLID_208_" class="st0">
		<path id="XMLID_191_" class="st2" d="M25.6,36.3c0.2,1,1,3.3,3.5,3c0,0,1.9,7.8,2.4,9.9c0.1,0.3,0.3,0.5,0.6,0.5l1.8-0.2
			c0.3,0,0.6-0.3,0.5-0.7c-0.2-2-0.8-8.3,0.3-10c4.2-0.4,6.5-3.7,5.9-6.1"/>
		<path id="XMLID_190_" class="st2" d="M51.4,25.5c0,2-0.6,2.8-1.8,4.5c-1.6,2.4-4.1,2.3-7.2,2.8c-3,0.5-10.4,1.5-10.4,1.5
			c-5.6,0.9-10,3.4-14,1.7c-2.9-1.2-2.5-3.5-2.1-4.6c0.1-0.2-0.1-0.5-0.4-0.5c-1,0.1-2.9-0.3-2.9-4.3c0-7.5,8.7-12.4,19.4-12.4
			S51.4,18.1,51.4,25.5z"/>
		<path id="XMLID_189_" class="st2" d="M24.4,20.1c2.4-0.6,5-0.9,7.7-0.9c3.5,0,6.9,0.4,9.7,1.2"/>
		<path id="XMLID_183_" class="st2" d="M35.9,19.3c0,0,2.6,1.4,3.8,4.6"/>
		<path id="XMLID_180_" class="st2" d="M33.1,25.4c0,6-4.9,10.9-10.9,10.9"/>
	</g>
	<g id="XMLID_222_" class="st0">
		<path id="XMLID_218_" class="st2" d="M27,41.2h-3.2V38c0-0.1-0.1-0.2-0.2-0.2h-3c-0.1,0-0.2,0.1-0.2,0.2v3.2h-3.2
			c-0.1,0-0.2,0.1-0.2,0.2v3c0,0.1,0.1,0.2,0.2,0.2h3.2v3.2c0,0.1,0.1,0.2,0.2,0.2h3c0.1,0,0.2-0.1,0.2-0.2v-3.2H27
			c0.1,0,0.2-0.1,0.2-0.2v-3C27.2,41.3,27.1,41.2,27,41.2z"/>
		<path id="XMLID_206_" class="st2" d="M20.3,35.4c0-7.8,13.1-21.3,15.1-23.3c0.1-0.1,0.4-0.1,0.5,0c2,2,15.1,15.5,15.1,23.3
			c0,8.5-6.9,15.4-15.4,15.4c-3.4,0-6.6-1.1-9.1-3"/>
		<path id="XMLID_193_" class="st6" d="M27,50.5c-1.4,0.9-3.1,1.5-5,1.5c-5,0-9.1-4.1-9.1-9.1c0-3.5,2-6.5,4.9-8"/>
	</g>
	<g id="XMLID_230_" class="st0">
		<path id="XMLID_328_" class="st2" d="M16,23.2h-1.1c-0.7,0-1.2,0.5-1.2,1.2v1.4"/>
		<path id="XMLID_229_" class="st2" d="M50.6,29.5v-5.1c0-0.7-0.5-1.2-1.2-1.2h-0.7"/>
		<path id="XMLID_329_" class="st2" d="M17.7,25.9V10.5c0-0.1,0.1-0.2,0.2-0.2h28.9c0.1,0,0.2,0.1,0.2,0.2v19"/>
		<path id="XMLID_310_" class="st2" d="M48.9,53.7H15.1c-0.3,0-0.6-0.2-0.6-0.6L12,28.5c0-0.4,0.3-0.7,0.6-0.7h10.9
			c0.1,0,0.3,0.1,0.4,0.1l3.9,3.3c0.1,0.1,0.3,0.1,0.4,0.1h23.2c0.4,0,0.7,0.3,0.6,0.7l-2.4,21C49.5,53.4,49.3,53.7,48.9,53.7z"/>
		<circle id="XMLID_227_" class="st2" cx="32.4" cy="43.6" r="6.2"/>
		<line id="XMLID_330_" class="st2" x1="35.6" y1="14.2" x2="44.3" y2="14.2"/>
		<line id="XMLID_322_" class="st2" x1="35.6" y1="18.4" x2="44.3" y2="18.4"/>
		<line id="XMLID_331_" class="st2" x1="35.6" y1="22.7" x2="44.3" y2="22.7"/>
		<line id="XMLID_224_" class="st2" x1="35.6" y1="27" x2="44.3" y2="27"/>
		<g id="XMLID_346_" class="st3">
			<path id="XMLID_357_" class="st4" d="M21.6,25.3v-1.4c0-0.3,0.2-0.5,0.4-0.6l3.7-1.2V20"/>
			<path id="XMLID_355_" class="st4" d="M33.1,25.3v-1.4c0-0.3-0.2-0.5-0.4-0.6L29,22.1V20"/>
			<path id="XMLID_354_" class="st4" d="M30.1,15.4c0-1.5-1.2-2.8-2.8-2.8c-1.5,0-2.8,1.2-2.8,2.8l0.3,3.3c0,0.4,0.3,0.8,0.7,1.1
				l1.3,0.9h0.9l1.4-0.9c0.4-0.2,0.7-0.6,0.7-1.1L30.1,15.4z"/>
			<polyline id="XMLID_347_" class="st4" points="25.7,22.1 26.8,23.2 28,23.2 29,22.1 			"/>
		</g>
		<g id="XMLID_225_" class="st3">
			<line id="XMLID_226_" class="st4" x1="30" y1="43.6" x2="34.7" y2="43.6"/>
			<line id="XMLID_228_" class="st4" x1="32.4" y1="46" x2="32.4" y2="41.2"/>
		</g>
	</g>
	<g id="XMLID_233_" class="st0">
		<polyline id="XMLID_259_" class="st2" points="32.7,53.6 16.4,53.6 16.4,27.2 		"/>
		<line id="XMLID_257_" class="st2" x1="41.2" y1="27.2" x2="41.2" y2="44.8"/>
		<path id="XMLID_234_" class="st2" d="M36.9,15.6h7.8c0.1,0,0.2,0.1,0.2,0.2v9.4c0,0.1-0.1,0.2-0.2,0.2H13c-0.1,0-0.2-0.1-0.2-0.2
			v-9.4c0-0.1,0.1-0.2,0.2-0.2h14.9"/>
		<path id="XMLID_235_" class="st2" d="M39.5,15.6L39.5,15.6c0-2.9-2.4-5.3-5.3-5.3H23.4c-2.9,0-5.3,2.4-5.3,5.3l0,0"/>
		<line id="XMLID_237_" class="st2" x1="16.8" y1="17.9" x2="16.8" y2="22.4"/>
		<line id="XMLID_232_" class="st2" x1="21.7" y1="17.9" x2="21.7" y2="22.4"/>
		<line id="XMLID_238_" class="st2" x1="26.7" y1="17.9" x2="26.7" y2="22.4"/>
		<line id="XMLID_239_" class="st2" x1="31.7" y1="17.9" x2="31.7" y2="22.4"/>
		<line id="XMLID_246_" class="st2" x1="36.6" y1="17.9" x2="36.6" y2="22.4"/>
		<line id="XMLID_247_" class="st2" x1="41.6" y1="17.9" x2="41.6" y2="22.4"/>
		<polyline id="XMLID_249_" class="st2" points="16.4,31.6 28.8,31.6 28.8,47.4 16.4,47.4 		"/>
		<line id="XMLID_253_" class="st2" x1="16.8" y1="37.1" x2="23.6" y2="37.1"/>
		<line id="XMLID_248_" class="st2" x1="16.8" y1="41.1" x2="20.2" y2="41.1"/>
		<path id="XMLID_255_" class="st2" d="M48.1,53.6H37.4c-1.7,0-3.1-1.4-3.1-3.1v0c0-1.7,1.4-3.1,3.1-3.1h10.7c1.7,0,3.1,1.4,3.1,3.1
			v0C51.2,52.2,49.8,53.6,48.1,53.6z"/>
		<line id="XMLID_258_" class="st2" x1="42.7" y1="47.4" x2="42.7" y2="53.6"/>
	</g>
	<g id="XMLID_268_" class="st0">
		<g id="XMLID_254_" class="st3">
			<polyline id="XMLID_263_" class="st4" points="9.8,17.5 27.4,35.2 31,31.7 32.6,29.9 15,12.2 			"/>
			<path id="XMLID_261_" class="st4" d="M34.4,31.6l19.8,19.8c0.1,0.1,0,0.4-0.2,0.4l0,0c-6.8,0-13.2-2.6-18-7.4l-2.2-2.2
				c-0.1-0.1-0.2-0.3-0.1-0.4l0.9-4.1c0-0.2,0-0.3-0.1-0.4l-2.8-2.8"/>
			<line id="XMLID_250_" class="st4" x1="28.1" y1="25.7" x2="23.2" y2="30.6"/>
		</g>
		<line id="XMLID_264_" class="st2" x1="13.6" y1="51.3" x2="16.8" y2="51.3"/>
		<line id="XMLID_262_" class="st2" x1="19.6" y1="51.3" x2="22.8" y2="51.3"/>
		<line id="XMLID_265_" class="st2" x1="25.7" y1="51.3" x2="28.9" y2="51.3"/>
		<line id="XMLID_266_" class="st2" x1="31.8" y1="51.3" x2="35" y2="51.3"/>
		<line id="XMLID_267_" class="st2" x1="37.8" y1="51.3" x2="41" y2="51.3"/>
	</g>
	<g id="XMLID_270_" class="st0">
		<path id="XMLID_854_" class="st2" d="M26.3,35.9l1-5.4c-0.6-1.3-0.9-2.7-0.9-4.2c0-5.6,4.6-10.2,10.2-10.2s10.2,4.6,10.2,10.2
			s-4.6,10.2-10.2,10.2c-2,0-3.8-0.6-5.4-1.6L26.3,35.9z"/>
		<path id="XMLID_274_" class="st2" d="M41.4,24.7h-3v-3c0-0.1-0.1-0.2-0.2-0.2h-2.8c-0.1,0-0.2,0.1-0.2,0.2v3h-3
			c-0.1,0-0.2,0.1-0.2,0.2v2.8c0,0.1,0.1,0.2,0.2,0.2h3v3c0,0.1,0.1,0.2,0.2,0.2h2.8c0.1,0,0.2-0.1,0.2-0.2v-3h3
			c0.1,0,0.2-0.1,0.2-0.2v-2.8C41.6,24.8,41.5,24.7,41.4,24.7z"/>
		<path id="XMLID_281_" class="st2" d="M36.8,38.4v12.4c0,1.2-0.9,2.1-2.1,2.1H14.1c-1.2,0-2.1-0.9-2.1-2.1V13.3
			c0-1.2,0.9-2.1,2.1-2.1h20.6c1.2,0,2.1,0.9,2.1,2.1v1.3"/>
		<line id="XMLID_280_" class="st2" x1="12" y1="17.5" x2="27.7" y2="17.5"/>
		<line id="XMLID_279_" class="st2" x1="20.4" y1="14.5" x2="28.4" y2="14.5"/>
		<line id="XMLID_278_" class="st2" x1="12" y1="46.6" x2="36.8" y2="46.6"/>
		<path id="XMLID_272_" class="st6" d="M43,12.8c1.8,0.7,3.3,1.8,4.7,3.2c1.3,1.3,2.4,2.9,3.2,4.7c0.7,1.8,1.2,3.7,1.2,5.7
			c0,2-0.4,4-1.2,5.7c-0.7,1.8-1.8,3.3-3.2,4.7c-1.3,1.3-2.9,2.4-4.7,3.2"/>
	</g>
	<g id="XMLID_292_" class="st0">
		<path id="XMLID_285_" class="st2" d="M28.1,15h3v9.2L29.5,30c-1.2,4.1-4.9,7-9.2,7h0c-4.3,0-8.1-2.9-9.2-7l-1.6-5.8V15h3.1"/>
		<path id="XMLID_282_" class="st2" d="M15,17.3h-1v-4.1h1c1.1,0,2,0.9,2,2l0,0C17.1,16.3,16.2,17.3,15,17.3z"/>
		<path id="XMLID_289_" class="st2" d="M25.7,17.3h1v-4.1h-1c-1.1,0-2,0.9-2,2l0,0C23.7,16.3,24.6,17.3,25.7,17.3z"/>
		<path id="XMLID_290_" class="st2" d="M19.7,37.1v6.5c0,4.4,3.6,8,8,8l0,0c4.4,0,8-3.6,8-8V17.8c0-3,2.4-5.4,5.4-5.4l0,0
			c3,0,5.4,2.4,5.4,5.4V33"/>
		<path id="XMLID_291_" class="st2" d="M31.1,23.1c0,5.1-4.9,9.2-10.9,9.2c-6,0-10.9-4.1-10.9-9.2"/>
		<circle id="XMLID_287_" class="st2" cx="46.4" cy="36" r="3.8"/>
		<path id="XMLID_293_" class="st6" d="M49.1,28.3c3.2,1.1,5.5,4.1,5.5,7.7c0,4.5-3.7,8.2-8.2,8.2c-4.5,0-8.2-3.7-8.2-8.2
			c0-3.6,2.4-6.7,5.6-7.8"/>
		<line id="XMLID_294_" class="st2" x1="45.3" y1="36" x2="47.3" y2="36"/>
	</g>
	<g id="XMLID_311_" class="st0">
		<g id="XMLID_297_" class="st3">
			<line id="XMLID_309_" class="st4" x1="19.7" y1="21" x2="30.2" y2="31.5"/>
			<line id="XMLID_308_" class="st5" x1="31.3" y1="32.6" x2="41.3" y2="42.6"/>
			<line id="XMLID_307_" class="st4" x1="26.3" y1="35.5" x2="28.2" y2="33.6"/>
			<line id="XMLID_306_" class="st4" x1="23.3" y1="32.5" x2="25.2" y2="30.5"/>
			<line id="XMLID_305_" class="st4" x1="20.2" y1="29.4" x2="22.2" y2="27.5"/>
			<line id="XMLID_303_" class="st4" x1="17.2" y1="26.4" x2="19.1" y2="24.5"/>
			<line id="XMLID_302_" class="st4" x1="29.3" y1="38.5" x2="31.2" y2="36.6"/>
			<line id="XMLID_301_" class="st4" x1="32.3" y1="41.5" x2="34.2" y2="39.6"/>
			<path id="XMLID_298_" class="st4" d="M13.9,23.8l19.5,19.5c0.4,0.4,1.3,0.9,1.9,1l4.7,0.8c0.6,0.1,1.4,0.5,1.9,1l4.7,4.7
				c0.3,0.3,0.8,0.3,1.2,0l1.6-1.6c0.3-0.3,0.3-0.8,0-1.2l-4.7-4.7c-0.4-0.4-0.9-1.3-1-1.9L43,36.6c-0.1-0.6-0.5-1.4-1-1.9
				L22.5,15.2c-2.4-2.4-6.2-2.4-8.5,0C11.6,17.6,11.6,21.4,13.9,23.8z"/>
		</g>
		<line id="XMLID_316_" class="st2" x1="53.3" y1="32.2" x2="47.2" y2="32.2"/>
		<line id="XMLID_332_" class="st2" x1="28.1" y1="53" x2="29.2" y2="47"/>
		<line id="XMLID_339_" class="st2" x1="21.2" y1="50.4" x2="24.2" y2="45.1"/>
		<line id="XMLID_342_" class="st2" x1="15.6" y1="45.6" x2="20.2" y2="41.7"/>
		<line id="XMLID_343_" class="st2" x1="11.9" y1="39.2" x2="17.7" y2="37.1"/>
		<line id="XMLID_344_" class="st2" x1="10.7" y1="31.9" x2="16.8" y2="31.9"/>
		<line id="XMLID_350_" class="st2" x1="28.4" y1="11" x2="29.5" y2="17"/>
		<line id="XMLID_351_" class="st2" x1="35.8" y1="11" x2="34.8" y2="17.1"/>
		<line id="XMLID_352_" class="st2" x1="42.7" y1="13.6" x2="39.7" y2="18.9"/>
		<line id="XMLID_353_" class="st2" x1="48.4" y1="18.4" x2="43.7" y2="22.3"/>
		<line id="XMLID_356_" class="st2" x1="52.1" y1="24.8" x2="46.3" y2="26.9"/>
	</g>
	<g id="XMLID_348_" class="st0">
		<path id="XMLID_359_" class="st2" d="M37.1,20.8h-3.2v-3.2c0-0.1-0.1-0.2-0.2-0.2h-3c-0.1,0-0.2,0.1-0.2,0.2v3.2h-3.2
			c-0.1,0-0.2,0.1-0.2,0.2v3c0,0.1,0.1,0.2,0.2,0.2h3.2v3.2c0,0.1,0.1,0.2,0.2,0.2h3c0.1,0,0.2-0.1,0.2-0.2v-3.2h3.2
			c0.1,0,0.2-0.1,0.2-0.2v-3C37.4,20.9,37.3,20.8,37.1,20.8z"/>
		<g id="XMLID_320_" class="st3">
			<path id="XMLID_296_" class="st4" d="M15.1,52.8h-4.1c-0.1,0-0.2-0.1-0.2-0.2V26.9c0-0.1,0.1-0.2,0.2-0.2h4.1
				c0.1,0,0.2,0.1,0.2,0.2v25.7C15.3,52.7,15.2,52.8,15.1,52.8z"/>
			<path id="XMLID_299_" class="st4" d="M53.1,52.8h-4.1c-0.1,0-0.2-0.1-0.2-0.2V33.9c0-0.1,0.1-0.2,0.2-0.2h4.1
				c0.1,0,0.2,0.1,0.2,0.2v18.7C53.3,52.7,53.2,52.8,53.1,52.8z"/>
			<line id="XMLID_319_" class="st4" x1="17.4" y1="41.3" x2="46.7" y2="41.3"/>
			<line id="XMLID_318_" class="st4" x1="17.4" y1="46.3" x2="46.7" y2="46.3"/>
			<path id="XMLID_323_" class="st4" d="M17.4,35.3h8.5c0.2,0,0.3,0.1,0.3,0.3v3.8"/>
		</g>
		<path id="XMLID_349_" class="st6" d="M32.2,33.7c-6.2,0-11.2-5-11.2-11.2c0-6.2,5-11.2,11.2-11.2c6.2,0,11.2,5,11.2,11.2"/>
		<path id="XMLID_345_" class="st2" d="M43.5,22.5c0,6.2-5,11.2-11.2,11.2"/>
	</g>
	<g id="XMLID_300_" class="st0">
		<g id="XMLID_362_" class="st3">
			<path id="XMLID_372_" class="st4" d="M39.2,23h-3.2v-3.2c0-0.1-0.1-0.2-0.2-0.2h-3c-0.1,0-0.2,0.1-0.2,0.2V23h-3.2
				c-0.1,0-0.2,0.1-0.2,0.2v3c0,0.1,0.1,0.2,0.2,0.2h3.2v3.2c0,0.1,0.1,0.2,0.2,0.2h3c0.1,0,0.2-0.1,0.2-0.2v-3.2h3.2
				c0.1,0,0.2-0.1,0.2-0.2v-3C39.4,23.1,39.3,23,39.2,23z"/>
			<path id="XMLID_364_" class="st5" d="M34.2,36C28,36,23,30.9,23,24.7s5-11.2,11.2-11.2c6.2,0,11.2,5,11.2,11.2"/>
			<path id="XMLID_363_" class="st4" d="M45.5,24.7c0,6.2-5,11.2-11.2,11.2"/>
		</g>
		<g id="XMLID_360_" class="st3">
			<path id="XMLID_508_" class="st4" d="M45,54l0-18.6c2.7-2.7,4.4-6.4,4.4-10.5c0-4.1-1.7-7.8-4.4-10.5c-2.7-2.7-6.4-4.4-10.5-4.4
				c-4.1,0-7.8,1.7-10.5,4.4c-2.7,2.7-4.4,6.4-4.4,10.5l-4.8,9c-0.1,0.2,0,0.3,0.2,0.3l4.4,0.1v10.2c0,0.9,0.7,1.5,1.5,1.5h11.6"/>
			<line id="XMLID_522_" class="st4" x1="28.6" y1="46.7" x2="28.6" y2="53"/>
		</g>
	</g>
	<g id="XMLID_387_" class="st0">
		<g id="XMLID_384_" class="st3">
			<polyline id="XMLID_367_" class="st4" points="15.6,39.1 32.2,22.5 35,22 36.6,20.4 39.9,23.7 38.3,25.3 37.8,28.1 21.2,44.7 			
				"/>
			<line id="XMLID_368_" class="st4" x1="11.1" y1="36.9" x2="23.4" y2="49.2"/>
			<line id="XMLID_383_" class="st4" x1="9.2" y1="44.8" x2="15.5" y2="51.1"/>
			<line id="XMLID_369_" class="st4" x1="31.4" y1="26" x2="32.9" y2="27.5"/>
			<line id="XMLID_304_" class="st4" x1="28.4" y1="29" x2="29.8" y2="30.5"/>
			<line id="XMLID_370_" class="st4" x1="25.4" y1="32" x2="26.8" y2="33.5"/>
			<line id="XMLID_371_" class="st4" x1="22.3" y1="35" x2="23.8" y2="36.5"/>
			<line id="XMLID_375_" class="st4" x1="19.3" y1="38" x2="20.8" y2="39.5"/>
			<line id="XMLID_379_" class="st4" x1="47.4" y1="12.9" x2="38.3" y2="22"/>
			<line id="XMLID_377_" class="st4" x1="16" y1="41.8" x2="10.8" y2="47"/>
			<line id="XMLID_380_" class="st4" x1="18.5" y1="44.3" x2="13.3" y2="49.5"/>
		</g>
		<path id="XMLID_388_" class="st2" d="M50.4,15c0,0,4.5,4.1,4.5,6.5s-2,4.5-4.5,4.5c-2.5,0-4.5-2-4.5-4.5c0-1.2,1-2.7,2-4"/>
	</g>
	<g id="XMLID_408_" class="st0">
		<path id="XMLID_409_" class="st2" d="M20.9,25.1v18.7c0,1.7-1.4,3.1-3.1,3.1l0,0c-1.7,0-3.1-1.4-3.1-3.1V25.1H20.9z"/>
		<path id="XMLID_407_" class="st2" d="M20.9,25.1v18.7c0,1.7-1.4,3.1-3.1,3.1l0,0c-1.7,0-3.1-1.4-3.1-3.1V25.1"/>
		<line id="XMLID_406_" class="st2" x1="12.6" y1="24.7" x2="22.9" y2="24.7"/>
		<path id="XMLID_405_" class="st2" d="M35.1,25v18.7c0,1.7-1.4,3.1-3.1,3.1l0,0c-1.7,0-3.1-1.4-3.1-3.1V25H35.1z"/>
		<path id="XMLID_401_" class="st2" d="M35.1,25v18.7c0,1.7-1.4,3.1-3.1,3.1l0,0c-1.7,0-3.1-1.4-3.1-3.1V25"/>
		<line id="XMLID_398_" class="st2" x1="26.9" y1="24.6" x2="37.2" y2="24.6"/>
		<path id="XMLID_397_" class="st2" d="M49.4,24.9v18.8c0,1.7-1.4,3.1-3.1,3.1l0,0c-1.7,0-3.1-1.4-3.1-3.1V24.9H49.4z"/>
		<path id="XMLID_395_" class="st2" d="M49.4,24.9v18.8c0,1.7-1.4,3.1-3.1,3.1l0,0c-1.7,0-3.1-1.4-3.1-3.1V24.9"/>
		<line id="XMLID_394_" class="st2" x1="41.1" y1="24.5" x2="51.5" y2="24.5"/>
		<polyline id="XMLID_393_" class="st2" points="13.5,34.9 11.5,34.9 11.5,51.1 52.5,51.1 52.5,34.9 50.8,34.9 		"/>
		<line id="XMLID_392_" class="st2" x1="22.3" y1="34.9" x2="27.6" y2="34.9"/>
		<line id="XMLID_391_" class="st2" x1="36.3" y1="34.9" x2="42" y2="34.9"/>
		<path id="XMLID_385_" class="st2" d="M17.6,22.9V20c0-3.9,3.2-7.1,7.1-7.1h0c3.9,0,7.1,3.2,7.1,7.1v2.9"/>
		<path id="XMLID_381_" class="st2" d="M32,22.9V20c0-3.9,3.2-7.1,7.1-7.1l0,0c3.9,0,7.1,3.2,7.1,7.1v2.9"/>
		<line id="XMLID_396_" class="st2" x1="14.6" y1="41" x2="20.9" y2="41"/>
		<line id="XMLID_390_" class="st2" x1="29.3" y1="37" x2="35.5" y2="37"/>
		<line id="XMLID_403_" class="st2" x1="43.5" y1="39.3" x2="49.8" y2="39.3"/>
	</g>
	<g id="XMLID_415_" class="st0">
		
			<rect id="XMLID_431_" x="46.7" y="42.8" transform="matrix(0.7071 -0.7071 0.7071 0.7071 -19.5202 48.2142)" class="st2" width="3.4" height="9.7"/>
		<line id="XMLID_430_" class="st2" x1="42.7" y1="41.9" x2="44.6" y2="43.8"/>
		<path id="XMLID_414_" class="st2" d="M15.7,38.5c-3.7-3.2-6.5-6.2-7-6.8c-0.1-0.1-0.1-0.1,0-0.2c0.5-0.6,3.5-3.8,7.5-7.1"/>
		<path id="XMLID_413_" class="st2" d="M46.6,23.4c4.6,3.6,8.2,7.5,8.8,8.2c0.1,0.1,0.1,0.1,0,0.2c-0.6,0.6-3.6,3.9-7.7,7.3"/>
		<circle id="XMLID_402_" class="st2" cx="31.8" cy="32" r="4.1"/>
		<path id="XMLID_412_" class="st2" d="M31.8,23.2c2.4,0,4.6,1,6.2,2.6c1.6,1.6,2.6,3.8,2.6,6.2c0,2.4-1,4.6-2.6,6.2
			c-1.6,1.6-3.8,2.6-6.2,2.6c-2.4,0-4.6-1-6.2-2.6C24,36.6,23,34.4,23,32"/>
		<circle id="XMLID_399_" class="st2" cx="31.8" cy="32" r="14.8"/>
		<path id="XMLID_416_" class="st6" d="M40.3,52.1c-2.6,1.1-5.5,1.7-8.5,1.7c-3,0-5.9-0.6-8.5-1.7c-2.6-1.1-5-2.7-6.9-4.7
			c-2-2-3.6-4.3-4.7-6.9"/>
		<path id="XMLID_411_" class="st6" d="M11.8,23.5c1.1-2.6,2.7-5,4.7-6.9c2-2,4.3-3.6,6.9-4.7c2.6-1.1,5.5-1.7,8.5-1.7
			c3,0,5.9,0.6,8.5,1.7c2.6,1.1,5,2.7,6.9,4.7c2,2,3.6,4.3,4.7,6.9"/>
	</g>
</g>
<g id="Icon_text" class="st0">
	<g id="XMLID_52_" class="st3">
		<text id="XMLID_376_" transform="matrix(1 0 0 1 -165.4625 -77.3334)" class="st7 st8 st9">DOCTOR</text>
	</g>
	<g id="XMLID_79_" class="st3">
		<text id="XMLID_378_" transform="matrix(1 0 0 1 -71.4214 -77.3334)" class="st7 st8 st9">NURSE</text>
	</g>
	<g id="XMLID_103_" class="st3">
		<text id="XMLID_382_" transform="matrix(1 0 0 1 14.0493 -77.3334)" class="st7 st8 st9">HOSPITAL</text>
	</g>
	<g id="XMLID_107_" class="st3">
		<text id="XMLID_386_" transform="matrix(1 0 0 1 100.2169 -77.3334)" class="st7 st8 st9">DIAGNOSTIC</text>
	</g>
	<g id="XMLID_110_" class="st3">
		<text id="XMLID_400_" transform="matrix(1 0 0 1 191.0824 -77.3334)" class="st7 st8 st9">HEART CARE</text>
	</g>
	<g id="XMLID_90_" class="st3">
		<text id="XMLID_404_" transform="matrix(1 0 0 1 -175.3146 19.8335)" class="st7 st8 st9">CARDIOGRAM</text>
	</g>
	<g id="XMLID_113_" class="st3">
		<text id="XMLID_418_" transform="matrix(1 0 0 1 -82.1596 19.8336)" class="st7 st8 st9">AMBULANCE</text>
	</g>
	<g id="XMLID_156_" class="st3">
		<text id="XMLID_419_" transform="matrix(1 0 0 1 9.2853 19.8336)"><tspan x="0" y="0" class="st7 st8 st9">EMERGENCY</tspan><tspan x="0.1" y="7" class="st7 st8 st9">HELICOPTER</tspan></text>
	</g>
	<g id="XMLID_165_" class="st3">
		<text id="XMLID_420_" transform="matrix(1 0 0 1 108.7035 19.8336)"><tspan x="0" y="0" class="st7 st8 st9">DENTAL</tspan><tspan x="4.6" y="7" class="st7 st8 st9">CARE</tspan></text>
	</g>
	<g id="XMLID_188_" class="st3">
		<text id="XMLID_421_" transform="matrix(1 0 0 1 197.7887 19.8336)"><tspan x="0" y="0" class="st7 st8 st9">MEDICAL</tspan><tspan x="-5.7" y="7" class="st7 st8 st9">TREATMENT</tspan></text>
	</g>
	<g id="XMLID_192_" class="st3">
		<text id="XMLID_422_" transform="matrix(1 0 0 1 -165.623 115.0003)" class="st7 st8 st9">KIDNEYS</text>
	</g>
	<g id="XMLID_223_" class="st3">
		<text id="XMLID_423_" transform="matrix(1 0 0 1 -71.6277 115.001)"><tspan x="0" y="0" class="st7 st8 st9">BLOOD</tspan><tspan x="-7.2" y="7" class="st7 st8 st9">DONATION</tspan></text>
	</g>
	<g id="XMLID_231_" class="st3">
		<text id="XMLID_424_" transform="matrix(1 0 0 1 15.4557 115.0006)"><tspan x="0" y="0" class="st7 st8 st9">MEDICAL</tspan><tspan x="1.1" y="7" class="st7 st8 st9">RECORD</tspan></text>
	</g>
	<g id="XMLID_260_" class="st3">
		<text id="XMLID_425_" transform="matrix(1 0 0 1 99.8179 115.0003)"><tspan x="0" y="0" class="st7 st8 st9">MEDICATION</tspan><tspan x="13.9" y="7" class="st7 st8 st9">PILLS</tspan></text>
	</g>
	<g id="XMLID_269_" class="st3">
		<text id="XMLID_441_" transform="matrix(1 0 0 1 197.218 115.0006)" class="st7 st8 st9">SURGERY</text>
	</g>
	<g id="XMLID_273_" class="st3">
		<text id="XMLID_442_" transform="matrix(1 0 0 1 -169.1547 211.0003)" class="st7 st8 st9">M-HEALTH</text>
	</g>
	<g id="XMLID_276_" class="st3">
		<text id="XMLID_443_" transform="matrix(1 0 0 1 19.6107 211.0006)" class="st7 st8 st9">LUNGS</text>
	</g>
	<g id="XMLID_277_" class="st3">
		<text id="XMLID_444_" transform="matrix(1 0 0 1 -161.5168 306.5003)" class="st7 st8 st9">BRAIN</text>
	</g>
	<g id="XMLID_295_" class="st3">
		<text id="XMLID_445_" transform="matrix(1 0 0 1 -85.4351 211.0006)" class="st7 st8 st9">STETHOSCOPE</text>
	</g>
	<g id="XMLID_314_" class="st3">
		<text id="XMLID_446_" transform="matrix(1 0 0 1 94.6636 211.001)" class="st7 st8 st9">THERMOMETER</text>
	</g>
	<g id="XMLID_358_" class="st3">
		<text id="XMLID_447_" transform="matrix(1 0 0 1 196.1059 211.0006)"><tspan x="0" y="0" class="st7 st8 st9">HOSPITAL</tspan><tspan x="10.6" y="7" class="st7 st8 st9">BED</tspan></text>
	</g>
	<g id="XMLID_366_" class="st3">
		<text id="XMLID_448_" transform="matrix(1 0 0 1 -73.9963 306.5003)"><tspan x="0" y="0" class="st7 st8 st9">MENTAL</tspan><tspan x="0.9" y="7" class="st7 st8 st9">HEALTH</tspan></text>
	</g>
	<g id="XMLID_389_" class="st3">
		<text id="XMLID_449_" transform="matrix(1 0 0 1 6.1639 306.5006)" class="st7 st8 st9">VACCINATION</text>
	</g>
	<g id="XMLID_410_" class="st3">
		<text id="XMLID_450_" transform="matrix(1 0 0 1 97.6543 306.5006)"><tspan x="0" y="0" class="st7 st8 st9">BIOCHEMICAL</tspan><tspan x="7.8" y="7" class="st7 st8 st9">ANALYSIS</tspan></text>
	</g>
	<g id="XMLID_417_" class="st3">
		<text id="XMLID_451_" transform="matrix(1 0 0 1 180.9223 306.5009)" class="st7 st8 st9">OPHTHALMOLOGY</text>
	</g>
</g>
<g id="headline" class="st0">
	<circle id="XMLID_61_" class="st10" cx="-133.5" cy="-208.4" r="18.3"/>
	<circle id="XMLID_60_" class="st11" cx="-110.1" cy="-208.4" r="18.3"/>
	<circle id="XMLID_63_" class="st12" cx="-122.7" cy="-190.1" r="18.3"/>
	<g id="XMLID_1_" class="st3">
		<text id="XMLID_452_" transform="matrix(1 0 0 1 -183.7552 -194.0852)"><tspan x="0" y="0" style="fill:#231F20; font-family:'Oswald-Bold'; font-size:22.512px;">FLAT </tspan><tspan x="45.5" y="0" style="fill:#231F20; font-family:'Oswald-Light'; font-size:22.512px;">LINE </tspan><tspan x="83.9" y="0" style="fill:#231F20; font-family:'Oswald-Bold'; font-size:22.512px;">ICONS</tspan></text>
	</g>
	<g id="XMLID_2_" class="st3">
		
			<text id="XMLID_453_" transform="matrix(1 0 0 1 91.4469 -193.9056)" style="fill:#231F20; font-family:'Oswald-Light'; font-size:16.1735px;">HEALTHCARE &amp; MEDICINE</text>
	</g>
</g>
</svg>
