<?xml version="1.0" ?><svg viewBox="0 0 64 64" xmlns="http://www.w3.org/2000/svg"><defs><style>.cls-1{fill:#c7e2fc;}.cls-2{fill:#976947;}.cls-3{fill:#ac876c;}.cls-4{fill:#f7d881;}.cls-5{fill:#a8b0bc;}.cls-6{fill:#a1cdfb;}</style></defs><title/><g data-name="Layer 5" id="Layer_5"><ellipse class="cls-1" cx="25.97" cy="31.09" rx="12.73" ry="14.83"/><rect class="cls-2" height="4" width="4" x="34" y="48"/><rect class="cls-2" height="4" width="4" x="54" y="48"/><rect class="cls-3" height="8" width="28" x="32" y="40"/><rect class="cls-3" height="4" width="32" x="30" y="52"/><rect class="cls-3" height="6" width="4" x="32" y="56"/><rect class="cls-3" height="6" width="4" x="56" y="56"/><polygon class="cls-4" points="52 24 48 24 46 18 54 18 52 24"/><polygon class="cls-5" points="46 18 50 13 54 18 46 18"/><circle class="cls-4" cx="57" cy="27" r="2"/><circle class="cls-4" cx="43" cy="27" r="2"/><polygon class="cls-6" points="2 50 12 2 22 50 2 50"/><path d="M62,57a1,1,0,0,0,1-1V52a1,1,0,0,0-1-1H59V49h1a1,1,0,0,0,1-1V40a1,1,0,0,0-1-1H51V31h3a1,1,0,0,0,.71-.29l1-1a3,3,0,1,0-1.41-1.41l-.71.71H51V25h1a1,1,0,0,0,1-.68l2-6a1,1,0,0,0-.14-.9l0,0h0l-4-5a1,1,0,0,0-1.56,0l-4,5h0l0,0a1,1,0,0,0-.14.9l2,6A1,1,0,0,0,48,25h1v4H46.41l-.71-.71a3,3,0,1,0-1.41,1.41l1,1A1,1,0,0,0,46,31h3v8H38.12A17.61,17.61,0,0,0,40,31c0-8.82-6.28-16-14-16a13,13,0,0,0-9.4,4.17L13,1.8a1,1,0,0,0-2,0L1,49.8a1,1,0,0,0,.2.83A1,1,0,0,0,2,51h9V61H1v2H63V61H61V57ZM57,26a1,1,0,1,1-1,1A1,1,0,0,1,57,26ZM50,14.6,51.92,17H48.08ZM47.39,19h5.22l-1.33,4H48.72ZM42,27a1,1,0,1,1,1,1A1,1,0,0,1,42,27ZM61,55H31V53H61ZM27,47a12.71,12.71,0,0,0,4-1v2a1,1,0,0,0,1,1h1v2H30a1,1,0,0,0-1,1v4a1,1,0,0,0,1,1h1v4H27Zm24,4V49h2v2Zm-2,0H39V49H49ZM37,51H35V49h2Zm-4,6h2v4H33Zm4,0H49v4H37Zm14,0h4v4H51Zm6-6H55V49h2Zm2-4H33V41H59ZM26,17c6.62,0,12,6.28,12,14a15.4,15.4,0,0,1-2.17,8H32a1,1,0,0,0-1,1v3.71a10.73,10.73,0,0,1-4,1.22V35.41l3.71-3.7-1.42-1.42L27,32.59V29H25v8.59l-1.29-1.3-1.42,1.42L25,40.41v4.53a10.53,10.53,0,0,1-3.21-.85L17.11,21.63A11.28,11.28,0,0,1,26,17ZM3.23,49,12,6.9,20.77,49H13V37.41l2.71-2.7-1.42-1.42L13,34.59V30H11V40.59l-2.29-2.3L7.29,39.71,11,43.41V49ZM13,51h9a1,1,0,0,0,.78-.37,1,1,0,0,0,.2-.83l-.71-3.39a12.1,12.1,0,0,0,2.73.53V61H13ZM59,61H57V57h2Z"/></g></svg>