<?xml version="1.0" ?><svg data-name="Layer 2" id="Layer_2" viewBox="0 0 2000 2000" xmlns="http://www.w3.org/2000/svg"><defs><style>.cls-1{fill:#67baeb;}.cls-2{fill:#46a1f8;}.cls-3{fill:#4d4c78;}.cls-4{fill:#f8881b;}.cls-5{fill:#f08000;}.cls-6{fill:#f4c23f;}.cls-7{fill:#f4a93f;}.cls-8{fill:#cf6b00;}.cls-9{fill:#323150;}.cls-10{fill:#83d0fb;}</style></defs><title/><path class="cls-1" d="M633.5,894.3H752.9a57.8,57.8,0,0,1,57.8,57.8v591.4a0,0,0,0,1,0,0H575.7a0,0,0,0,1,0,0V952.2A57.8,57.8,0,0,1,633.5,894.3Z"/><path class="cls-1" d="M1023.2,752.9h119.4a57.8,57.8,0,0,1,57.8,57.8v732.9a0,0,0,0,1,0,0H965.3a0,0,0,0,1,0,0V810.7A57.8,57.8,0,0,1,1023.2,752.9Z"/><path class="cls-1" d="M1412.8,532.6h119.4a57.8,57.8,0,0,1,57.8,57.8v953.1a0,0,0,0,1,0,0H1355a0,0,0,0,1,0,0V590.4A57.8,57.8,0,0,1,1412.8,532.6Z"/><path class="cls-2" d="M658.1,1461.2V894.3H633.5a57.8,57.8,0,0,0-57.8,57.9v591.4h235v-82.4Z"/><path class="cls-2" d="M1047.7,1435V752.9h-24.5a57.8,57.8,0,0,0-57.9,57.8v732.9h235.1v-82.4H1073.9A26.3,26.3,0,0,1,1047.7,1435Z"/><path class="cls-2" d="M1437.4,1435V532.6h-24.6a57.8,57.8,0,0,0-57.8,57.8v953.2h235.1v-82.4H1463.6A26.2,26.2,0,0,1,1437.4,1435Z"/><path class="cls-3" d="M1726.5,1571.6H838.4a28,28,0,0,1,0-56h888.1a28,28,0,0,1,0,56Z"/><path class="cls-3" d="M1374.5,283.7l-110-.2h-.1a28,28,0,0,0,0,56h43.5L1061.4,531.1a73.3,73.3,0,0,1-43.5,14.5H787.2a198.9,198.9,0,0,0-114.3,36L383.3,784.1A28,28,0,1,0,415.4,830L705,627.5a143.1,143.1,0,0,1,82.2-25.9h230.7a128.6,128.6,0,0,0,77.4-26l.3-.2,250.7-194.7v51.9a27.9,27.9,0,0,0,27.9,28h.1a28.1,28.1,0,0,0,28-27.9l.2-120.9A28,28,0,0,0,1374.5,283.7Z"/><path class="cls-2" d="M810.7,1175.3a331.5,331.5,0,0,0-205.8-71.2c-9.8,0-19.6.4-29.2,1.3v438.2h235Z"/><circle class="cls-4" cx="604.9" cy="1437.3" r="297.9"/><circle class="cls-5" cx="604.9" cy="1437.3" r="263.3"/><circle class="cls-6" cx="604.9" cy="1437.3" r="233.6"/><path class="cls-7" d="M601.9,1203.7c-127.7,1.6-230.6,105.5-230.6,233.6s102.9,231.9,230.6,233.5Z"/><path class="cls-4" d="M610.7,1648.8a34.4,34.4,0,0,1-34.4-34.4v-41.5H512.5a34.4,34.4,0,1,1,0-68.8H656.6a17.8,17.8,0,0,0,0-35.5h-92a86.6,86.6,0,0,1,0-173.1h11.7v-27.4a34.4,34.4,0,1,1,68.8,0v27.4h63.7a34.4,34.4,0,1,1,0,68.8H564.6a17.8,17.8,0,0,0,0,35.5h92a86.6,86.6,0,0,1,0,173.1H645.1v41.5A34.5,34.5,0,0,1,610.7,1648.8Z"/><path class="cls-8" d="M647.8,1402.2h-92a24.2,24.2,0,0,1,0-48.3H700a28,28,0,0,0,0-56H629.9v-33.8a28,28,0,0,0-56,0v33.8H555.8a80.2,80.2,0,0,0,0,160.3h92a24.2,24.2,0,0,1,0,48.3H503.7a28,28,0,0,0,0,56h70.2v47.9a28,28,0,0,0,56,0v-47.9h17.9a80.2,80.2,0,0,0,0-160.3Z"/><path class="cls-9" d="M1095.3,575.6l.3-.2,250.7-194.7v51.9a27.9,27.9,0,0,0,27.9,28h.1a28.1,28.1,0,0,0,28-27.9l.2-120.9a27.4,27.4,0,0,0-3.6-13.7c-82.1,65.4-286.6,228.3-313.5,249.5-33.7,26.6-62,26.1-62,26.1s-187.9,4-223.4.5-86.8,15.9-86.8,15.9l-336.8,233a27.9,27.9,0,0,0,39,6.9L705,627.5a143.1,143.1,0,0,1,82.2-25.9h230.7A128.6,128.6,0,0,0,1095.3,575.6Z"/><rect class="cls-10" height="250.72" rx="42.4" ry="42.4" width="84.8" x="1505.3" y="678.7"/><rect class="cls-10" height="250.72" rx="42.4" ry="42.4" width="84.8" x="1115.6" y="853.4"/><rect class="cls-10" height="170.48" rx="42.4" ry="42.4" width="84.8" x="725.9" y="937.3"/></svg>