<?xml version="1.0" ?><!DOCTYPE svg  PUBLIC '-//W3C//DTD SVG 1.1//EN'  'http://www.w3.org/Graphics/SVG/1.1/DTD/svg11.dtd'><svg enable-background="new 0 0 128 128" id="Слой_1" version="1.1" viewBox="0 0 128 128" xml:space="preserve" xmlns="http://www.w3.org/2000/svg" xmlns:xlink="http://www.w3.org/1999/xlink"><path d="M114.3,107.4l10.4-59.7c1.8-10.5-4.9-20.6-15.3-22.9l-82-18.6C14,3.2,1.5,14.3,3.1,28l8.8,78.3  c1.1,10.1,9.7,17.8,19.9,17.8h62.8C104.3,124,112.6,117,114.3,107.4z" fill="#E3EDC3"/><g><g opacity="0.5"><circle cx="64" cy="64" fill="#FFFFFF" r="50"/></g><g><circle cx="64" cy="64" fill="#F7F7F7" r="50"/></g><g opacity="0.2"><path d="M64,14c-1.4,0-2.8,0.1-4.2,0.2c25.7,2.1,45.8,23.6,45.8,49.8s-20.2,47.7-45.8,49.8    c1.4,0.1,2.8,0.2,4.2,0.2c27.6,0,50-22.4,50-50S91.6,14,64,14z" fill="#62345B"/></g><g><path d="M93.6,54.6H75c-0.9,0-1.7-0.7-1.7-1.7V34.4c0-0.9-0.7-1.7-1.7-1.7H56.3c-0.9,0-1.7,0.7-1.7,1.7V53    c0,0.9-0.7,1.7-1.7,1.7H34.4c-0.9,0-1.7,0.7-1.7,1.7v15.4c0,0.9,0.7,1.7,1.7,1.7H53c0.9,0,1.7,0.7,1.7,1.7v18.5    c0,0.9,0.7,1.7,1.7,1.7h15.4c0.9,0,1.7-0.7,1.7-1.7V75c0-0.9,0.7-1.7,1.7-1.7h18.5c0.9,0,1.7-0.7,1.7-1.7V56.3    C95.3,55.4,94.5,54.6,93.6,54.6z" fill="#F1657C"/></g><g><path d="M71.7,96.8H56.3c-1.7,0-3.2-1.4-3.2-3.2V75c0-0.1-0.1-0.2-0.2-0.2H34.4c-1.7,0-3.2-1.4-3.2-3.2V56.3    c0-1.7,1.4-3.2,3.2-3.2H53c0.1,0,0.2-0.1,0.2-0.2V34.4c0-1.7,1.4-3.2,3.2-3.2h15.4c1.7,0,3.2,1.4,3.2,3.2V53    c0,0.1,0.1,0.2,0.2,0.2h18.5c1.7,0,3.2,1.4,3.2,3.2v15.4c0,1.7-1.4,3.2-3.2,3.2H75c-0.1,0-0.2,0.1-0.2,0.2v18.5    C74.9,95.3,73.5,96.8,71.7,96.8z M34.4,56.1c-0.1,0-0.2,0.1-0.2,0.2v15.4c0,0.1,0.1,0.2,0.2,0.2H53c1.7,0,3.2,1.4,3.2,3.2v18.5    c0,0.1,0.1,0.2,0.2,0.2h15.4c0.1,0,0.2-0.1,0.2-0.2V75c0-1.7,1.4-3.2,3.2-3.2h18.5c0.1,0,0.2-0.1,0.2-0.2V56.3    c0-0.1-0.1-0.2-0.2-0.2H75c-1.7,0-3.2-1.4-3.2-3.2V34.4c0-0.1-0.1-0.2-0.2-0.2H56.3c-0.1,0-0.2,0.1-0.2,0.2V53    c0,1.7-1.4,3.2-3.2,3.2H34.4z" fill="#62345B"/></g><g><path d="M64,115.5c-28.4,0-51.5-23.1-51.5-51.5S35.6,12.5,64,12.5s51.5,23.1,51.5,51.5S92.4,115.5,64,115.5z     M64,15.5c-26.7,0-48.5,21.8-48.5,48.5s21.8,48.5,48.5,48.5s48.5-21.8,48.5-48.5S90.7,15.5,64,15.5z" fill="#62345B"/></g></g></svg>